G04 Generated by Ultiboard 14.0 *
%FSLAX34Y34*%
%MOMM*%

%ADD10C,0.0001*%
%ADD11C,0.2540*%
%ADD12C,0.1270*%
%ADD13C,1.0000*%
%ADD14C,1.3556*%
%ADD15R,1.3556X1.3556*%
%ADD16R,1.0500X1.4000*%
%ADD17R,2.2000X0.6000*%
%ADD18R,1.7526X1.7526*%
%ADD19C,1.7526*%
%ADD20R,0.5718X1.1857*%
%ADD21C,0.4232*%
%ADD22R,1.1857X0.5718*%


G04 ColorRGB 00FF00 for the following layer *
%LNCopper Top*%
%LPD*%
G54D10*
G36*
X1012175Y1019799D02*
X1012175Y1019799D01*
X1012175Y605808D01*
X3828Y605808D01*
X3828Y1019799D01*
X1012175Y1019799D01*
D02*
G37*
%LPC*%
G36*
X993410Y838152D02*
G75*
D01*
G03X993410Y838152I-2810J10208*
G01*
D02*
G37*
G36*
X956172Y968883D02*
G75*
D01*
G03X956172Y968883I19188J14097*
G01*
D02*
G37*
G36*
X954594Y931338D02*
X954594Y931338D01*
X954594Y928321D01*
X961439Y928321D01*
X961439Y935166D01*
X958422Y935166D01*
G75*
D01*
G03X954594Y931338I0J-3828*
G01*
D02*
G37*
G36*
X954594Y917782D02*
G75*
D01*
G03X958422Y913954I3828J0*
G01*
X958422Y913954D01*
X961439Y913954D01*
X961439Y920799D01*
X954594Y920799D01*
X954594Y917782D01*
D02*
G37*
G36*
X723925Y880940D02*
X723925Y880940D01*
X723925Y886439D01*
X746097Y908612D01*
X746097Y826976D01*
X734123Y815002D01*
G74*
D01*
G03X733613Y815340I2363J3012*
G01*
G75*
D01*
G03X735588Y818690I-1853J3350*
G01*
X735588Y818690D01*
X735588Y824690D01*
G74*
D01*
G03X733613Y828040I3828J0*
G01*
G75*
D01*
G03X735588Y831390I-1853J3350*
G01*
X735588Y831390D01*
X735588Y837390D01*
G74*
D01*
G03X733613Y840740I3828J0*
G01*
G75*
D01*
G03X735588Y844090I-1853J3350*
G01*
X735588Y844090D01*
X735588Y850090D01*
G74*
D01*
G03X731760Y853918I3828J0*
G01*
X731760Y853918D01*
X709760Y853918D01*
G75*
D01*
G03X705932Y850090I0J-3828*
G01*
X705932Y850090D01*
X705932Y844090D01*
G75*
D01*
G03X707907Y840740I3828J0*
G01*
G74*
D01*
G03X706024Y838225I1853J3350*
G01*
X706024Y838225D01*
X703140Y838225D01*
G75*
D01*
G03X689828Y826795I-7175J-5110*
G01*
X689828Y826795D01*
X681069Y826795D01*
G75*
D01*
G03X660287Y828065I-10509J-1293*
G01*
X660287Y828065D01*
X644276Y828065D01*
G75*
D01*
G03X625724Y828065I-9276J-5103*
G01*
X625724Y828065D01*
X618876Y828065D01*
G75*
D01*
G03X600324Y828065I-9276J-5103*
G01*
X600324Y828065D01*
X593476Y828065D01*
G75*
D01*
G03X593476Y817855I-9275J-5105*
G01*
X593476Y817855D01*
X600324Y817855D01*
G75*
D01*
G03X618876Y817855I9276J5103*
G01*
X618876Y817855D01*
X625724Y817855D01*
G75*
D01*
G03X644276Y817855I9276J5103*
G01*
X644276Y817855D01*
X663234Y817855D01*
G74*
D01*
G03X665455Y816224I7324J7646*
G01*
X665455Y816224D01*
X665455Y809376D01*
G75*
D01*
G03X665455Y790824I5103J-9276*
G01*
X665455Y790824D01*
X665455Y783976D01*
G75*
D01*
G03X675665Y783976I5105J-9275*
G01*
X675665Y783976D01*
X675665Y790824D01*
G75*
D01*
G03X675665Y809376I-5103J9276*
G01*
X675665Y809376D01*
X675665Y816224D01*
G74*
D01*
G03X676273Y816585I5098J9279*
G01*
X676273Y816585D01*
X706562Y816585D01*
G74*
D01*
G03X707907Y815340I3197J2105*
G01*
G74*
D01*
G03X705932Y811990I1853J3350*
G01*
X705932Y811990D01*
X705932Y805990D01*
G75*
D01*
G03X709760Y802162I3828J0*
G01*
X709760Y802162D01*
X731760Y802162D01*
G74*
D01*
G03X734958Y803885I1J3828*
G01*
X734958Y803885D01*
X735330Y803885D01*
G74*
D01*
G03X738945Y805387I2J5105*
G01*
X738945Y805387D01*
X754805Y821246D01*
G75*
D01*
G03X756306Y824862I-3603J3615*
G01*
X756306Y824862D01*
X756306Y912122D01*
X757130Y912122D01*
G75*
D01*
G03X763084Y918076I0J5954*
G01*
X763084Y918076D01*
X763084Y923794D01*
G74*
D01*
G03X757130Y929748I5954J0*
G01*
X757130Y929748D01*
X745273Y929748D01*
G75*
D01*
G03X739319Y923794I0J-5954*
G01*
X739319Y923794D01*
X739319Y918076D01*
G75*
D01*
G03X739535Y916487I5954J0*
G01*
X739535Y916487D01*
X715211Y892163D01*
G75*
D01*
G03X713715Y888546I3607J-3610*
G01*
X713715Y888546D01*
X713715Y880940D01*
G75*
D01*
G03X723925Y880940I5105J-7179*
G01*
D02*
G37*
G36*
X786911Y816515D02*
X786911Y816515D01*
X956799Y816515D01*
G74*
D01*
G03X960095Y813684I8400J6446*
G01*
X960095Y813684D01*
X960095Y790258D01*
X945832Y775995D01*
X889386Y775995D01*
G75*
D01*
G03X870834Y775995I-9276J-5103*
G01*
X870834Y775995D01*
X863986Y775995D01*
G75*
D01*
G03X845434Y775995I-9276J-5103*
G01*
X845434Y775995D01*
X838586Y775995D01*
G75*
D01*
G03X838586Y765785I-9275J-5105*
G01*
X838586Y765785D01*
X845434Y765785D01*
G75*
D01*
G03X863986Y765785I9276J5103*
G01*
X863986Y765785D01*
X870834Y765785D01*
G75*
D01*
G03X889386Y765785I9276J5103*
G01*
X889386Y765785D01*
X947945Y765785D01*
G75*
D01*
G03X948055Y765787I-38J5105*
G01*
G74*
D01*
G03X951562Y767287I108J5103*
G01*
X951562Y767287D01*
X968803Y784528D01*
G75*
D01*
G03X970305Y788144I-3602J3616*
G01*
X970305Y788144D01*
X970305Y813684D01*
G75*
D01*
G03X955304Y826725I-5107J9274*
G01*
X955304Y826725D01*
X787003Y826725D01*
G74*
D01*
G03X785613Y828040I3242J2035*
G01*
G74*
D01*
G03X786958Y829285I1852J3350*
G01*
X786958Y829285D01*
X791210Y829285D01*
G74*
D01*
G03X794825Y830787I2J5105*
G01*
X794825Y830787D01*
X801163Y837125D01*
G75*
D01*
G03X802665Y840740I-3601J3616*
G01*
X802665Y840740D01*
X802665Y912122D01*
X803488Y912122D01*
G74*
D01*
G03X809003Y915831I0J5954*
G01*
X809003Y915831D01*
X918451Y915831D01*
X919455Y914826D01*
X919455Y906354D01*
X917366Y904265D01*
X912207Y904265D01*
X912207Y905088D01*
G74*
D01*
G03X906252Y911043I5955J0*
G01*
X906252Y911043D01*
X900535Y911043D01*
G75*
D01*
G03X894580Y905088I0J-5955*
G01*
X894580Y905088D01*
X894580Y893232D01*
G75*
D01*
G03X900535Y887277I5955J0*
G01*
X900535Y887277D01*
X906252Y887277D01*
G75*
D01*
G03X912207Y893232I0J5955*
G01*
X912207Y893232D01*
X912207Y894055D01*
X919473Y894055D01*
G75*
D01*
G03X919487Y894055I7J5105*
G01*
X919487Y894055D01*
X922012Y894055D01*
G75*
D01*
G03X922028Y894055I8J5105*
G01*
X922028Y894055D01*
X929633Y894055D01*
G75*
D01*
G03X929647Y894055I7J5105*
G01*
X929647Y894055D01*
X934710Y894055D01*
G75*
D01*
G03X934720Y894055I5J5105*
G01*
X934720Y894055D01*
X955924Y894055D01*
G75*
D01*
G03X955924Y904265I9275J5105*
G01*
X955924Y904265D01*
X931754Y904265D01*
X930718Y905300D01*
G74*
D01*
G03X930700Y905318I3617J3599*
G01*
X930700Y905318D01*
X929665Y906354D01*
X929665Y916940D01*
G74*
D01*
G03X928163Y920555I5105J2*
G01*
X928163Y920555D01*
X924180Y924539D01*
G74*
D01*
G03X920565Y926040I3615J3603*
G01*
X920565Y926040D01*
X809003Y926040D01*
G74*
D01*
G03X803488Y929748I5514J2246*
G01*
X803488Y929748D01*
X791632Y929748D01*
G75*
D01*
G03X789739Y929440I-3J-5954*
G01*
X789739Y929440D01*
X779805Y939374D01*
X779805Y943795D01*
G74*
D01*
G03X778303Y947411I5105J1*
G01*
X778303Y947411D01*
X764531Y961183D01*
G74*
D01*
G03X761958Y962577I3616J3602*
G01*
G75*
D01*
G03X760910Y962685I-1044J-4996*
G01*
X760910Y962685D01*
X627383Y962685D01*
G75*
D01*
G03X623771Y961189I-1J-5105*
G01*
X623771Y961189D01*
X523666Y861085D01*
X403866Y861085D01*
G75*
D01*
G03X400251Y859589I-4J-5105*
G01*
X400251Y859589D01*
X380390Y839729D01*
G74*
D01*
G03X379213Y840740I3030J2337*
G01*
G75*
D01*
G03X381188Y844090I-1853J3350*
G01*
X381188Y844090D01*
X381188Y850090D01*
G74*
D01*
G03X377360Y853918I3828J0*
G01*
X377360Y853918D01*
X371465Y853918D01*
X371465Y890240D01*
G74*
D01*
G03X375036Y894055I5705J8919*
G01*
X375036Y894055D01*
X381884Y894055D01*
G75*
D01*
G03X400436Y894055I9276J5103*
G01*
X400436Y894055D01*
X407284Y894055D01*
G75*
D01*
G03X407284Y904265I9275J5105*
G01*
X407284Y904265D01*
X400436Y904265D01*
G75*
D01*
G03X381884Y904265I-9276J-5103*
G01*
X381884Y904265D01*
X375036Y904265D01*
G75*
D01*
G03X361255Y889578I-9274J-5107*
G01*
X361255Y889578D01*
X361255Y853918D01*
X355360Y853918D01*
G75*
D01*
G03X351532Y850090I0J-3828*
G01*
X351532Y850090D01*
X351532Y844090D01*
G75*
D01*
G03X353507Y840740I3828J0*
G01*
G74*
D01*
G03X352162Y839495I1852J3350*
G01*
X352162Y839495D01*
X351790Y839495D01*
G75*
D01*
G03X351613Y839491I27J-5105*
G01*
G74*
D01*
G03X348181Y837999I177J5101*
G01*
X348181Y837999D01*
X336751Y826569D01*
G75*
D01*
G03X335255Y822947I3607J-3610*
G01*
X335255Y822947D01*
X335255Y766241D01*
G75*
D01*
G03X336751Y762624I5105J-6*
G01*
X336751Y762624D01*
X338853Y760521D01*
G74*
D01*
G03X338637Y758932I5738J1589*
G01*
X338637Y758932D01*
X338637Y753215D01*
G75*
D01*
G03X344592Y747260I5955J0*
G01*
X344592Y747260D01*
X356448Y747260D01*
G75*
D01*
G03X362403Y753215I0J5955*
G01*
X362403Y753215D01*
X362403Y758932D01*
G74*
D01*
G03X356448Y764887I5955J0*
G01*
X356448Y764887D01*
X348926Y764887D01*
X345465Y768348D01*
X345465Y820846D01*
X352997Y828378D01*
G74*
D01*
G03X353507Y828040I2363J3012*
G01*
G74*
D01*
G03X351532Y824690I1853J3350*
G01*
X351532Y824690D01*
X351532Y818690D01*
G75*
D01*
G03X353507Y815340I3828J0*
G01*
G74*
D01*
G03X351532Y811990I1853J3350*
G01*
X351532Y811990D01*
X351532Y811411D01*
X363939Y811411D01*
X363939Y814862D01*
X368781Y814862D01*
X368781Y811411D01*
X381188Y811411D01*
X381188Y811990D01*
G74*
D01*
G03X379213Y815340I3828J0*
G01*
G74*
D01*
G03X381096Y817855I1853J3350*
G01*
X381096Y817855D01*
X409824Y817855D01*
G75*
D01*
G03X409824Y828065I9275J5105*
G01*
X409824Y828065D01*
X379257Y828065D01*
G74*
D01*
G03X380558Y829285I1896J3326*
G01*
X380558Y829285D01*
X382270Y829285D01*
G74*
D01*
G03X385885Y830787I2J5105*
G01*
X385885Y830787D01*
X405974Y850875D01*
X525780Y850875D01*
G74*
D01*
G03X529395Y852377I2J5105*
G01*
X529395Y852377D01*
X629494Y952475D01*
X758801Y952475D01*
X769595Y941681D01*
X769595Y937273D01*
G75*
D01*
G03X771091Y933651I5105J-11*
G01*
X771091Y933651D01*
X785677Y919064D01*
X785677Y918076D01*
G75*
D01*
G03X791632Y912122I5955J1*
G01*
X791632Y912122D01*
X792455Y912122D01*
X792455Y842854D01*
X789096Y839495D01*
X786958Y839495D01*
G74*
D01*
G03X785613Y840740I3197J2105*
G01*
G75*
D01*
G03X787588Y844090I-1853J3350*
G01*
X787588Y844090D01*
X787588Y850090D01*
G74*
D01*
G03X783760Y853918I3828J0*
G01*
X783760Y853918D01*
X761760Y853918D01*
G75*
D01*
G03X757932Y850090I0J-3828*
G01*
X757932Y850090D01*
X757932Y844090D01*
G75*
D01*
G03X759907Y840740I3828J0*
G01*
G74*
D01*
G03X757932Y837390I1853J3350*
G01*
X757932Y837390D01*
X757932Y831390D01*
G75*
D01*
G03X759907Y828040I3828J0*
G01*
G74*
D01*
G03X757932Y824690I1853J3350*
G01*
X757932Y824690D01*
X757932Y818690D01*
G75*
D01*
G03X759907Y815340I3828J0*
G01*
G74*
D01*
G03X757932Y811990I1853J3350*
G01*
X757932Y811990D01*
X757932Y805990D01*
G75*
D01*
G03X761760Y802162I3828J0*
G01*
X761760Y802162D01*
X783760Y802162D01*
G75*
D01*
G03X787588Y805990I0J3828*
G01*
X787588Y805990D01*
X787588Y811990D01*
G74*
D01*
G03X785613Y815340I3828J0*
G01*
G74*
D01*
G03X786911Y816515I1852J3350*
G01*
D02*
G37*
G36*
X948495Y849837D02*
X948495Y849837D01*
X962250Y863591D01*
G75*
D01*
G03X955031Y870810I2950J10169*
G01*
X955031Y870810D01*
X942766Y858545D01*
X912207Y858545D01*
X912207Y859368D01*
G74*
D01*
G03X906252Y865323I5955J0*
G01*
X906252Y865323D01*
X900535Y865323D01*
G75*
D01*
G03X894580Y859368I0J-5955*
G01*
X894580Y859368D01*
X894580Y847512D01*
G75*
D01*
G03X900535Y841557I5955J0*
G01*
X900535Y841557D01*
X906252Y841557D01*
G75*
D01*
G03X912207Y847512I0J5955*
G01*
X912207Y847512D01*
X912207Y848335D01*
X944880Y848335D01*
G74*
D01*
G03X948495Y849837I2J5105*
G01*
D02*
G37*
G36*
X962390Y838152D02*
G75*
D01*
G03X962390Y838152I2810J10208*
G01*
D02*
G37*
G36*
X956172Y630678D02*
G75*
D01*
G03X956172Y630678I16648J17022*
G01*
D02*
G37*
G36*
X50940Y836875D02*
G74*
D01*
G03X44795Y843020I9900J3755*
G01*
X44795Y843020D01*
X44795Y836875D01*
X50940Y836875D01*
D02*
G37*
G36*
X31140Y836875D02*
X31140Y836875D01*
X37285Y836875D01*
X37285Y843020D01*
G74*
D01*
G03X31140Y836875I3755J9900*
G01*
D02*
G37*
G36*
X173210Y837532D02*
X173210Y837532D01*
X183710Y837532D01*
G75*
D01*
G03X187538Y841360I0J3828*
G01*
X187538Y841360D01*
X187538Y855360D01*
G74*
D01*
G03X183710Y859188I3828J0*
G01*
X183710Y859188D01*
X173210Y859188D01*
G75*
D01*
G03X169382Y855360I0J-3828*
G01*
X169382Y855360D01*
X169382Y853465D01*
X127914Y853465D01*
X101209Y880170D01*
G75*
D01*
G03X93990Y872951I-10169J2950*
G01*
X93990Y872951D01*
X122191Y844751D01*
G74*
D01*
G03X125251Y843285I3609J3607*
G01*
G75*
D01*
G03X125800Y843255I553J5074*
G01*
X125800Y843255D01*
X169382Y843255D01*
X169382Y841360D01*
G75*
D01*
G03X173210Y837532I3828J0*
G01*
D02*
G37*
G36*
X206538Y841360D02*
X206538Y841360D01*
X206538Y843255D01*
X235986Y843255D01*
X236172Y843069D01*
X236172Y843069D01*
X248461Y830781D01*
G74*
D01*
G03X251516Y829316I3609J3608*
G01*
G75*
D01*
G03X252070Y829285I562J5073*
G01*
X252070Y829285D01*
X300162Y829285D01*
G74*
D01*
G03X301463Y828065I3197J2106*
G01*
X301463Y828065D01*
X206538Y828065D01*
X206538Y829960D01*
G74*
D01*
G03X202710Y833788I3828J0*
G01*
X202710Y833788D01*
X192210Y833788D01*
G75*
D01*
G03X188382Y829960I0J-3828*
G01*
X188382Y829960D01*
X188382Y815960D01*
G75*
D01*
G03X192210Y812132I3828J0*
G01*
X192210Y812132D01*
X192355Y812132D01*
X192355Y757661D01*
G75*
D01*
G03X193443Y735229I6193J-10942*
G01*
X193443Y735229D01*
X193443Y717290D01*
X189785Y717290D01*
G75*
D01*
G03X185956Y713462I-1J-3828*
G01*
X185956Y713462D01*
X185956Y695936D01*
G75*
D01*
G03X189785Y692108I3829J1*
G01*
X189785Y692108D01*
X207311Y692108D01*
G75*
D01*
G03X211139Y695936I0J3828*
G01*
X211139Y695936D01*
X211139Y713462D01*
G74*
D01*
G03X207311Y717290I3828J0*
G01*
X207311Y717290D01*
X203652Y717290D01*
X203652Y735229D01*
G75*
D01*
G03X202565Y758633I-5102J11490*
G01*
X202565Y758633D01*
X202565Y812132D01*
X202710Y812132D01*
G75*
D01*
G03X206538Y815960I0J3828*
G01*
X206538Y815960D01*
X206538Y817855D01*
X299624Y817855D01*
G74*
D01*
G03X301507Y815340I3736J835*
G01*
G74*
D01*
G03X299532Y811990I1853J3350*
G01*
X299532Y811990D01*
X299532Y805990D01*
G75*
D01*
G03X303360Y802162I3828J0*
G01*
X303360Y802162D01*
X309255Y802162D01*
X309255Y764887D01*
X309032Y764887D01*
G75*
D01*
G03X303517Y761178I0J-5955*
G01*
X303517Y761178D01*
X301413Y761178D01*
G75*
D01*
G03X299099Y760623I1J-5105*
G01*
G74*
D01*
G03X297804Y759683I2314J4549*
G01*
X297804Y759683D01*
X296108Y757987D01*
G75*
D01*
G03X303327Y750768I-1468J-8687*
G01*
X303327Y750768D01*
X303520Y750961D01*
G75*
D01*
G03X309032Y747260I5512J2254*
G01*
X309032Y747260D01*
X320888Y747260D01*
G75*
D01*
G03X326843Y753215I0J5955*
G01*
X326843Y753215D01*
X326843Y758932D01*
G74*
D01*
G03X320888Y764887I5955J0*
G01*
X320888Y764887D01*
X319465Y764887D01*
X319465Y802162D01*
X325360Y802162D01*
G75*
D01*
G03X329188Y805990I0J3828*
G01*
X329188Y805990D01*
X329188Y811990D01*
G74*
D01*
G03X327213Y815340I3828J0*
G01*
G75*
D01*
G03X329188Y818690I-1853J3350*
G01*
X329188Y818690D01*
X329188Y824690D01*
G74*
D01*
G03X327213Y828040I3828J0*
G01*
G75*
D01*
G03X329188Y831390I-1853J3350*
G01*
X329188Y831390D01*
X329188Y837390D01*
G74*
D01*
G03X327213Y840740I3828J0*
G01*
G75*
D01*
G03X329188Y844090I-1853J3350*
G01*
X329188Y844090D01*
X329188Y850090D01*
G74*
D01*
G03X325360Y853918I3828J0*
G01*
X325360Y853918D01*
X319465Y853918D01*
X319465Y887060D01*
G74*
D01*
G03X317963Y890675I5105J2*
G01*
X317963Y890675D01*
X314584Y894055D01*
X318384Y894055D01*
G75*
D01*
G03X318384Y904265I9275J5105*
G01*
X318384Y904265D01*
X311536Y904265D01*
G75*
D01*
G03X292984Y904265I-9276J-5103*
G01*
X292984Y904265D01*
X286136Y904265D01*
G75*
D01*
G03X286136Y894055I-9275J-5105*
G01*
X286136Y894055D01*
X292984Y894055D01*
G75*
D01*
G03X305210Y888991I9276J5104*
G01*
X305210Y888991D01*
X309255Y884946D01*
X309255Y853918D01*
X303360Y853918D01*
G75*
D01*
G03X299532Y850090I0J-3828*
G01*
X299532Y850090D01*
X299532Y844090D01*
G75*
D01*
G03X301507Y840740I3828J0*
G01*
G74*
D01*
G03X300162Y839495I1852J3350*
G01*
X300162Y839495D01*
X254184Y839495D01*
X241715Y851963D01*
G74*
D01*
G03X239867Y853149I3616J3601*
G01*
G75*
D01*
G03X238092Y853465I-1768J-4788*
G01*
X238092Y853465D01*
X206538Y853465D01*
X206538Y855360D01*
G74*
D01*
G03X202710Y859188I3828J0*
G01*
X202710Y859188D01*
X202565Y859188D01*
X202565Y923089D01*
X206522Y923089D01*
G75*
D01*
G03X210350Y926917I0J3828*
G01*
X210350Y926917D01*
X210350Y944443D01*
G74*
D01*
G03X206522Y948271I3828J0*
G01*
X206522Y948271D01*
X202863Y948271D01*
X202863Y966210D01*
G75*
D01*
G03X192654Y966210I-5104J11489*
G01*
X192654Y966210D01*
X192654Y948271D01*
X188996Y948271D01*
G75*
D01*
G03X185167Y944443I-1J-3828*
G01*
X185167Y944443D01*
X185167Y926917D01*
G75*
D01*
G03X188996Y923089I3829J1*
G01*
X188996Y923089D01*
X192355Y923089D01*
X192355Y859188D01*
X192210Y859188D01*
G75*
D01*
G03X188382Y855360I0J-3828*
G01*
X188382Y855360D01*
X188382Y841360D01*
G75*
D01*
G03X192210Y837532I3828J0*
G01*
X192210Y837532D01*
X202710Y837532D01*
G75*
D01*
G03X206538Y841360I0J3828*
G01*
D02*
G37*
G36*
X453776Y828065D02*
G75*
D01*
G03X453776Y817855I-9275J-5105*
G01*
X453776Y817855D01*
X486024Y817855D01*
G75*
D01*
G03X504576Y817855I9276J5103*
G01*
X504576Y817855D01*
X511424Y817855D01*
G75*
D01*
G03X529976Y817855I9276J5103*
G01*
X529976Y817855D01*
X536824Y817855D01*
G75*
D01*
G03X536824Y828065I9275J5105*
G01*
X536824Y828065D01*
X529976Y828065D01*
G75*
D01*
G03X511424Y828065I-9276J-5103*
G01*
X511424Y828065D01*
X504576Y828065D01*
G75*
D01*
G03X486024Y828065I-9276J-5103*
G01*
X486024Y828065D01*
X453776Y828065D01*
D02*
G37*
G36*
X763078Y942687D02*
G74*
D01*
G03X757130Y948375I5947J265*
G01*
X757130Y948375D01*
X754327Y948375D01*
X754327Y942687D01*
X763078Y942687D01*
D02*
G37*
G36*
X745273Y948375D02*
G75*
D01*
G03X739325Y942687I0J-5954*
G01*
X739325Y942687D01*
X748076Y942687D01*
X748076Y948375D01*
X745273Y948375D01*
D02*
G37*
G36*
X757130Y930749D02*
G74*
D01*
G03X763078Y936437I0J5954*
G01*
X763078Y936437D01*
X754327Y936437D01*
X754327Y930749D01*
X757130Y930749D01*
D02*
G37*
G36*
X739325Y936437D02*
G75*
D01*
G03X745273Y930749I5947J265*
G01*
X745273Y930749D01*
X748076Y930749D01*
X748076Y936437D01*
X739325Y936437D01*
D02*
G37*
G36*
X980012Y873760D02*
G75*
D01*
G03X980012Y873760I10588J0*
G01*
D02*
G37*
G36*
X980012Y899160D02*
G75*
D01*
G03X980012Y899160I10588J0*
G01*
D02*
G37*
G36*
X971978Y913954D02*
G75*
D01*
G03X975806Y917782I0J3828*
G01*
X975806Y917782D01*
X975806Y920799D01*
X968961Y920799D01*
X968961Y913954D01*
X971978Y913954D01*
D02*
G37*
G36*
X960200Y924560D02*
G75*
D01*
G03X960200Y924560I5000J0*
G01*
D02*
G37*
G36*
X980012Y924560D02*
G75*
D01*
G03X980012Y924560I10588J0*
G01*
D02*
G37*
G36*
X971978Y935166D02*
X971978Y935166D01*
X968961Y935166D01*
X968961Y928321D01*
X975806Y928321D01*
X975806Y931338D01*
G74*
D01*
G03X971978Y935166I3828J0*
G01*
D02*
G37*
G36*
X832620Y905088D02*
G74*
D01*
G03X826932Y911037I5955J0*
G01*
X826932Y911037D01*
X826932Y902285D01*
X832620Y902285D01*
X832620Y905088D01*
D02*
G37*
G36*
X820681Y911037D02*
G74*
D01*
G03X814993Y905088I266J5948*
G01*
X814993Y905088D01*
X814993Y902285D01*
X820681Y902285D01*
X820681Y911037D01*
D02*
G37*
G36*
X864184Y892157D02*
X864184Y892157D01*
X864184Y887044D01*
X869297Y887044D01*
G74*
D01*
G03X864184Y892157I8237J3124*
G01*
D02*
G37*
G36*
X851247Y893232D02*
X851247Y893232D01*
X851247Y894055D01*
X875953Y894055D01*
X875953Y893232D01*
G75*
D01*
G03X881908Y887277I5955J0*
G01*
X881908Y887277D01*
X887625Y887277D01*
G75*
D01*
G03X893580Y893232I0J5955*
G01*
X893580Y893232D01*
X893580Y905088D01*
G74*
D01*
G03X887625Y911043I5955J0*
G01*
X887625Y911043D01*
X881908Y911043D01*
G75*
D01*
G03X875953Y905088I0J-5955*
G01*
X875953Y905088D01*
X875953Y904265D01*
X851247Y904265D01*
X851247Y905088D01*
G74*
D01*
G03X845292Y911043I5955J0*
G01*
X845292Y911043D01*
X839575Y911043D01*
G75*
D01*
G03X833620Y905088I0J-5955*
G01*
X833620Y905088D01*
X833620Y893232D01*
G75*
D01*
G03X839575Y887277I5955J0*
G01*
X839575Y887277D01*
X845292Y887277D01*
G75*
D01*
G03X851247Y893232I0J5955*
G01*
D02*
G37*
G36*
X852823Y887044D02*
X852823Y887044D01*
X857936Y887044D01*
X857936Y892157D01*
G74*
D01*
G03X852823Y887044I3124J8237*
G01*
D02*
G37*
G36*
X858060Y883920D02*
G75*
D01*
G03X858060Y883920I3000J0*
G01*
D02*
G37*
G36*
X826932Y887283D02*
G75*
D01*
G03X832620Y893232I-266J5948*
G01*
X832620Y893232D01*
X832620Y896035D01*
X826932Y896035D01*
X826932Y887283D01*
D02*
G37*
G36*
X814993Y893232D02*
G75*
D01*
G03X820681Y887283I5955J0*
G01*
X820681Y887283D01*
X820681Y896035D01*
X814993Y896035D01*
X814993Y893232D01*
D02*
G37*
G36*
X869297Y880796D02*
X869297Y880796D01*
X864184Y880796D01*
X864184Y875683D01*
G74*
D01*
G03X869297Y880796I3124J8237*
G01*
D02*
G37*
G36*
X857936Y875683D02*
X857936Y875683D01*
X857936Y880796D01*
X852823Y880796D01*
G74*
D01*
G03X857936Y875683I8237J3124*
G01*
D02*
G37*
G36*
X851247Y847512D02*
X851247Y847512D01*
X851247Y848335D01*
X875953Y848335D01*
X875953Y847512D01*
G75*
D01*
G03X881908Y841557I5955J0*
G01*
X881908Y841557D01*
X887625Y841557D01*
G75*
D01*
G03X893580Y847512I0J5955*
G01*
X893580Y847512D01*
X893580Y859368D01*
G74*
D01*
G03X887625Y865323I5955J0*
G01*
X887625Y865323D01*
X881908Y865323D01*
G75*
D01*
G03X875953Y859368I0J-5955*
G01*
X875953Y859368D01*
X875953Y858545D01*
X851247Y858545D01*
X851247Y859368D01*
G74*
D01*
G03X845292Y865323I5955J0*
G01*
X845292Y865323D01*
X839575Y865323D01*
G75*
D01*
G03X833620Y859368I0J-5955*
G01*
X833620Y859368D01*
X833620Y847512D01*
G75*
D01*
G03X839575Y841557I5955J0*
G01*
X839575Y841557D01*
X845292Y841557D01*
G75*
D01*
G03X851247Y847512I0J5955*
G01*
D02*
G37*
G36*
X826932Y841563D02*
G75*
D01*
G03X832620Y847512I-266J5948*
G01*
X832620Y847512D01*
X832620Y850315D01*
X826932Y850315D01*
X826932Y841563D01*
D02*
G37*
G36*
X832620Y859368D02*
G74*
D01*
G03X826932Y865317I5955J0*
G01*
X826932Y865317D01*
X826932Y856565D01*
X832620Y856565D01*
X832620Y859368D01*
D02*
G37*
G36*
X820681Y865317D02*
G74*
D01*
G03X814993Y859368I266J5948*
G01*
X814993Y859368D01*
X814993Y856565D01*
X820681Y856565D01*
X820681Y865317D01*
D02*
G37*
G36*
X814993Y847512D02*
G75*
D01*
G03X820681Y841563I5955J0*
G01*
X820681Y841563D01*
X820681Y850315D01*
X814993Y850315D01*
X814993Y847512D01*
D02*
G37*
G36*
X980012Y822960D02*
G75*
D01*
G03X980012Y822960I10588J0*
G01*
D02*
G37*
G36*
X661017Y916356D02*
X661017Y916356D01*
X655904Y916356D01*
X655904Y911243D01*
G74*
D01*
G03X661017Y916356I3124J8237*
G01*
D02*
G37*
G36*
X649780Y919480D02*
G75*
D01*
G03X649780Y919480I3000J0*
G01*
D02*
G37*
G36*
X649656Y911243D02*
X649656Y911243D01*
X649656Y916356D01*
X644543Y916356D01*
G74*
D01*
G03X649656Y911243I8237J3124*
G01*
D02*
G37*
G36*
X655904Y927717D02*
X655904Y927717D01*
X655904Y922604D01*
X661017Y922604D01*
G74*
D01*
G03X655904Y927717I8237J3124*
G01*
D02*
G37*
G36*
X644543Y922604D02*
X644543Y922604D01*
X649656Y922604D01*
X649656Y927717D01*
G74*
D01*
G03X644543Y922604I3124J8237*
G01*
D02*
G37*
G36*
X809437Y942687D02*
G74*
D01*
G03X803488Y948375I5948J266*
G01*
X803488Y948375D01*
X800685Y948375D01*
X800685Y942687D01*
X809437Y942687D01*
D02*
G37*
G36*
X791632Y948375D02*
G75*
D01*
G03X785683Y942687I-1J-5954*
G01*
X785683Y942687D01*
X794435Y942687D01*
X794435Y948375D01*
X791632Y948375D01*
D02*
G37*
G36*
X785683Y936437D02*
G75*
D01*
G03X791632Y930749I5948J266*
G01*
X791632Y930749D01*
X794435Y930749D01*
X794435Y936437D01*
X785683Y936437D01*
D02*
G37*
G36*
X803488Y930749D02*
G74*
D01*
G03X809437Y936437I1J5954*
G01*
X809437Y936437D01*
X800685Y936437D01*
X800685Y930749D01*
X803488Y930749D01*
D02*
G37*
G36*
X69136Y940139D02*
X69136Y940139D01*
X75515Y940139D01*
G74*
D01*
G03X68217Y947436I11756J4459*
G01*
X68217Y947436D01*
X68217Y941057D01*
G75*
D01*
G03X59300Y941057I-4458J-5376*
G01*
X59300Y941057D01*
X59300Y947436D01*
G74*
D01*
G03X52003Y940139I4459J11756*
G01*
X52003Y940139D01*
X58382Y940139D01*
G75*
D01*
G03X58382Y931222I5377J-4458*
G01*
X58382Y931222D01*
X52003Y931222D01*
G74*
D01*
G03X59300Y923924I11755J4457*
G01*
X59300Y923924D01*
X59300Y930303D01*
G75*
D01*
G03X68217Y930303I4459J5377*
G01*
X68217Y930303D01*
X68217Y923924D01*
G74*
D01*
G03X75515Y931222I4457J11755*
G01*
X75515Y931222D01*
X69136Y931222D01*
G75*
D01*
G03X69136Y940139I-5376J4459*
G01*
D02*
G37*
G36*
X68224Y972328D02*
X68224Y972328D01*
X68224Y965109D01*
X72522Y965109D01*
G75*
D01*
G03X76350Y968937I0J3828*
G01*
X76350Y968937D01*
X76350Y973235D01*
X69130Y973235D01*
G75*
D01*
G03X69130Y982165I-5370J4465*
G01*
X69130Y982165D01*
X76350Y982165D01*
X76350Y986463D01*
G74*
D01*
G03X72522Y990291I3828J0*
G01*
X72522Y990291D01*
X68224Y990291D01*
X68224Y983072D01*
G75*
D01*
G03X59294Y983072I-4465J-5372*
G01*
X59294Y983072D01*
X59294Y990291D01*
X54996Y990291D01*
G75*
D01*
G03X51167Y986463I-1J-3828*
G01*
X51167Y986463D01*
X51167Y982165D01*
X58387Y982165D01*
G75*
D01*
G03X58387Y973235I5372J-4465*
G01*
X58387Y973235D01*
X51167Y973235D01*
X51167Y968937D01*
G75*
D01*
G03X54996Y965109I3829J1*
G01*
X54996Y965109D01*
X59294Y965109D01*
X59294Y972328D01*
G75*
D01*
G03X68224Y972328I4465J5372*
G01*
D02*
G37*
G36*
X21910Y645160D02*
G75*
D01*
G03X21910Y645160I23810J0*
G01*
D02*
G37*
G36*
X69925Y709157D02*
X69925Y709157D01*
X76304Y709157D01*
G74*
D01*
G03X69006Y716455I11755J4457*
G01*
X69006Y716455D01*
X69006Y710076D01*
G75*
D01*
G03X60089Y710076I-4458J-5376*
G01*
X60089Y710076D01*
X60089Y716455D01*
G74*
D01*
G03X52792Y709157I4459J11756*
G01*
X52792Y709157D01*
X59171Y709157D01*
G75*
D01*
G03X59171Y700240I5376J-4458*
G01*
X59171Y700240D01*
X52792Y700240D01*
G74*
D01*
G03X60089Y692943I11756J4459*
G01*
X60089Y692943D01*
X60089Y699322D01*
G75*
D01*
G03X69006Y699322I4459J5377*
G01*
X69006Y699322D01*
X69006Y692943D01*
G74*
D01*
G03X76304Y700240I4457J11755*
G01*
X76304Y700240D01*
X69925Y700240D01*
G75*
D01*
G03X69925Y709157I-5377J4459*
G01*
D02*
G37*
G36*
X69013Y741347D02*
X69013Y741347D01*
X69013Y734128D01*
X73311Y734128D01*
G75*
D01*
G03X77139Y737956I0J3828*
G01*
X77139Y737956D01*
X77139Y742254D01*
X69919Y742254D01*
G75*
D01*
G03X69919Y751184I-5370J4465*
G01*
X69919Y751184D01*
X77139Y751184D01*
X77139Y755482D01*
G74*
D01*
G03X73311Y759310I3828J0*
G01*
X73311Y759310D01*
X69013Y759310D01*
X69013Y752091D01*
G75*
D01*
G03X60083Y752091I-4465J-5372*
G01*
X60083Y752091D01*
X60083Y759310D01*
X55785Y759310D01*
G75*
D01*
G03X51956Y755482I-1J-3828*
G01*
X51956Y755482D01*
X51956Y751184D01*
X59176Y751184D01*
G75*
D01*
G03X59176Y742254I5372J-4465*
G01*
X59176Y742254D01*
X51956Y742254D01*
X51956Y737956D01*
G75*
D01*
G03X55785Y734128I3829J1*
G01*
X55785Y734128D01*
X60083Y734128D01*
X60083Y741347D01*
G75*
D01*
G03X69013Y741347I4465J5372*
G01*
D02*
G37*
G36*
X130880Y828065D02*
G75*
D01*
G03X129748Y827937I4J-5105*
G01*
G74*
D01*
G03X127271Y826569I1132J4977*
G01*
X127271Y826569D01*
X93990Y793289D01*
G75*
D01*
G03X101209Y786070I-2950J-10169*
G01*
X101209Y786070D01*
X132994Y817855D01*
X169382Y817855D01*
X169382Y815960D01*
G75*
D01*
G03X173210Y812132I3828J0*
G01*
X173210Y812132D01*
X183710Y812132D01*
G75*
D01*
G03X187538Y815960I0J3828*
G01*
X187538Y815960D01*
X187538Y829960D01*
G74*
D01*
G03X183710Y833788I3828J0*
G01*
X183710Y833788D01*
X173210Y833788D01*
G75*
D01*
G03X169382Y829960I0J-3828*
G01*
X169382Y829960D01*
X169382Y828065D01*
X130880Y828065D01*
D02*
G37*
G36*
X36040Y833120D02*
G75*
D01*
G03X36040Y833120I5000J0*
G01*
D02*
G37*
G36*
X37285Y823220D02*
X37285Y823220D01*
X37285Y829365D01*
X31140Y829365D01*
G74*
D01*
G03X37285Y823220I9900J3755*
G01*
D02*
G37*
G36*
X50940Y829365D02*
X50940Y829365D01*
X44795Y829365D01*
X44795Y823220D01*
G74*
D01*
G03X50940Y829365I3755J9900*
G01*
D02*
G37*
G36*
X749686Y775995D02*
G75*
D01*
G03X749686Y765785I-9275J-5105*
G01*
X749686Y765785D01*
X756534Y765785D01*
G75*
D01*
G03X775086Y765785I9276J5103*
G01*
X775086Y765785D01*
X781934Y765785D01*
G75*
D01*
G03X781934Y775995I9275J5105*
G01*
X781934Y775995D01*
X775086Y775995D01*
G75*
D01*
G03X756534Y775995I-9276J-5103*
G01*
X756534Y775995D01*
X749686Y775995D01*
D02*
G37*
G36*
X838586Y704875D02*
G75*
D01*
G03X838586Y694665I-9275J-5105*
G01*
X838586Y694665D01*
X845434Y694665D01*
G75*
D01*
G03X863986Y694665I9276J5103*
G01*
X863986Y694665D01*
X870834Y694665D01*
G75*
D01*
G03X870834Y704875I9275J5105*
G01*
X870834Y704875D01*
X863986Y704875D01*
G75*
D01*
G03X845434Y704875I-9276J-5103*
G01*
X845434Y704875D01*
X838586Y704875D01*
D02*
G37*
G36*
X749686Y704875D02*
G75*
D01*
G03X749686Y694665I-9275J-5105*
G01*
X749686Y694665D01*
X756534Y694665D01*
G75*
D01*
G03X775086Y694665I9276J5103*
G01*
X775086Y694665D01*
X781934Y694665D01*
G75*
D01*
G03X781934Y704875I9275J5105*
G01*
X781934Y704875D01*
X775086Y704875D01*
G75*
D01*
G03X756534Y704875I-9276J-5103*
G01*
X756534Y704875D01*
X749686Y704875D01*
D02*
G37*
G36*
X882595Y644900D02*
X882595Y644900D01*
X882595Y638755D01*
X888740Y638755D01*
G74*
D01*
G03X882595Y644900I9900J3755*
G01*
D02*
G37*
G36*
X875085Y625100D02*
X875085Y625100D01*
X875085Y631245D01*
X868940Y631245D01*
G74*
D01*
G03X875085Y625100I9900J3755*
G01*
D02*
G37*
G36*
X868940Y638755D02*
X868940Y638755D01*
X875085Y638755D01*
X875085Y644900D01*
G74*
D01*
G03X868940Y638755I3755J9900*
G01*
D02*
G37*
G36*
X873840Y635000D02*
G75*
D01*
G03X873840Y635000I5000J0*
G01*
D02*
G37*
G36*
X888740Y631245D02*
X888740Y631245D01*
X882595Y631245D01*
X882595Y625100D01*
G74*
D01*
G03X888740Y631245I3755J9900*
G01*
D02*
G37*
G36*
X843540Y638755D02*
X843540Y638755D01*
X849685Y638755D01*
X849685Y644900D01*
G74*
D01*
G03X843540Y638755I3755J9900*
G01*
D02*
G37*
G36*
X857195Y644900D02*
X857195Y644900D01*
X857195Y638755D01*
X863340Y638755D01*
G74*
D01*
G03X857195Y644900I9900J3755*
G01*
D02*
G37*
G36*
X863340Y631245D02*
X863340Y631245D01*
X857195Y631245D01*
X857195Y625100D01*
G74*
D01*
G03X863340Y631245I3755J9900*
G01*
D02*
G37*
G36*
X848440Y635000D02*
G75*
D01*
G03X848440Y635000I5000J0*
G01*
D02*
G37*
G36*
X849685Y625100D02*
X849685Y625100D01*
X849685Y631245D01*
X843540Y631245D01*
G74*
D01*
G03X849685Y625100I9900J3755*
G01*
D02*
G37*
G36*
X818140Y638755D02*
X818140Y638755D01*
X824285Y638755D01*
X824285Y644900D01*
G74*
D01*
G03X818140Y638755I3755J9900*
G01*
D02*
G37*
G36*
X824285Y625100D02*
X824285Y625100D01*
X824285Y631245D01*
X818140Y631245D01*
G74*
D01*
G03X824285Y625100I9900J3755*
G01*
D02*
G37*
G36*
X831795Y644900D02*
X831795Y644900D01*
X831795Y638755D01*
X837940Y638755D01*
G74*
D01*
G03X831795Y644900I9900J3755*
G01*
D02*
G37*
G36*
X823040Y635000D02*
G75*
D01*
G03X823040Y635000I5000J0*
G01*
D02*
G37*
G36*
X837940Y631245D02*
X837940Y631245D01*
X831795Y631245D01*
X831795Y625100D01*
G74*
D01*
G03X837940Y631245I3755J9900*
G01*
D02*
G37*
G36*
X748416Y640105D02*
G75*
D01*
G03X748416Y629895I-9275J-5105*
G01*
X748416Y629895D01*
X755264Y629895D01*
G75*
D01*
G03X773816Y629895I9276J5103*
G01*
X773816Y629895D01*
X780664Y629895D01*
G75*
D01*
G03X780664Y640105I9275J5105*
G01*
X780664Y640105D01*
X773816Y640105D01*
G75*
D01*
G03X755264Y640105I-9276J-5103*
G01*
X755264Y640105D01*
X748416Y640105D01*
D02*
G37*
G36*
X680460Y682045D02*
X680460Y682045D01*
X674315Y682045D01*
X674315Y675900D01*
G74*
D01*
G03X680460Y682045I3755J9900*
G01*
D02*
G37*
G36*
X666805Y675900D02*
X666805Y675900D01*
X666805Y682045D01*
X660660Y682045D01*
G74*
D01*
G03X666805Y675900I9900J3755*
G01*
D02*
G37*
G36*
X674315Y695700D02*
X674315Y695700D01*
X674315Y689555D01*
X680460Y689555D01*
G74*
D01*
G03X674315Y695700I9900J3755*
G01*
D02*
G37*
G36*
X660660Y689555D02*
X660660Y689555D01*
X666805Y689555D01*
X666805Y695700D01*
G74*
D01*
G03X660660Y689555I3755J9900*
G01*
D02*
G37*
G36*
X665560Y685800D02*
G75*
D01*
G03X665560Y685800I5000J0*
G01*
D02*
G37*
G36*
X660660Y714955D02*
X660660Y714955D01*
X666805Y714955D01*
X666805Y721100D01*
G74*
D01*
G03X660660Y714955I3755J9900*
G01*
D02*
G37*
G36*
X674315Y721100D02*
X674315Y721100D01*
X674315Y714955D01*
X680460Y714955D01*
G74*
D01*
G03X674315Y721100I9900J3755*
G01*
D02*
G37*
G36*
X680460Y707445D02*
X680460Y707445D01*
X674315Y707445D01*
X674315Y701300D01*
G74*
D01*
G03X680460Y707445I3755J9900*
G01*
D02*
G37*
G36*
X666805Y701300D02*
X666805Y701300D01*
X666805Y707445D01*
X660660Y707445D01*
G74*
D01*
G03X666805Y701300I9900J3755*
G01*
D02*
G37*
G36*
X665560Y711200D02*
G75*
D01*
G03X665560Y711200I5000J0*
G01*
D02*
G37*
G36*
X680460Y732845D02*
X680460Y732845D01*
X674315Y732845D01*
X674315Y726700D01*
G74*
D01*
G03X680460Y732845I3755J9900*
G01*
D02*
G37*
G36*
X665560Y736600D02*
G75*
D01*
G03X665560Y736600I5000J0*
G01*
D02*
G37*
G36*
X666805Y726700D02*
X666805Y726700D01*
X666805Y732845D01*
X660660Y732845D01*
G74*
D01*
G03X666805Y726700I9900J3755*
G01*
D02*
G37*
G36*
X674315Y746500D02*
X674315Y746500D01*
X674315Y740355D01*
X680460Y740355D01*
G74*
D01*
G03X674315Y746500I9900J3755*
G01*
D02*
G37*
G36*
X660660Y740355D02*
X660660Y740355D01*
X666805Y740355D01*
X666805Y746500D01*
G74*
D01*
G03X660660Y740355I3755J9900*
G01*
D02*
G37*
G36*
X320888Y728633D02*
G74*
D01*
G03X326837Y734321I0J5955*
G01*
X326837Y734321D01*
X318085Y734321D01*
X318085Y728633D01*
X320888Y728633D01*
D02*
G37*
G36*
X303083Y734321D02*
G75*
D01*
G03X309032Y728633I5948J266*
G01*
X309032Y728633D01*
X311835Y728633D01*
X311835Y734321D01*
X303083Y734321D01*
D02*
G37*
G36*
X338643Y734321D02*
G75*
D01*
G03X344592Y728633I5948J266*
G01*
X344592Y728633D01*
X347395Y728633D01*
X347395Y734321D01*
X338643Y734321D01*
D02*
G37*
G36*
X356448Y728633D02*
G74*
D01*
G03X362397Y734321I0J5955*
G01*
X362397Y734321D01*
X353645Y734321D01*
X353645Y728633D01*
X356448Y728633D01*
D02*
G37*
G36*
X326837Y740572D02*
G74*
D01*
G03X320888Y746260I5948J266*
G01*
X320888Y746260D01*
X318085Y746260D01*
X318085Y740572D01*
X326837Y740572D01*
D02*
G37*
G36*
X309032Y746260D02*
G75*
D01*
G03X303083Y740572I0J-5955*
G01*
X303083Y740572D01*
X311835Y740572D01*
X311835Y746260D01*
X309032Y746260D01*
D02*
G37*
G36*
X344592Y746260D02*
G75*
D01*
G03X338643Y740572I0J-5955*
G01*
X338643Y740572D01*
X347395Y740572D01*
X347395Y746260D01*
X344592Y746260D01*
D02*
G37*
G36*
X362397Y740572D02*
G74*
D01*
G03X356448Y746260I5948J266*
G01*
X356448Y746260D01*
X353645Y746260D01*
X353645Y740572D01*
X362397Y740572D01*
D02*
G37*
G36*
X351532Y805990D02*
G75*
D01*
G03X355360Y802162I3828J0*
G01*
X355360Y802162D01*
X363939Y802162D01*
X363939Y806569D01*
X351532Y806569D01*
X351532Y805990D01*
D02*
G37*
G36*
X377360Y802162D02*
G75*
D01*
G03X381188Y805990I0J3828*
G01*
X381188Y805990D01*
X381188Y806569D01*
X368781Y806569D01*
X368781Y802162D01*
X377360Y802162D01*
D02*
G37*
%LPD*%
G36*
X706562Y826795D02*
X706562Y826795D01*
X702092Y826795D01*
G74*
D01*
G03X703140Y828015I6130J6326*
G01*
X703140Y828015D01*
X707863Y828015D01*
G74*
D01*
G03X706562Y826795I1896J3326*
G01*
D02*
G37*
G54D11*
X706562Y826795D02*
X702092Y826795D01*
G74*
D01*
G03X703140Y828015I6130J6326*
G01*
X707863Y828015D01*
G74*
D01*
G03X706562Y826795I1896J3326*
G01*
X993410Y838152D02*
G75*
D01*
G03X993410Y838152I-2810J10208*
G01*
X956172Y968883D02*
G75*
D01*
G03X956172Y968883I19188J14097*
G01*
X954594Y931338D02*
X954594Y928321D01*
X961439Y928321D01*
X961439Y935166D01*
X958422Y935166D01*
G75*
D01*
G03X954594Y931338I0J-3828*
G01*
X954594Y917782D02*
G75*
D01*
G03X958422Y913954I3828J0*
G01*
X961439Y913954D01*
X961439Y920799D01*
X954594Y920799D01*
X954594Y917782D01*
X723925Y880940D02*
X723925Y886439D01*
X746097Y908612D01*
X746097Y826976D01*
X734123Y815002D01*
G74*
D01*
G03X733613Y815340I2363J3012*
G01*
G75*
D01*
G03X735588Y818690I-1853J3350*
G01*
X735588Y824690D01*
G74*
D01*
G03X733613Y828040I3828J0*
G01*
G75*
D01*
G03X735588Y831390I-1853J3350*
G01*
X735588Y837390D01*
G74*
D01*
G03X733613Y840740I3828J0*
G01*
G75*
D01*
G03X735588Y844090I-1853J3350*
G01*
X735588Y850090D01*
G74*
D01*
G03X731760Y853918I3828J0*
G01*
X709760Y853918D01*
G75*
D01*
G03X705932Y850090I0J-3828*
G01*
X705932Y844090D01*
G75*
D01*
G03X707907Y840740I3828J0*
G01*
G74*
D01*
G03X706024Y838225I1853J3350*
G01*
X703140Y838225D01*
G75*
D01*
G03X689828Y826795I-7175J-5110*
G01*
X681069Y826795D01*
G75*
D01*
G03X660287Y828065I-10509J-1293*
G01*
X644276Y828065D01*
G75*
D01*
G03X625724Y828065I-9276J-5103*
G01*
X618876Y828065D01*
G75*
D01*
G03X600324Y828065I-9276J-5103*
G01*
X593476Y828065D01*
G75*
D01*
G03X593476Y817855I-9275J-5105*
G01*
X600324Y817855D01*
G75*
D01*
G03X618876Y817855I9276J5103*
G01*
X625724Y817855D01*
G75*
D01*
G03X644276Y817855I9276J5103*
G01*
X663234Y817855D01*
G74*
D01*
G03X665455Y816224I7324J7646*
G01*
X665455Y809376D01*
G75*
D01*
G03X665455Y790824I5103J-9276*
G01*
X665455Y783976D01*
G75*
D01*
G03X675665Y783976I5105J-9275*
G01*
X675665Y790824D01*
G75*
D01*
G03X675665Y809376I-5103J9276*
G01*
X675665Y816224D01*
G74*
D01*
G03X676273Y816585I5098J9279*
G01*
X706562Y816585D01*
G74*
D01*
G03X707907Y815340I3197J2105*
G01*
G74*
D01*
G03X705932Y811990I1853J3350*
G01*
X705932Y805990D01*
G75*
D01*
G03X709760Y802162I3828J0*
G01*
X731760Y802162D01*
G74*
D01*
G03X734958Y803885I1J3828*
G01*
X735330Y803885D01*
G74*
D01*
G03X738945Y805387I2J5105*
G01*
X754805Y821246D01*
G75*
D01*
G03X756306Y824862I-3603J3615*
G01*
X756306Y912122D01*
X757130Y912122D01*
G75*
D01*
G03X763084Y918076I0J5954*
G01*
X763084Y923794D01*
G74*
D01*
G03X757130Y929748I5954J0*
G01*
X745273Y929748D01*
G75*
D01*
G03X739319Y923794I0J-5954*
G01*
X739319Y918076D01*
G75*
D01*
G03X739535Y916487I5954J0*
G01*
X715211Y892163D01*
G75*
D01*
G03X713715Y888546I3607J-3610*
G01*
X713715Y880940D01*
G75*
D01*
G03X723925Y880940I5105J-7179*
G01*
X786911Y816515D02*
X956799Y816515D01*
G74*
D01*
G03X960095Y813684I8400J6446*
G01*
X960095Y790258D01*
X945832Y775995D01*
X889386Y775995D01*
G75*
D01*
G03X870834Y775995I-9276J-5103*
G01*
X863986Y775995D01*
G75*
D01*
G03X845434Y775995I-9276J-5103*
G01*
X838586Y775995D01*
G75*
D01*
G03X838586Y765785I-9275J-5105*
G01*
X845434Y765785D01*
G75*
D01*
G03X863986Y765785I9276J5103*
G01*
X870834Y765785D01*
G75*
D01*
G03X889386Y765785I9276J5103*
G01*
X947945Y765785D01*
G75*
D01*
G03X948055Y765787I-38J5105*
G01*
G74*
D01*
G03X951562Y767287I108J5103*
G01*
X968803Y784528D01*
G75*
D01*
G03X970305Y788144I-3602J3616*
G01*
X970305Y813684D01*
G75*
D01*
G03X955304Y826725I-5107J9274*
G01*
X787003Y826725D01*
G74*
D01*
G03X785613Y828040I3242J2035*
G01*
G74*
D01*
G03X786958Y829285I1852J3350*
G01*
X791210Y829285D01*
G74*
D01*
G03X794825Y830787I2J5105*
G01*
X801163Y837125D01*
G75*
D01*
G03X802665Y840740I-3601J3616*
G01*
X802665Y912122D01*
X803488Y912122D01*
G74*
D01*
G03X809003Y915831I0J5954*
G01*
X918451Y915831D01*
X919455Y914826D01*
X919455Y906354D01*
X917366Y904265D01*
X912207Y904265D01*
X912207Y905088D01*
G74*
D01*
G03X906252Y911043I5955J0*
G01*
X900535Y911043D01*
G75*
D01*
G03X894580Y905088I0J-5955*
G01*
X894580Y893232D01*
G75*
D01*
G03X900535Y887277I5955J0*
G01*
X906252Y887277D01*
G75*
D01*
G03X912207Y893232I0J5955*
G01*
X912207Y894055D01*
X919473Y894055D01*
G75*
D01*
G03X919487Y894055I7J5105*
G01*
X922012Y894055D01*
G75*
D01*
G03X922028Y894055I8J5105*
G01*
X929633Y894055D01*
G75*
D01*
G03X929647Y894055I7J5105*
G01*
X934710Y894055D01*
G75*
D01*
G03X934720Y894055I5J5105*
G01*
X955924Y894055D01*
G75*
D01*
G03X955924Y904265I9275J5105*
G01*
X931754Y904265D01*
X930718Y905300D01*
G74*
D01*
G03X930700Y905318I3617J3599*
G01*
X929665Y906354D01*
X929665Y916940D01*
G74*
D01*
G03X928163Y920555I5105J2*
G01*
X924180Y924539D01*
G74*
D01*
G03X920565Y926040I3615J3603*
G01*
X809003Y926040D01*
G74*
D01*
G03X803488Y929748I5514J2246*
G01*
X791632Y929748D01*
G75*
D01*
G03X789739Y929440I-3J-5954*
G01*
X779805Y939374D01*
X779805Y943795D01*
G74*
D01*
G03X778303Y947411I5105J1*
G01*
X764531Y961183D01*
G74*
D01*
G03X761958Y962577I3616J3602*
G01*
G75*
D01*
G03X760910Y962685I-1044J-4996*
G01*
X627383Y962685D01*
G75*
D01*
G03X623771Y961189I-1J-5105*
G01*
X523666Y861085D01*
X403866Y861085D01*
G75*
D01*
G03X400251Y859589I-4J-5105*
G01*
X380390Y839729D01*
G74*
D01*
G03X379213Y840740I3030J2337*
G01*
G75*
D01*
G03X381188Y844090I-1853J3350*
G01*
X381188Y850090D01*
G74*
D01*
G03X377360Y853918I3828J0*
G01*
X371465Y853918D01*
X371465Y890240D01*
G74*
D01*
G03X375036Y894055I5705J8919*
G01*
X381884Y894055D01*
G75*
D01*
G03X400436Y894055I9276J5103*
G01*
X407284Y894055D01*
G75*
D01*
G03X407284Y904265I9275J5105*
G01*
X400436Y904265D01*
G75*
D01*
G03X381884Y904265I-9276J-5103*
G01*
X375036Y904265D01*
G75*
D01*
G03X361255Y889578I-9274J-5107*
G01*
X361255Y853918D01*
X355360Y853918D01*
G75*
D01*
G03X351532Y850090I0J-3828*
G01*
X351532Y844090D01*
G75*
D01*
G03X353507Y840740I3828J0*
G01*
G74*
D01*
G03X352162Y839495I1852J3350*
G01*
X351790Y839495D01*
G75*
D01*
G03X351613Y839491I27J-5105*
G01*
G74*
D01*
G03X348181Y837999I177J5101*
G01*
X336751Y826569D01*
G75*
D01*
G03X335255Y822947I3607J-3610*
G01*
X335255Y766241D01*
G75*
D01*
G03X336751Y762624I5105J-6*
G01*
X338853Y760521D01*
G74*
D01*
G03X338637Y758932I5738J1589*
G01*
X338637Y753215D01*
G75*
D01*
G03X344592Y747260I5955J0*
G01*
X356448Y747260D01*
G75*
D01*
G03X362403Y753215I0J5955*
G01*
X362403Y758932D01*
G74*
D01*
G03X356448Y764887I5955J0*
G01*
X348926Y764887D01*
X345465Y768348D01*
X345465Y820846D01*
X352997Y828378D01*
G74*
D01*
G03X353507Y828040I2363J3012*
G01*
G74*
D01*
G03X351532Y824690I1853J3350*
G01*
X351532Y818690D01*
G75*
D01*
G03X353507Y815340I3828J0*
G01*
G74*
D01*
G03X351532Y811990I1853J3350*
G01*
X351532Y811411D01*
X363939Y811411D01*
X363939Y814862D01*
X368781Y814862D01*
X368781Y811411D01*
X381188Y811411D01*
X381188Y811990D01*
G74*
D01*
G03X379213Y815340I3828J0*
G01*
G74*
D01*
G03X381096Y817855I1853J3350*
G01*
X409824Y817855D01*
G75*
D01*
G03X409824Y828065I9275J5105*
G01*
X379257Y828065D01*
G74*
D01*
G03X380558Y829285I1896J3326*
G01*
X382270Y829285D01*
G74*
D01*
G03X385885Y830787I2J5105*
G01*
X405974Y850875D01*
X525780Y850875D01*
G74*
D01*
G03X529395Y852377I2J5105*
G01*
X629494Y952475D01*
X758801Y952475D01*
X769595Y941681D01*
X769595Y937273D01*
G75*
D01*
G03X771091Y933651I5105J-11*
G01*
X785677Y919064D01*
X785677Y918076D01*
G75*
D01*
G03X791632Y912122I5955J1*
G01*
X792455Y912122D01*
X792455Y842854D01*
X789096Y839495D01*
X786958Y839495D01*
G74*
D01*
G03X785613Y840740I3197J2105*
G01*
G75*
D01*
G03X787588Y844090I-1853J3350*
G01*
X787588Y850090D01*
G74*
D01*
G03X783760Y853918I3828J0*
G01*
X761760Y853918D01*
G75*
D01*
G03X757932Y850090I0J-3828*
G01*
X757932Y844090D01*
G75*
D01*
G03X759907Y840740I3828J0*
G01*
G74*
D01*
G03X757932Y837390I1853J3350*
G01*
X757932Y831390D01*
G75*
D01*
G03X759907Y828040I3828J0*
G01*
G74*
D01*
G03X757932Y824690I1853J3350*
G01*
X757932Y818690D01*
G75*
D01*
G03X759907Y815340I3828J0*
G01*
G74*
D01*
G03X757932Y811990I1853J3350*
G01*
X757932Y805990D01*
G75*
D01*
G03X761760Y802162I3828J0*
G01*
X783760Y802162D01*
G75*
D01*
G03X787588Y805990I0J3828*
G01*
X787588Y811990D01*
G74*
D01*
G03X785613Y815340I3828J0*
G01*
G74*
D01*
G03X786911Y816515I1852J3350*
G01*
X948495Y849837D02*
X962250Y863591D01*
G75*
D01*
G03X955031Y870810I2950J10169*
G01*
X942766Y858545D01*
X912207Y858545D01*
X912207Y859368D01*
G74*
D01*
G03X906252Y865323I5955J0*
G01*
X900535Y865323D01*
G75*
D01*
G03X894580Y859368I0J-5955*
G01*
X894580Y847512D01*
G75*
D01*
G03X900535Y841557I5955J0*
G01*
X906252Y841557D01*
G75*
D01*
G03X912207Y847512I0J5955*
G01*
X912207Y848335D01*
X944880Y848335D01*
G74*
D01*
G03X948495Y849837I2J5105*
G01*
X962390Y838152D02*
G75*
D01*
G03X962390Y838152I2810J10208*
G01*
X956172Y630678D02*
G75*
D01*
G03X956172Y630678I16648J17022*
G01*
X50940Y836875D02*
G74*
D01*
G03X44795Y843020I9900J3755*
G01*
X44795Y836875D01*
X50940Y836875D01*
X31140Y836875D02*
X37285Y836875D01*
X37285Y843020D01*
G74*
D01*
G03X31140Y836875I3755J9900*
G01*
X173210Y837532D02*
X183710Y837532D01*
G75*
D01*
G03X187538Y841360I0J3828*
G01*
X187538Y855360D01*
G74*
D01*
G03X183710Y859188I3828J0*
G01*
X173210Y859188D01*
G75*
D01*
G03X169382Y855360I0J-3828*
G01*
X169382Y853465D01*
X127914Y853465D01*
X101209Y880170D01*
G75*
D01*
G03X93990Y872951I-10169J2950*
G01*
X122191Y844751D01*
G74*
D01*
G03X125251Y843285I3609J3607*
G01*
G75*
D01*
G03X125800Y843255I553J5074*
G01*
X169382Y843255D01*
X169382Y841360D01*
G75*
D01*
G03X173210Y837532I3828J0*
G01*
X206538Y841360D02*
X206538Y843255D01*
X235986Y843255D01*
X236172Y843069D01*
X236172Y843069D01*
X248461Y830781D01*
G74*
D01*
G03X251516Y829316I3609J3608*
G01*
G75*
D01*
G03X252070Y829285I562J5073*
G01*
X300162Y829285D01*
G74*
D01*
G03X301463Y828065I3197J2106*
G01*
X206538Y828065D01*
X206538Y829960D01*
G74*
D01*
G03X202710Y833788I3828J0*
G01*
X192210Y833788D01*
G75*
D01*
G03X188382Y829960I0J-3828*
G01*
X188382Y815960D01*
G75*
D01*
G03X192210Y812132I3828J0*
G01*
X192355Y812132D01*
X192355Y757661D01*
G75*
D01*
G03X193443Y735229I6193J-10942*
G01*
X193443Y717290D01*
X189785Y717290D01*
G75*
D01*
G03X185956Y713462I-1J-3828*
G01*
X185956Y695936D01*
G75*
D01*
G03X189785Y692108I3829J1*
G01*
X207311Y692108D01*
G75*
D01*
G03X211139Y695936I0J3828*
G01*
X211139Y713462D01*
G74*
D01*
G03X207311Y717290I3828J0*
G01*
X203652Y717290D01*
X203652Y735229D01*
G75*
D01*
G03X202565Y758633I-5102J11490*
G01*
X202565Y812132D01*
X202710Y812132D01*
G75*
D01*
G03X206538Y815960I0J3828*
G01*
X206538Y817855D01*
X299624Y817855D01*
G74*
D01*
G03X301507Y815340I3736J835*
G01*
G74*
D01*
G03X299532Y811990I1853J3350*
G01*
X299532Y805990D01*
G75*
D01*
G03X303360Y802162I3828J0*
G01*
X309255Y802162D01*
X309255Y764887D01*
X309032Y764887D01*
G75*
D01*
G03X303517Y761178I0J-5955*
G01*
X301413Y761178D01*
G75*
D01*
G03X299099Y760623I1J-5105*
G01*
G74*
D01*
G03X297804Y759683I2314J4549*
G01*
X296108Y757987D01*
G75*
D01*
G03X303327Y750768I-1468J-8687*
G01*
X303520Y750961D01*
G75*
D01*
G03X309032Y747260I5512J2254*
G01*
X320888Y747260D01*
G75*
D01*
G03X326843Y753215I0J5955*
G01*
X326843Y758932D01*
G74*
D01*
G03X320888Y764887I5955J0*
G01*
X319465Y764887D01*
X319465Y802162D01*
X325360Y802162D01*
G75*
D01*
G03X329188Y805990I0J3828*
G01*
X329188Y811990D01*
G74*
D01*
G03X327213Y815340I3828J0*
G01*
G75*
D01*
G03X329188Y818690I-1853J3350*
G01*
X329188Y824690D01*
G74*
D01*
G03X327213Y828040I3828J0*
G01*
G75*
D01*
G03X329188Y831390I-1853J3350*
G01*
X329188Y837390D01*
G74*
D01*
G03X327213Y840740I3828J0*
G01*
G75*
D01*
G03X329188Y844090I-1853J3350*
G01*
X329188Y850090D01*
G74*
D01*
G03X325360Y853918I3828J0*
G01*
X319465Y853918D01*
X319465Y887060D01*
G74*
D01*
G03X317963Y890675I5105J2*
G01*
X314584Y894055D01*
X318384Y894055D01*
G75*
D01*
G03X318384Y904265I9275J5105*
G01*
X311536Y904265D01*
G75*
D01*
G03X292984Y904265I-9276J-5103*
G01*
X286136Y904265D01*
G75*
D01*
G03X286136Y894055I-9275J-5105*
G01*
X292984Y894055D01*
G75*
D01*
G03X305210Y888991I9276J5104*
G01*
X309255Y884946D01*
X309255Y853918D01*
X303360Y853918D01*
G75*
D01*
G03X299532Y850090I0J-3828*
G01*
X299532Y844090D01*
G75*
D01*
G03X301507Y840740I3828J0*
G01*
G74*
D01*
G03X300162Y839495I1852J3350*
G01*
X254184Y839495D01*
X241715Y851963D01*
G74*
D01*
G03X239867Y853149I3616J3601*
G01*
G75*
D01*
G03X238092Y853465I-1768J-4788*
G01*
X206538Y853465D01*
X206538Y855360D01*
G74*
D01*
G03X202710Y859188I3828J0*
G01*
X202565Y859188D01*
X202565Y923089D01*
X206522Y923089D01*
G75*
D01*
G03X210350Y926917I0J3828*
G01*
X210350Y944443D01*
G74*
D01*
G03X206522Y948271I3828J0*
G01*
X202863Y948271D01*
X202863Y966210D01*
G75*
D01*
G03X192654Y966210I-5104J11489*
G01*
X192654Y948271D01*
X188996Y948271D01*
G75*
D01*
G03X185167Y944443I-1J-3828*
G01*
X185167Y926917D01*
G75*
D01*
G03X188996Y923089I3829J1*
G01*
X192355Y923089D01*
X192355Y859188D01*
X192210Y859188D01*
G75*
D01*
G03X188382Y855360I0J-3828*
G01*
X188382Y841360D01*
G75*
D01*
G03X192210Y837532I3828J0*
G01*
X202710Y837532D01*
G75*
D01*
G03X206538Y841360I0J3828*
G01*
X453776Y828065D02*
G75*
D01*
G03X453776Y817855I-9275J-5105*
G01*
X486024Y817855D01*
G75*
D01*
G03X504576Y817855I9276J5103*
G01*
X511424Y817855D01*
G75*
D01*
G03X529976Y817855I9276J5103*
G01*
X536824Y817855D01*
G75*
D01*
G03X536824Y828065I9275J5105*
G01*
X529976Y828065D01*
G75*
D01*
G03X511424Y828065I-9276J-5103*
G01*
X504576Y828065D01*
G75*
D01*
G03X486024Y828065I-9276J-5103*
G01*
X453776Y828065D01*
X763078Y942687D02*
G74*
D01*
G03X757130Y948375I5947J265*
G01*
X754327Y948375D01*
X754327Y942687D01*
X763078Y942687D01*
X745273Y948375D02*
G75*
D01*
G03X739325Y942687I0J-5954*
G01*
X748076Y942687D01*
X748076Y948375D01*
X745273Y948375D01*
X757130Y930749D02*
G74*
D01*
G03X763078Y936437I0J5954*
G01*
X754327Y936437D01*
X754327Y930749D01*
X757130Y930749D01*
X739325Y936437D02*
G75*
D01*
G03X745273Y930749I5947J265*
G01*
X748076Y930749D01*
X748076Y936437D01*
X739325Y936437D01*
X980012Y873760D02*
G75*
D01*
G03X980012Y873760I10588J0*
G01*
X980012Y899160D02*
G75*
D01*
G03X980012Y899160I10588J0*
G01*
X971978Y913954D02*
G75*
D01*
G03X975806Y917782I0J3828*
G01*
X975806Y920799D01*
X968961Y920799D01*
X968961Y913954D01*
X971978Y913954D01*
X960200Y924560D02*
G75*
D01*
G03X960200Y924560I5000J0*
G01*
X980012Y924560D02*
G75*
D01*
G03X980012Y924560I10588J0*
G01*
X971978Y935166D02*
X968961Y935166D01*
X968961Y928321D01*
X975806Y928321D01*
X975806Y931338D01*
G74*
D01*
G03X971978Y935166I3828J0*
G01*
X832620Y905088D02*
G74*
D01*
G03X826932Y911037I5955J0*
G01*
X826932Y902285D01*
X832620Y902285D01*
X832620Y905088D01*
X820681Y911037D02*
G74*
D01*
G03X814993Y905088I266J5948*
G01*
X814993Y902285D01*
X820681Y902285D01*
X820681Y911037D01*
X864184Y892157D02*
X864184Y887044D01*
X869297Y887044D01*
G74*
D01*
G03X864184Y892157I8237J3124*
G01*
X851247Y893232D02*
X851247Y894055D01*
X875953Y894055D01*
X875953Y893232D01*
G75*
D01*
G03X881908Y887277I5955J0*
G01*
X887625Y887277D01*
G75*
D01*
G03X893580Y893232I0J5955*
G01*
X893580Y905088D01*
G74*
D01*
G03X887625Y911043I5955J0*
G01*
X881908Y911043D01*
G75*
D01*
G03X875953Y905088I0J-5955*
G01*
X875953Y904265D01*
X851247Y904265D01*
X851247Y905088D01*
G74*
D01*
G03X845292Y911043I5955J0*
G01*
X839575Y911043D01*
G75*
D01*
G03X833620Y905088I0J-5955*
G01*
X833620Y893232D01*
G75*
D01*
G03X839575Y887277I5955J0*
G01*
X845292Y887277D01*
G75*
D01*
G03X851247Y893232I0J5955*
G01*
X852823Y887044D02*
X857936Y887044D01*
X857936Y892157D01*
G74*
D01*
G03X852823Y887044I3124J8237*
G01*
X858060Y883920D02*
G75*
D01*
G03X858060Y883920I3000J0*
G01*
X826932Y887283D02*
G75*
D01*
G03X832620Y893232I-266J5948*
G01*
X832620Y896035D01*
X826932Y896035D01*
X826932Y887283D01*
X814993Y893232D02*
G75*
D01*
G03X820681Y887283I5955J0*
G01*
X820681Y896035D01*
X814993Y896035D01*
X814993Y893232D01*
X869297Y880796D02*
X864184Y880796D01*
X864184Y875683D01*
G74*
D01*
G03X869297Y880796I3124J8237*
G01*
X857936Y875683D02*
X857936Y880796D01*
X852823Y880796D01*
G74*
D01*
G03X857936Y875683I8237J3124*
G01*
X851247Y847512D02*
X851247Y848335D01*
X875953Y848335D01*
X875953Y847512D01*
G75*
D01*
G03X881908Y841557I5955J0*
G01*
X887625Y841557D01*
G75*
D01*
G03X893580Y847512I0J5955*
G01*
X893580Y859368D01*
G74*
D01*
G03X887625Y865323I5955J0*
G01*
X881908Y865323D01*
G75*
D01*
G03X875953Y859368I0J-5955*
G01*
X875953Y858545D01*
X851247Y858545D01*
X851247Y859368D01*
G74*
D01*
G03X845292Y865323I5955J0*
G01*
X839575Y865323D01*
G75*
D01*
G03X833620Y859368I0J-5955*
G01*
X833620Y847512D01*
G75*
D01*
G03X839575Y841557I5955J0*
G01*
X845292Y841557D01*
G75*
D01*
G03X851247Y847512I0J5955*
G01*
X826932Y841563D02*
G75*
D01*
G03X832620Y847512I-266J5948*
G01*
X832620Y850315D01*
X826932Y850315D01*
X826932Y841563D01*
X832620Y859368D02*
G74*
D01*
G03X826932Y865317I5955J0*
G01*
X826932Y856565D01*
X832620Y856565D01*
X832620Y859368D01*
X820681Y865317D02*
G74*
D01*
G03X814993Y859368I266J5948*
G01*
X814993Y856565D01*
X820681Y856565D01*
X820681Y865317D01*
X814993Y847512D02*
G75*
D01*
G03X820681Y841563I5955J0*
G01*
X820681Y850315D01*
X814993Y850315D01*
X814993Y847512D01*
X980012Y822960D02*
G75*
D01*
G03X980012Y822960I10588J0*
G01*
X661017Y916356D02*
X655904Y916356D01*
X655904Y911243D01*
G74*
D01*
G03X661017Y916356I3124J8237*
G01*
X649780Y919480D02*
G75*
D01*
G03X649780Y919480I3000J0*
G01*
X649656Y911243D02*
X649656Y916356D01*
X644543Y916356D01*
G74*
D01*
G03X649656Y911243I8237J3124*
G01*
X655904Y927717D02*
X655904Y922604D01*
X661017Y922604D01*
G74*
D01*
G03X655904Y927717I8237J3124*
G01*
X644543Y922604D02*
X649656Y922604D01*
X649656Y927717D01*
G74*
D01*
G03X644543Y922604I3124J8237*
G01*
X809437Y942687D02*
G74*
D01*
G03X803488Y948375I5948J266*
G01*
X800685Y948375D01*
X800685Y942687D01*
X809437Y942687D01*
X791632Y948375D02*
G75*
D01*
G03X785683Y942687I-1J-5954*
G01*
X794435Y942687D01*
X794435Y948375D01*
X791632Y948375D01*
X785683Y936437D02*
G75*
D01*
G03X791632Y930749I5948J266*
G01*
X794435Y930749D01*
X794435Y936437D01*
X785683Y936437D01*
X803488Y930749D02*
G74*
D01*
G03X809437Y936437I1J5954*
G01*
X800685Y936437D01*
X800685Y930749D01*
X803488Y930749D01*
X69136Y940139D02*
X75515Y940139D01*
G74*
D01*
G03X68217Y947436I11756J4459*
G01*
X68217Y941057D01*
G75*
D01*
G03X59300Y941057I-4458J-5376*
G01*
X59300Y947436D01*
G74*
D01*
G03X52003Y940139I4459J11756*
G01*
X58382Y940139D01*
G75*
D01*
G03X58382Y931222I5377J-4458*
G01*
X52003Y931222D01*
G74*
D01*
G03X59300Y923924I11755J4457*
G01*
X59300Y930303D01*
G75*
D01*
G03X68217Y930303I4459J5377*
G01*
X68217Y923924D01*
G74*
D01*
G03X75515Y931222I4457J11755*
G01*
X69136Y931222D01*
G75*
D01*
G03X69136Y940139I-5376J4459*
G01*
X68224Y972328D02*
X68224Y965109D01*
X72522Y965109D01*
G75*
D01*
G03X76350Y968937I0J3828*
G01*
X76350Y973235D01*
X69130Y973235D01*
G75*
D01*
G03X69130Y982165I-5370J4465*
G01*
X76350Y982165D01*
X76350Y986463D01*
G74*
D01*
G03X72522Y990291I3828J0*
G01*
X68224Y990291D01*
X68224Y983072D01*
G75*
D01*
G03X59294Y983072I-4465J-5372*
G01*
X59294Y990291D01*
X54996Y990291D01*
G75*
D01*
G03X51167Y986463I-1J-3828*
G01*
X51167Y982165D01*
X58387Y982165D01*
G75*
D01*
G03X58387Y973235I5372J-4465*
G01*
X51167Y973235D01*
X51167Y968937D01*
G75*
D01*
G03X54996Y965109I3829J1*
G01*
X59294Y965109D01*
X59294Y972328D01*
G75*
D01*
G03X68224Y972328I4465J5372*
G01*
X21910Y645160D02*
G75*
D01*
G03X21910Y645160I23810J0*
G01*
X69925Y709157D02*
X76304Y709157D01*
G74*
D01*
G03X69006Y716455I11755J4457*
G01*
X69006Y710076D01*
G75*
D01*
G03X60089Y710076I-4458J-5376*
G01*
X60089Y716455D01*
G74*
D01*
G03X52792Y709157I4459J11756*
G01*
X59171Y709157D01*
G75*
D01*
G03X59171Y700240I5376J-4458*
G01*
X52792Y700240D01*
G74*
D01*
G03X60089Y692943I11756J4459*
G01*
X60089Y699322D01*
G75*
D01*
G03X69006Y699322I4459J5377*
G01*
X69006Y692943D01*
G74*
D01*
G03X76304Y700240I4457J11755*
G01*
X69925Y700240D01*
G75*
D01*
G03X69925Y709157I-5377J4459*
G01*
X69013Y741347D02*
X69013Y734128D01*
X73311Y734128D01*
G75*
D01*
G03X77139Y737956I0J3828*
G01*
X77139Y742254D01*
X69919Y742254D01*
G75*
D01*
G03X69919Y751184I-5370J4465*
G01*
X77139Y751184D01*
X77139Y755482D01*
G74*
D01*
G03X73311Y759310I3828J0*
G01*
X69013Y759310D01*
X69013Y752091D01*
G75*
D01*
G03X60083Y752091I-4465J-5372*
G01*
X60083Y759310D01*
X55785Y759310D01*
G75*
D01*
G03X51956Y755482I-1J-3828*
G01*
X51956Y751184D01*
X59176Y751184D01*
G75*
D01*
G03X59176Y742254I5372J-4465*
G01*
X51956Y742254D01*
X51956Y737956D01*
G75*
D01*
G03X55785Y734128I3829J1*
G01*
X60083Y734128D01*
X60083Y741347D01*
G75*
D01*
G03X69013Y741347I4465J5372*
G01*
X130880Y828065D02*
G75*
D01*
G03X129748Y827937I4J-5105*
G01*
G74*
D01*
G03X127271Y826569I1132J4977*
G01*
X93990Y793289D01*
G75*
D01*
G03X101209Y786070I-2950J-10169*
G01*
X132994Y817855D01*
X169382Y817855D01*
X169382Y815960D01*
G75*
D01*
G03X173210Y812132I3828J0*
G01*
X183710Y812132D01*
G75*
D01*
G03X187538Y815960I0J3828*
G01*
X187538Y829960D01*
G74*
D01*
G03X183710Y833788I3828J0*
G01*
X173210Y833788D01*
G75*
D01*
G03X169382Y829960I0J-3828*
G01*
X169382Y828065D01*
X130880Y828065D01*
X36040Y833120D02*
G75*
D01*
G03X36040Y833120I5000J0*
G01*
X37285Y823220D02*
X37285Y829365D01*
X31140Y829365D01*
G74*
D01*
G03X37285Y823220I9900J3755*
G01*
X50940Y829365D02*
X44795Y829365D01*
X44795Y823220D01*
G74*
D01*
G03X50940Y829365I3755J9900*
G01*
X749686Y775995D02*
G75*
D01*
G03X749686Y765785I-9275J-5105*
G01*
X756534Y765785D01*
G75*
D01*
G03X775086Y765785I9276J5103*
G01*
X781934Y765785D01*
G75*
D01*
G03X781934Y775995I9275J5105*
G01*
X775086Y775995D01*
G75*
D01*
G03X756534Y775995I-9276J-5103*
G01*
X749686Y775995D01*
X838586Y704875D02*
G75*
D01*
G03X838586Y694665I-9275J-5105*
G01*
X845434Y694665D01*
G75*
D01*
G03X863986Y694665I9276J5103*
G01*
X870834Y694665D01*
G75*
D01*
G03X870834Y704875I9275J5105*
G01*
X863986Y704875D01*
G75*
D01*
G03X845434Y704875I-9276J-5103*
G01*
X838586Y704875D01*
X749686Y704875D02*
G75*
D01*
G03X749686Y694665I-9275J-5105*
G01*
X756534Y694665D01*
G75*
D01*
G03X775086Y694665I9276J5103*
G01*
X781934Y694665D01*
G75*
D01*
G03X781934Y704875I9275J5105*
G01*
X775086Y704875D01*
G75*
D01*
G03X756534Y704875I-9276J-5103*
G01*
X749686Y704875D01*
X882595Y644900D02*
X882595Y638755D01*
X888740Y638755D01*
G74*
D01*
G03X882595Y644900I9900J3755*
G01*
X875085Y625100D02*
X875085Y631245D01*
X868940Y631245D01*
G74*
D01*
G03X875085Y625100I9900J3755*
G01*
X868940Y638755D02*
X875085Y638755D01*
X875085Y644900D01*
G74*
D01*
G03X868940Y638755I3755J9900*
G01*
X873840Y635000D02*
G75*
D01*
G03X873840Y635000I5000J0*
G01*
X888740Y631245D02*
X882595Y631245D01*
X882595Y625100D01*
G74*
D01*
G03X888740Y631245I3755J9900*
G01*
X843540Y638755D02*
X849685Y638755D01*
X849685Y644900D01*
G74*
D01*
G03X843540Y638755I3755J9900*
G01*
X857195Y644900D02*
X857195Y638755D01*
X863340Y638755D01*
G74*
D01*
G03X857195Y644900I9900J3755*
G01*
X863340Y631245D02*
X857195Y631245D01*
X857195Y625100D01*
G74*
D01*
G03X863340Y631245I3755J9900*
G01*
X848440Y635000D02*
G75*
D01*
G03X848440Y635000I5000J0*
G01*
X849685Y625100D02*
X849685Y631245D01*
X843540Y631245D01*
G74*
D01*
G03X849685Y625100I9900J3755*
G01*
X818140Y638755D02*
X824285Y638755D01*
X824285Y644900D01*
G74*
D01*
G03X818140Y638755I3755J9900*
G01*
X824285Y625100D02*
X824285Y631245D01*
X818140Y631245D01*
G74*
D01*
G03X824285Y625100I9900J3755*
G01*
X831795Y644900D02*
X831795Y638755D01*
X837940Y638755D01*
G74*
D01*
G03X831795Y644900I9900J3755*
G01*
X823040Y635000D02*
G75*
D01*
G03X823040Y635000I5000J0*
G01*
X837940Y631245D02*
X831795Y631245D01*
X831795Y625100D01*
G74*
D01*
G03X837940Y631245I3755J9900*
G01*
X748416Y640105D02*
G75*
D01*
G03X748416Y629895I-9275J-5105*
G01*
X755264Y629895D01*
G75*
D01*
G03X773816Y629895I9276J5103*
G01*
X780664Y629895D01*
G75*
D01*
G03X780664Y640105I9275J5105*
G01*
X773816Y640105D01*
G75*
D01*
G03X755264Y640105I-9276J-5103*
G01*
X748416Y640105D01*
X680460Y682045D02*
X674315Y682045D01*
X674315Y675900D01*
G74*
D01*
G03X680460Y682045I3755J9900*
G01*
X666805Y675900D02*
X666805Y682045D01*
X660660Y682045D01*
G74*
D01*
G03X666805Y675900I9900J3755*
G01*
X674315Y695700D02*
X674315Y689555D01*
X680460Y689555D01*
G74*
D01*
G03X674315Y695700I9900J3755*
G01*
X660660Y689555D02*
X666805Y689555D01*
X666805Y695700D01*
G74*
D01*
G03X660660Y689555I3755J9900*
G01*
X665560Y685800D02*
G75*
D01*
G03X665560Y685800I5000J0*
G01*
X660660Y714955D02*
X666805Y714955D01*
X666805Y721100D01*
G74*
D01*
G03X660660Y714955I3755J9900*
G01*
X674315Y721100D02*
X674315Y714955D01*
X680460Y714955D01*
G74*
D01*
G03X674315Y721100I9900J3755*
G01*
X680460Y707445D02*
X674315Y707445D01*
X674315Y701300D01*
G74*
D01*
G03X680460Y707445I3755J9900*
G01*
X666805Y701300D02*
X666805Y707445D01*
X660660Y707445D01*
G74*
D01*
G03X666805Y701300I9900J3755*
G01*
X665560Y711200D02*
G75*
D01*
G03X665560Y711200I5000J0*
G01*
X680460Y732845D02*
X674315Y732845D01*
X674315Y726700D01*
G74*
D01*
G03X680460Y732845I3755J9900*
G01*
X665560Y736600D02*
G75*
D01*
G03X665560Y736600I5000J0*
G01*
X666805Y726700D02*
X666805Y732845D01*
X660660Y732845D01*
G74*
D01*
G03X666805Y726700I9900J3755*
G01*
X674315Y746500D02*
X674315Y740355D01*
X680460Y740355D01*
G74*
D01*
G03X674315Y746500I9900J3755*
G01*
X660660Y740355D02*
X666805Y740355D01*
X666805Y746500D01*
G74*
D01*
G03X660660Y740355I3755J9900*
G01*
X320888Y728633D02*
G74*
D01*
G03X326837Y734321I0J5955*
G01*
X318085Y734321D01*
X318085Y728633D01*
X320888Y728633D01*
X303083Y734321D02*
G75*
D01*
G03X309032Y728633I5948J266*
G01*
X311835Y728633D01*
X311835Y734321D01*
X303083Y734321D01*
X338643Y734321D02*
G75*
D01*
G03X344592Y728633I5948J266*
G01*
X347395Y728633D01*
X347395Y734321D01*
X338643Y734321D01*
X356448Y728633D02*
G74*
D01*
G03X362397Y734321I0J5955*
G01*
X353645Y734321D01*
X353645Y728633D01*
X356448Y728633D01*
X326837Y740572D02*
G74*
D01*
G03X320888Y746260I5948J266*
G01*
X318085Y746260D01*
X318085Y740572D01*
X326837Y740572D01*
X309032Y746260D02*
G75*
D01*
G03X303083Y740572I0J-5955*
G01*
X311835Y740572D01*
X311835Y746260D01*
X309032Y746260D01*
X344592Y746260D02*
G75*
D01*
G03X338643Y740572I0J-5955*
G01*
X347395Y740572D01*
X347395Y746260D01*
X344592Y746260D01*
X362397Y740572D02*
G74*
D01*
G03X356448Y746260I5948J266*
G01*
X353645Y746260D01*
X353645Y740572D01*
X362397Y740572D01*
X351532Y805990D02*
G75*
D01*
G03X355360Y802162I3828J0*
G01*
X363939Y802162D01*
X363939Y806569D01*
X351532Y806569D01*
X351532Y805990D01*
X377360Y802162D02*
G75*
D01*
G03X381188Y805990I0J3828*
G01*
X381188Y806569D01*
X368781Y806569D01*
X368781Y802162D01*
X377360Y802162D01*
X1012175Y1019799D02*
X1012175Y605808D01*
X3828Y605808D01*
X3828Y1019799D01*
X1012175Y1019799D01*
X314360Y808990D02*
X314360Y756673D01*
X314960Y756073D01*
X313090Y822960D02*
X314360Y821690D01*
X367630Y822960D02*
X366360Y821690D01*
X197460Y822960D02*
X313090Y822960D01*
X419100Y822960D02*
X367630Y822960D01*
X495300Y822960D02*
X444500Y822960D01*
X314360Y847090D02*
X314360Y887060D01*
X366360Y847090D02*
X366360Y898560D01*
X314360Y887060D02*
X302260Y899160D01*
X366360Y898560D02*
X365760Y899160D01*
X197759Y977700D02*
X197759Y935680D01*
X198548Y746719D02*
X198548Y704699D01*
X199956Y748128D02*
X198548Y746719D01*
X197460Y848360D02*
X197460Y935381D01*
X197460Y822960D02*
X197460Y747807D01*
X198548Y746719D01*
X791210Y834390D02*
X797560Y840740D01*
X797560Y920935D01*
X314960Y756073D02*
X301413Y756073D01*
X294640Y749300D01*
X720760Y808990D02*
X735330Y808990D01*
X751202Y824862D01*
X751202Y920935D01*
X382270Y834390D02*
X403860Y855980D01*
X525780Y855980D01*
X718820Y873760D02*
X718820Y888554D01*
X751202Y920935D01*
X779930Y821690D02*
X772760Y821690D01*
X963860Y821620D02*
X780000Y821620D01*
X965200Y822960D02*
X963860Y821620D01*
X351790Y834390D02*
X340360Y822960D01*
X340360Y766233D01*
X350520Y756073D01*
X252070Y834390D02*
X238100Y848360D01*
X314360Y834390D02*
X252070Y834390D01*
X238100Y848360D02*
X197460Y848360D01*
X351790Y834390D02*
X382270Y834390D01*
X884767Y899160D02*
X842433Y899160D01*
X842433Y853440D02*
X884767Y853440D01*
X903393Y853440D02*
X944880Y853440D01*
X965200Y873760D01*
X934720Y899160D02*
X962660Y899160D01*
X912945Y920935D02*
X920565Y920935D01*
X924560Y916940D01*
X924560Y904240D02*
X919480Y899160D01*
X924560Y904240D02*
X929640Y899160D01*
X965200Y822960D02*
X965200Y788144D01*
X719490Y833120D02*
X695960Y833120D01*
X720760Y834390D02*
X719490Y833120D01*
X178460Y848360D02*
X125800Y848360D01*
X91040Y883120D01*
X178460Y822960D02*
X130880Y822960D01*
X91040Y783120D01*
X635000Y822960D02*
X668020Y822960D01*
X670560Y825500D01*
X674370Y821690D01*
X720760Y821690D01*
X924560Y904240D02*
X924560Y916940D01*
X924560Y899160D02*
X924560Y901700D01*
X922020Y899160D01*
X903393Y899160D02*
X965200Y899160D01*
X924560Y899160D02*
X927100Y901700D01*
X912945Y920935D02*
X792480Y920935D01*
X797560Y920935D02*
X791025Y920935D01*
X774700Y937260D01*
X774700Y943795D01*
X627380Y957580D02*
X760915Y957580D01*
X525780Y855980D02*
X627380Y957580D01*
X774700Y943795D02*
X760915Y957580D01*
X965200Y788144D02*
X947946Y770890D01*
X829310Y770890D02*
X947946Y770890D01*
X791210Y834390D02*
X772760Y834390D01*
X739140Y635000D02*
X789940Y635000D01*
X828040Y635000D02*
X878840Y635000D01*
X740410Y699770D02*
X791210Y699770D01*
X829310Y699770D02*
X880110Y699770D01*
X740410Y770890D02*
X791210Y770890D01*
X829310Y770890D02*
X880110Y770890D01*
X495300Y822960D02*
X546100Y822960D01*
X584200Y822960D02*
X635000Y822960D01*
X670560Y825500D02*
X670560Y774700D01*
X670560Y736600D02*
X670560Y685800D01*
X276860Y899160D02*
X327660Y899160D01*
X365760Y899160D02*
X416560Y899160D01*
G54D12*
X-2540Y599440D02*
X-2540Y642113D01*
X-2540Y599440D02*
X99568Y599440D01*
X1018543Y599440D02*
X916435Y599440D01*
X1018543Y599440D02*
X1018543Y642113D01*
X1018543Y1026168D02*
X1018543Y983495D01*
X1018543Y1026168D02*
X916435Y1026168D01*
X-2540Y1026168D02*
X99568Y1026168D01*
X-2540Y1026168D02*
X-2540Y983495D01*
X-52540Y599440D02*
X-152540Y599440D01*
X-102540Y549440D02*
X-102540Y649440D01*
X-140040Y599440D02*
G75*
D01*
G02X-140040Y599440I37500J0*
G01*
X1068543Y599440D02*
X1168543Y599440D01*
X1118543Y549440D02*
X1118543Y649440D01*
X1081043Y599440D02*
G75*
D01*
G02X1081043Y599440I37500J0*
G01*
X1106043Y599440D02*
G75*
D01*
G02X1106043Y599440I12500J0*
G01*
X-52540Y1026168D02*
X-152540Y1026168D01*
X-102540Y976168D02*
X-102540Y1076168D01*
X-140040Y1026168D02*
G75*
D01*
G02X-140040Y1026168I37500J0*
G01*
X-127540Y1026168D02*
G75*
D01*
G02X-127540Y1026168I25000J0*
G01*
X-115040Y1026168D02*
G75*
D01*
G02X-115040Y1026168I12500J0*
G01*
G54D13*
X294640Y749300D03*
X718820Y873760D03*
X695960Y833120D03*
X861060Y883920D03*
X652780Y919480D03*
G54D14*
X965200Y899160D03*
X965200Y873760D03*
X965200Y848360D03*
X965200Y822960D03*
X990600Y924560D03*
X990600Y899160D03*
X990600Y873760D03*
X990600Y848360D03*
X990600Y822960D03*
X91040Y783120D03*
X91040Y883120D03*
X41040Y833120D03*
X739140Y635000D03*
X764540Y635000D03*
X789940Y635000D03*
X853440Y635000D03*
X878840Y635000D03*
X828040Y635000D03*
X740410Y699770D03*
X765810Y699770D03*
X791210Y699770D03*
X854710Y699770D03*
X880110Y699770D03*
X829310Y699770D03*
X740410Y770890D03*
X765810Y770890D03*
X791210Y770890D03*
X854710Y770890D03*
X880110Y770890D03*
X829310Y770890D03*
X495300Y822960D03*
X520700Y822960D03*
X546100Y822960D03*
X609600Y822960D03*
X635000Y822960D03*
X584200Y822960D03*
X670560Y825500D03*
X670560Y800100D03*
X670560Y774700D03*
X670560Y711200D03*
X670560Y685800D03*
X670560Y736600D03*
X276860Y899160D03*
X302260Y899160D03*
X327660Y899160D03*
X391160Y899160D03*
X416560Y899160D03*
X365760Y899160D03*
X419100Y822960D03*
X444500Y822960D03*
G54D15*
X965200Y924560D03*
G54D16*
X178460Y848360D03*
X197460Y848360D03*
X178460Y822960D03*
X197460Y822960D03*
G54D17*
X314360Y808990D03*
X366360Y808990D03*
X314360Y834390D03*
X314360Y821690D03*
X366360Y834390D03*
X366360Y821690D03*
X314360Y847090D03*
X366360Y847090D03*
X720760Y808990D03*
X720760Y821690D03*
X772760Y808990D03*
X772760Y821690D03*
X720760Y834390D03*
X772760Y834390D03*
X720760Y847090D03*
X772760Y847090D03*
G54D18*
X63759Y977700D03*
X197759Y935680D03*
X64548Y746719D03*
X198548Y704699D03*
G54D19*
X197759Y977700D03*
X63759Y935680D03*
X198548Y746719D03*
X64548Y704699D03*
G54D20*
X823807Y899160D03*
X842433Y899160D03*
X903393Y853440D03*
X884767Y853440D03*
X903393Y899160D03*
X884767Y899160D03*
X823807Y853440D03*
X842433Y853440D03*
G54D21*
X820948Y893232D02*
X826666Y893232D01*
X826666Y905088D01*
X820948Y905088D01*
X820948Y893232D01*D02*
X839574Y893232D02*
X845292Y893232D01*
X845292Y905088D01*
X839574Y905088D01*
X839574Y893232D01*D02*
X900534Y847512D02*
X906252Y847512D01*
X906252Y859368D01*
X900534Y859368D01*
X900534Y847512D01*D02*
X881908Y847512D02*
X887626Y847512D01*
X887626Y859368D01*
X881908Y859368D01*
X881908Y847512D01*D02*
X309032Y753214D02*
X320888Y753214D01*
X320888Y758932D01*
X309032Y758932D01*
X309032Y753214D01*D02*
X309032Y734588D02*
X320888Y734588D01*
X320888Y740306D01*
X309032Y740306D01*
X309032Y734588D01*D02*
X344592Y753214D02*
X356448Y753214D01*
X356448Y758932D01*
X344592Y758932D01*
X344592Y753214D01*D02*
X344592Y734588D02*
X356448Y734588D01*
X356448Y740306D01*
X344592Y740306D01*
X344592Y734588D01*D02*
X791632Y918076D02*
X803488Y918076D01*
X803488Y923794D01*
X791632Y923794D01*
X791632Y918076D01*D02*
X791632Y936703D02*
X803488Y936703D01*
X803488Y942421D01*
X791632Y942421D01*
X791632Y936703D01*D02*
X745274Y918076D02*
X757130Y918076D01*
X757130Y923794D01*
X745274Y923794D01*
X745274Y918076D01*D02*
X745274Y936703D02*
X757130Y936703D01*
X757130Y942421D01*
X745274Y942421D01*
X745274Y936703D01*D02*
X900534Y893232D02*
X906252Y893232D01*
X906252Y905088D01*
X900534Y905088D01*
X900534Y893232D01*D02*
X881908Y893232D02*
X887626Y893232D01*
X887626Y905088D01*
X881908Y905088D01*
X881908Y893232D01*D02*
X820948Y847512D02*
X826666Y847512D01*
X826666Y859368D01*
X820948Y859368D01*
X820948Y847512D01*D02*
X839574Y847512D02*
X845292Y847512D01*
X845292Y859368D01*
X839574Y859368D01*
X839574Y847512D01*D02*
G54D22*
X314960Y756073D03*
X314960Y737447D03*
X350520Y756073D03*
X350520Y737447D03*
X797560Y920935D03*
X797560Y939562D03*
X751202Y920935D03*
X751202Y939562D03*

M02*
