G04 Generated by Ultiboard 14.0 *
%FSLAX34Y34*%
%MOMM*%

%ADD10C,0.0001*%
%ADD11C,0.1270*%


G04 ColorRGB CC99CC for the following layer *
%LNKeep-in/keep-out*%
%LPD*%
G54D10*
G54D11*
X-2540Y599440D02*
X-2540Y642113D01*
X-2540Y599440D02*
X99568Y599440D01*
X1018543Y599440D02*
X916435Y599440D01*
X1018543Y599440D02*
X1018543Y642113D01*
X1018543Y1026168D02*
X1018543Y983495D01*
X1018543Y1026168D02*
X916435Y1026168D01*
X-2540Y1026168D02*
X99568Y1026168D01*
X-2540Y1026168D02*
X-2540Y983495D01*
X-52540Y599440D02*
X-152540Y599440D01*
X-102540Y549440D02*
X-102540Y649440D01*
X-140040Y599440D02*
G75*
D01*
G02X-140040Y599440I37500J0*
G01*
X1068543Y599440D02*
X1168543Y599440D01*
X1118543Y549440D02*
X1118543Y649440D01*
X1081043Y599440D02*
G75*
D01*
G02X1081043Y599440I37500J0*
G01*
X1106043Y599440D02*
G75*
D01*
G02X1106043Y599440I12500J0*
G01*
X-52540Y1026168D02*
X-152540Y1026168D01*
X-102540Y976168D02*
X-102540Y1076168D01*
X-140040Y1026168D02*
G75*
D01*
G02X-140040Y1026168I37500J0*
G01*
X-127540Y1026168D02*
G75*
D01*
G02X-127540Y1026168I25000J0*
G01*
X-115040Y1026168D02*
G75*
D01*
G02X-115040Y1026168I12500J0*
G01*

M02*
