M48
METRIC,TZ
VER,1
FMAT,2
DETECT,ON
ATC,ON
T1C0.6000
T2C1.0000
T3C4.0000
T4C1.3970
%
T1
X294640Y749300
X718820Y873760
X695960Y833120
X861060Y883920
X652780Y919480
T2
X965200Y899160
Y873760
Y848360
Y822960
X990600Y924560
Y899160
Y873760
Y848360
Y822960
X965200Y924560
X91040Y783120
Y883120
X41040Y833120
X739140Y635000
X764540
X789940
X853440
X878840
X828040
X740410Y699770
X765810
X791210
X854710
X880110
X829310
X740410Y770890
X765810
X791210
X854710
X880110
X829310
X495300Y822960
X520700
X546100
X609600
X635000
X584200
X670560Y825500
Y800100
Y774700
Y711200
Y685800
Y736600
X276860Y899160
X302260
X327660
X391160
X416560
X365760
X419100Y822960
X444500
T3
X975360Y982980
X972820Y647700
X45720Y645160
T4
X63759Y977700
X197759
Y935680
X63759
X64548Y746719
X198548
Y704699
X64548
M30
