G04 Generated by Ultiboard 14.0 *
%FSLAX34Y34*%
%MOMM*%

%ADD10C,0.0001*%
%ADD11C,0.6000*%
%ADD12C,1.0000*%
%ADD13C,4.0000*%
%ADD14C,1.3970*%


G04 ColorRGB 000000 for the following layer *
%LNDrill-Copper Top-Copper Bottom*%
%LPD*%
G54D11*
X294640Y749300D03*
X718820Y873760D03*
X695960Y833120D03*
X861060Y883920D03*
X652780Y919480D03*
G54D12*
X965200Y899160D03*
X965200Y873760D03*
X965200Y848360D03*
X965200Y822960D03*
X990600Y924560D03*
X990600Y899160D03*
X990600Y873760D03*
X990600Y848360D03*
X990600Y822960D03*
X965200Y924560D03*
X91040Y783120D03*
X91040Y883120D03*
X41040Y833120D03*
X739140Y635000D03*
X764540Y635000D03*
X789940Y635000D03*
X853440Y635000D03*
X878840Y635000D03*
X828040Y635000D03*
X740410Y699770D03*
X765810Y699770D03*
X791210Y699770D03*
X854710Y699770D03*
X880110Y699770D03*
X829310Y699770D03*
X740410Y770890D03*
X765810Y770890D03*
X791210Y770890D03*
X854710Y770890D03*
X880110Y770890D03*
X829310Y770890D03*
X495300Y822960D03*
X520700Y822960D03*
X546100Y822960D03*
X609600Y822960D03*
X635000Y822960D03*
X584200Y822960D03*
X670560Y825500D03*
X670560Y800100D03*
X670560Y774700D03*
X670560Y711200D03*
X670560Y685800D03*
X670560Y736600D03*
X276860Y899160D03*
X302260Y899160D03*
X327660Y899160D03*
X391160Y899160D03*
X416560Y899160D03*
X365760Y899160D03*
X419100Y822960D03*
X444500Y822960D03*
G54D13*
X975360Y982980D03*
X972820Y647700D03*
X45720Y645160D03*
G54D14*
X63759Y977700D03*
X197759Y977700D03*
X197759Y935680D03*
X63759Y935680D03*
X64548Y746719D03*
X198548Y746719D03*
X198548Y704699D03*
X64548Y704699D03*

M02*
