G04 Generated by Ultiboard 14.0 *
%FSLAX34Y34*%
%MOMM*%

%ADD10C,0.0001*%
%ADD11C,0.1270*%
%ADD12C,1.0000*%
%ADD13C,1.3556*%
%ADD14R,1.3556X1.3556*%
%ADD15R,1.0500X1.4000*%
%ADD16C,4.0000*%
%ADD17R,2.2000X0.6000*%
%ADD18R,1.7526X1.7526*%
%ADD19C,1.7526*%
%ADD20R,0.5718X1.1857*%
%ADD21C,0.4232*%
%ADD22R,1.1857X0.5718*%


G04 ColorRGB FF00CC for the following layer *
%LNSolder Mask Top*%
%LPD*%
G54D10*
G54D11*
X-2540Y599440D02*
X-2540Y642113D01*
X-2540Y599440D02*
X99568Y599440D01*
X1018543Y599440D02*
X916435Y599440D01*
X1018543Y599440D02*
X1018543Y642113D01*
X1018543Y1026168D02*
X1018543Y983495D01*
X1018543Y1026168D02*
X916435Y1026168D01*
X-2540Y1026168D02*
X99568Y1026168D01*
X-2540Y1026168D02*
X-2540Y983495D01*
X-52540Y599440D02*
X-152540Y599440D01*
X-102540Y549440D02*
X-102540Y649440D01*
X-140040Y599440D02*
G75*
D01*
G02X-140040Y599440I37500J0*
G01*
X1068543Y599440D02*
X1168543Y599440D01*
X1118543Y549440D02*
X1118543Y649440D01*
X1081043Y599440D02*
G75*
D01*
G02X1081043Y599440I37500J0*
G01*
X1106043Y599440D02*
G75*
D01*
G02X1106043Y599440I12500J0*
G01*
X-52540Y1026168D02*
X-152540Y1026168D01*
X-102540Y976168D02*
X-102540Y1076168D01*
X-140040Y1026168D02*
G75*
D01*
G02X-140040Y1026168I37500J0*
G01*
X-127540Y1026168D02*
G75*
D01*
G02X-127540Y1026168I25000J0*
G01*
X-115040Y1026168D02*
G75*
D01*
G02X-115040Y1026168I12500J0*
G01*
G54D12*
X294640Y749300D03*
X718820Y873760D03*
X695960Y833120D03*
X861060Y883920D03*
X652780Y919480D03*
G54D13*
X965200Y899160D03*
X965200Y873760D03*
X965200Y848360D03*
X965200Y822960D03*
X990600Y924560D03*
X990600Y899160D03*
X990600Y873760D03*
X990600Y848360D03*
X990600Y822960D03*
X91040Y783120D03*
X91040Y883120D03*
X41040Y833120D03*
X739140Y635000D03*
X764540Y635000D03*
X789940Y635000D03*
X853440Y635000D03*
X878840Y635000D03*
X828040Y635000D03*
X740410Y699770D03*
X765810Y699770D03*
X791210Y699770D03*
X854710Y699770D03*
X880110Y699770D03*
X829310Y699770D03*
X740410Y770890D03*
X765810Y770890D03*
X791210Y770890D03*
X854710Y770890D03*
X880110Y770890D03*
X829310Y770890D03*
X495300Y822960D03*
X520700Y822960D03*
X546100Y822960D03*
X609600Y822960D03*
X635000Y822960D03*
X584200Y822960D03*
X670560Y825500D03*
X670560Y800100D03*
X670560Y774700D03*
X670560Y711200D03*
X670560Y685800D03*
X670560Y736600D03*
X276860Y899160D03*
X302260Y899160D03*
X327660Y899160D03*
X391160Y899160D03*
X416560Y899160D03*
X365760Y899160D03*
X419100Y822960D03*
X444500Y822960D03*
G54D14*
X965200Y924560D03*
G54D15*
X178460Y848360D03*
X197460Y848360D03*
X178460Y822960D03*
X197460Y822960D03*
G54D16*
X975360Y982980D03*
X972820Y647700D03*
X45720Y645160D03*
G54D17*
X314360Y808990D03*
X366360Y808990D03*
X314360Y834390D03*
X314360Y821690D03*
X366360Y834390D03*
X366360Y821690D03*
X314360Y847090D03*
X366360Y847090D03*
X720760Y808990D03*
X720760Y821690D03*
X772760Y808990D03*
X772760Y821690D03*
X720760Y834390D03*
X772760Y834390D03*
X720760Y847090D03*
X772760Y847090D03*
G54D18*
X63759Y977700D03*
X197759Y935680D03*
X64548Y746719D03*
X198548Y704699D03*
G54D19*
X197759Y977700D03*
X63759Y935680D03*
X198548Y746719D03*
X64548Y704699D03*
G54D20*
X823807Y899160D03*
X842433Y899160D03*
X903393Y853440D03*
X884767Y853440D03*
X903393Y899160D03*
X884767Y899160D03*
X823807Y853440D03*
X842433Y853440D03*
G54D21*
X820948Y893232D02*
X826666Y893232D01*
X826666Y905088D01*
X820948Y905088D01*
X820948Y893232D01*D02*
X839574Y893232D02*
X845292Y893232D01*
X845292Y905088D01*
X839574Y905088D01*
X839574Y893232D01*D02*
X900534Y847512D02*
X906252Y847512D01*
X906252Y859368D01*
X900534Y859368D01*
X900534Y847512D01*D02*
X881908Y847512D02*
X887626Y847512D01*
X887626Y859368D01*
X881908Y859368D01*
X881908Y847512D01*D02*
X309032Y753214D02*
X320888Y753214D01*
X320888Y758932D01*
X309032Y758932D01*
X309032Y753214D01*D02*
X309032Y734588D02*
X320888Y734588D01*
X320888Y740306D01*
X309032Y740306D01*
X309032Y734588D01*D02*
X344592Y753214D02*
X356448Y753214D01*
X356448Y758932D01*
X344592Y758932D01*
X344592Y753214D01*D02*
X344592Y734588D02*
X356448Y734588D01*
X356448Y740306D01*
X344592Y740306D01*
X344592Y734588D01*D02*
X791632Y918076D02*
X803488Y918076D01*
X803488Y923794D01*
X791632Y923794D01*
X791632Y918076D01*D02*
X791632Y936703D02*
X803488Y936703D01*
X803488Y942421D01*
X791632Y942421D01*
X791632Y936703D01*D02*
X745274Y918076D02*
X757130Y918076D01*
X757130Y923794D01*
X745274Y923794D01*
X745274Y918076D01*D02*
X745274Y936703D02*
X757130Y936703D01*
X757130Y942421D01*
X745274Y942421D01*
X745274Y936703D01*D02*
X900534Y893232D02*
X906252Y893232D01*
X906252Y905088D01*
X900534Y905088D01*
X900534Y893232D01*D02*
X881908Y893232D02*
X887626Y893232D01*
X887626Y905088D01*
X881908Y905088D01*
X881908Y893232D01*D02*
X820948Y847512D02*
X826666Y847512D01*
X826666Y859368D01*
X820948Y859368D01*
X820948Y847512D01*D02*
X839574Y847512D02*
X845292Y847512D01*
X845292Y859368D01*
X839574Y859368D01*
X839574Y847512D01*D02*
G54D22*
X314960Y756073D03*
X314960Y737447D03*
X350520Y756073D03*
X350520Y737447D03*
X797560Y920935D03*
X797560Y939562D03*
X751202Y920935D03*
X751202Y939562D03*

M02*
