G04 Generated by Ultiboard 14.0 *
%FSLAX34Y34*%
%MOMM*%

%ADD10C,0.0001*%
%ADD11C,0.2032*%
%ADD12C,0.0010*%
%ADD13C,0.2540*%
%ADD14C,0.1778*%
%ADD15C,0.1270*%


G04 ColorRGB 0000FF for the following layer *
%LN3D-Info Top*%
%LPD*%
G54D10*
G54D11*
X937280Y924760D02*
X937280Y822760D01*
X1003280Y822760D01*
X1003280Y924760D01*
X947580Y907969D02*
G75*
D01*
G02X947580Y907969I10000J0*
G01*
X965280Y924760D02*
X965299Y924324D01*
X965356Y923892D01*
X965450Y923466D01*
X965582Y923050D01*
X965748Y922647D01*
X965950Y922260D01*
X966184Y921892D01*
X966450Y921546D01*
X966744Y921224D01*
X967066Y920930D01*
X967412Y920664D01*
X967780Y920430D01*
X968167Y920228D01*
X968570Y920062D01*
X968986Y919930D01*
X969412Y919836D01*
X969844Y919779D01*
X970280Y919760D01*
X970716Y919779D01*
X971148Y919836D01*
X971574Y919930D01*
X971990Y920062D01*
X972393Y920228D01*
X972780Y920430D01*
X973148Y920664D01*
X973494Y920930D01*
X973816Y921224D01*
X974110Y921546D01*
X974376Y921892D01*
X974610Y922260D01*
X974812Y922647D01*
X974978Y923050D01*
X975110Y923466D01*
X975204Y923892D01*
X975261Y924324D01*
X975280Y924760D01*
X1003280Y924760D02*
X975280Y924760D01*
X965280Y924760D02*
X937280Y924760D01*
X115570Y781050D02*
X115570Y885190D01*
X16510Y885190D01*
X16510Y781050D01*
X115570Y781050D01*
X764540Y622300D02*
X840740Y622300D01*
X840740Y647700D01*
X764540Y647700D01*
X764540Y622300D01*
X765810Y687070D02*
X842010Y687070D01*
X842010Y712470D01*
X765810Y712470D01*
X765810Y687070D01*
X765810Y758190D02*
X842010Y758190D01*
X842010Y783590D01*
X765810Y783590D01*
X765810Y758190D01*
X520700Y810260D02*
X596900Y810260D01*
X596900Y835660D01*
X520700Y835660D01*
X520700Y810260D01*
X657860Y800100D02*
X657860Y723900D01*
X683260Y723900D01*
X683260Y800100D01*
X657860Y800100D01*
X302260Y886460D02*
X378460Y886460D01*
X378460Y911860D01*
X302260Y911860D01*
X302260Y886460D01*
X393700Y810260D02*
X469900Y810260D01*
X469900Y835660D01*
X393700Y835660D01*
X393700Y810260D01*
G54D12*
X176960Y841610D02*
X198960Y841610D01*
X198960Y855110D02*
X176960Y855110D01*
X176960Y841610D01*
X198960Y841610D02*
X198960Y855110D01*
X105759Y990700D02*
X155759Y990700D01*
X155759Y964700D01*
X105759Y964700D01*
X105759Y990700D01*
X155759Y922680D02*
X105759Y922680D01*
X105759Y948680D01*
X155759Y948680D01*
X155759Y922680D01*
X176960Y816210D02*
X198960Y816210D01*
X198960Y829710D02*
X176960Y829710D01*
X176960Y816210D01*
X198960Y816210D02*
X198960Y829710D01*
X106548Y759719D02*
X156548Y759719D01*
X156548Y733719D01*
X106548Y733719D01*
X106548Y759719D01*
X156548Y691699D02*
X106548Y691699D01*
X106548Y717699D01*
X156548Y717699D01*
X156548Y691699D01*
G54D13*
X320360Y853040D02*
X320360Y803040D01*
X360360Y803040D02*
X360360Y853040D01*
X337058Y853040D02*
X337060Y852774D01*
X337086Y852509D01*
X337134Y852247D01*
X337205Y851991D01*
X337298Y851742D01*
X337412Y851502D01*
X337547Y851272D01*
X337702Y851056D01*
X337874Y850853D01*
X338064Y850667D01*
X338269Y850497D01*
X338488Y850346D01*
X338720Y850215D01*
X338962Y850105D01*
X339213Y850016D01*
X339470Y849949D01*
X339733Y849905D01*
X339998Y849884D01*
X340264Y849886D01*
X340529Y849912D01*
X340791Y849960D01*
X341047Y850031D01*
X341296Y850124D01*
X341536Y850238D01*
X341766Y850373D01*
X341982Y850528D01*
X342185Y850700D01*
X342371Y850890D01*
X342541Y851095D01*
X342692Y851314D01*
X342823Y851546D01*
X342933Y851788D01*
X343022Y852039D01*
X343089Y852296D01*
X343133Y852559D01*
X343154Y852824D01*
X343154Y853040D01*
X333883Y853040D02*
X337058Y853040D01*
X334010Y853040D02*
X320360Y853040D01*
X360360Y853040D02*
X346710Y853040D01*
X346837Y853040D02*
X343154Y853040D01*
X320360Y803040D02*
X360360Y803040D01*
X726760Y853040D02*
X726760Y803040D01*
X766760Y803040D02*
X766760Y853040D01*
X743458Y853040D02*
X743460Y852774D01*
X743486Y852509D01*
X743534Y852247D01*
X743605Y851991D01*
X743698Y851742D01*
X743812Y851502D01*
X743947Y851272D01*
X744102Y851056D01*
X744274Y850853D01*
X744464Y850667D01*
X744669Y850497D01*
X744888Y850346D01*
X745120Y850215D01*
X745362Y850105D01*
X745613Y850016D01*
X745870Y849949D01*
X746133Y849905D01*
X746398Y849884D01*
X746664Y849886D01*
X746929Y849912D01*
X747191Y849960D01*
X747447Y850031D01*
X747696Y850124D01*
X747936Y850238D01*
X748166Y850373D01*
X748382Y850528D01*
X748585Y850700D01*
X748771Y850890D01*
X748941Y851095D01*
X749092Y851314D01*
X749223Y851546D01*
X749333Y851788D01*
X749422Y852039D01*
X749489Y852296D01*
X749533Y852559D01*
X749554Y852824D01*
X749554Y853040D01*
X740283Y853040D02*
X743458Y853040D01*
X740410Y853040D02*
X726760Y853040D01*
X766760Y853040D02*
X753110Y853040D01*
X753237Y853040D02*
X749554Y853040D01*
X726760Y803040D02*
X766760Y803040D01*
G54D14*
X850053Y888577D02*
X816187Y888577D01*
X816187Y909743D02*
X850053Y909743D01*
X850053Y888577D01*
X816187Y888577D02*
X816187Y909743D01*
X877147Y864023D02*
X911013Y864023D01*
X911013Y842857D02*
X877147Y842857D01*
X877147Y864023D01*
X911013Y864023D02*
X911013Y842857D01*
X325543Y763693D02*
X325543Y729827D01*
X304377Y729827D02*
X304377Y763693D01*
X325543Y763693D01*
X325543Y729827D02*
X304377Y729827D01*
X361103Y763693D02*
X361103Y729827D01*
X339937Y729827D02*
X339937Y763693D01*
X361103Y763693D01*
X361103Y729827D02*
X339937Y729827D01*
X786977Y913315D02*
X786977Y947181D01*
X808143Y947181D02*
X808143Y913315D01*
X786977Y913315D01*
X786977Y947181D02*
X808143Y947181D01*
X740619Y913315D02*
X740619Y947181D01*
X761785Y947181D02*
X761785Y913315D01*
X740619Y913315D01*
X740619Y947181D02*
X761785Y947181D01*
X911013Y888577D02*
X877147Y888577D01*
X877147Y909743D02*
X911013Y909743D01*
X911013Y888577D01*
X877147Y888577D02*
X877147Y909743D01*
X816187Y864023D02*
X850053Y864023D01*
X850053Y842857D02*
X816187Y842857D01*
X816187Y864023D01*
X850053Y864023D02*
X850053Y842857D01*
G54D15*
X-2540Y599440D02*
X-2540Y642113D01*
X-2540Y599440D02*
X99568Y599440D01*
X1018543Y599440D02*
X916435Y599440D01*
X1018543Y599440D02*
X1018543Y642113D01*
X1018543Y1026168D02*
X1018543Y983495D01*
X1018543Y1026168D02*
X916435Y1026168D01*
X-2540Y1026168D02*
X99568Y1026168D01*
X-2540Y1026168D02*
X-2540Y983495D01*
X-52540Y599440D02*
X-152540Y599440D01*
X-102540Y549440D02*
X-102540Y649440D01*
X-140040Y599440D02*
G75*
D01*
G02X-140040Y599440I37500J0*
G01*
X1068543Y599440D02*
X1168543Y599440D01*
X1118543Y549440D02*
X1118543Y649440D01*
X1081043Y599440D02*
G75*
D01*
G02X1081043Y599440I37500J0*
G01*
X1106043Y599440D02*
G75*
D01*
G02X1106043Y599440I12500J0*
G01*
X-52540Y1026168D02*
X-152540Y1026168D01*
X-102540Y976168D02*
X-102540Y1076168D01*
X-140040Y1026168D02*
G75*
D01*
G02X-140040Y1026168I37500J0*
G01*
X-127540Y1026168D02*
G75*
D01*
G02X-127540Y1026168I25000J0*
G01*
X-115040Y1026168D02*
G75*
D01*
G02X-115040Y1026168I12500J0*
G01*

M02*
