M48
METRIC,TZ
VER,1
FMAT,2
DETECT,ON
ATC,ON
T1C3.2000
T2C0.8890
T3C0.9949
T4C0.6000
T5C1.0000
%
T1
X660400Y355600
Y76200
X152400Y508000
X139700Y25400
T2
X457200Y508000
X584200
X609600
X558800
X508000
X533400
X482600
X340360
X365760
X391160
X289560
X314960
X264160
X238760
X213360
X187960
X457200Y25400
X330200
X304800
X355600
X406400
X381000
X431800
X533400
X558800
X609600
X584200
X635000
T3
X635000Y508000
X416560
X279400Y25400
X508000
T4
X508000Y213360
X805180Y347980
X800100Y109220
X464820Y71120
X558800Y111760
X614680Y149860
X840740Y22860
X843280Y515620
X508000Y159940
X441960Y137160
X485140Y236220
X619760Y264160
X706120Y180340
Y246380
X396240Y345440
X426720Y393700
X662940Y508000
X452120Y205740
X579120Y152400
X820420Y434340
X88900Y508000
X101600Y25400
X218440Y309880
T5
X538640Y411480
X507840
X535940Y269240
X510540
X787800Y273520
Y173520
X837800Y223520
X116840Y431800
X193040
X91440Y406400
X193040
X142240
X167640
X91440Y431800
X116840Y406400
X167640Y431800
X142240
X167640Y127000
X91440Y101600
X116840
X142240
X193040Y127000
Y101600
X167640
X91440Y127000
X116840
X142240
M30
