G04 Generated by Ultiboard 14.0 *
%FSLAX34Y34*%
%MOMM*%

%ADD10C,0.0001*%
%ADD11C,0.1270*%
%ADD12C,1.6088*%
%ADD13R,0.5291X0.5291*%
%ADD14C,0.9949*%
%ADD15C,1.0000*%
%ADD16C,1.3556*%
%ADD17R,0.5718X1.1857*%
%ADD18C,0.4232*%
%ADD19R,1.1857X0.5718*%
%ADD20R,2.2000X0.6000*%
%ADD21R,1.3556X1.3556*%
%ADD22R,0.6000X2.2000*%
%ADD23R,1.0500X1.4000*%


G04 ColorRGB FF00CC for the following layer *
%LNSolder Mask Top*%
%LPD*%
G54D10*
G54D11*
X53340Y-2540D02*
X53340Y51308D01*
X53340Y-2540D02*
X134874Y-2540D01*
X868680Y-2540D02*
X787146Y-2540D01*
X868680Y-2540D02*
X868680Y51308D01*
X868680Y535940D02*
X868680Y482092D01*
X868680Y535940D02*
X787146Y535940D01*
X53340Y535940D02*
X134874Y535940D01*
X53340Y535940D02*
X53340Y482092D01*
X3340Y-2540D02*
X-96660Y-2540D01*
X-46660Y-52540D02*
X-46660Y47460D01*
X-84160Y-2540D02*
G75*
D01*
G02X-84160Y-2540I37500J0*
G01*
X918680Y-2540D02*
X1018680Y-2540D01*
X968680Y-52540D02*
X968680Y47460D01*
X931180Y-2540D02*
G75*
D01*
G02X931180Y-2540I37500J0*
G01*
X956180Y-2540D02*
G75*
D01*
G02X956180Y-2540I12500J0*
G01*
X3340Y535940D02*
X-96660Y535940D01*
X-46660Y485940D02*
X-46660Y585940D01*
X-84160Y535940D02*
G75*
D01*
G02X-84160Y535940I37500J0*
G01*
X-71660Y535940D02*
G75*
D01*
G02X-71660Y535940I25000J0*
G01*
X-59160Y535940D02*
G75*
D01*
G02X-59160Y535940I12500J0*
G01*
G54D12*
X457200Y508000D03*
X584200Y508000D03*
X609600Y508000D03*
X558800Y508000D03*
X508000Y508000D03*
X533400Y508000D03*
X482600Y508000D03*
X340360Y508000D03*
X365760Y508000D03*
X391160Y508000D03*
X289560Y508000D03*
X314960Y508000D03*
X264160Y508000D03*
X238760Y508000D03*
X213360Y508000D03*
X187960Y508000D03*
X457200Y25400D03*
X330200Y25400D03*
X304800Y25400D03*
X355600Y25400D03*
X406400Y25400D03*
X381000Y25400D03*
X431800Y25400D03*
X533400Y25400D03*
X558800Y25400D03*
X609600Y25400D03*
X584200Y25400D03*
X635000Y25400D03*
G54D13*
X635000Y508000D03*
X416560Y508000D03*
X279400Y25400D03*
X508000Y25400D03*
G54D14*
X632355Y505355D02*
X637645Y505355D01*
X637645Y510645D01*
X632355Y510645D01*
X632355Y505355D01*D02*
X413915Y505355D02*
X419205Y505355D01*
X419205Y510645D01*
X413915Y510645D01*
X413915Y505355D01*D02*
X276755Y22755D02*
X282045Y22755D01*
X282045Y28045D01*
X276755Y28045D01*
X276755Y22755D01*D02*
X505355Y22755D02*
X510645Y22755D01*
X510645Y28045D01*
X505355Y28045D01*
X505355Y22755D01*D02*
G54D15*
X508000Y213360D03*
X805180Y347980D03*
X800100Y109220D03*
X464820Y71120D03*
X558800Y111760D03*
X614680Y149860D03*
X840740Y22860D03*
X843280Y515620D03*
X508000Y159940D03*
X441960Y137160D03*
X485140Y236220D03*
X619760Y264160D03*
X706120Y180340D03*
X706120Y246380D03*
X396240Y345440D03*
X426720Y393700D03*
X662940Y508000D03*
X452120Y205740D03*
X579120Y152400D03*
X820420Y434340D03*
X88900Y508000D03*
X101600Y25400D03*
X218440Y309880D03*
G54D16*
X538640Y411480D03*
X507840Y411480D03*
X535940Y269240D03*
X510540Y269240D03*
X787800Y273520D03*
X787800Y173520D03*
X837800Y223520D03*
X116840Y431800D03*
X193040Y431800D03*
X193040Y406400D03*
X142240Y406400D03*
X167640Y406400D03*
X91440Y431800D03*
X116840Y406400D03*
X167640Y431800D03*
X142240Y431800D03*
X167640Y127000D03*
X116840Y101600D03*
X142240Y101600D03*
X193040Y127000D03*
X193040Y101600D03*
X167640Y101600D03*
X91440Y127000D03*
X116840Y127000D03*
X142240Y127000D03*
G54D17*
X613833Y182880D03*
X595207Y182880D03*
X534247Y452120D03*
X552873Y452120D03*
X662136Y157480D03*
X643509Y157480D03*
X486833Y208280D03*
X468207Y208280D03*
X532553Y233680D03*
X513927Y233680D03*
X97367Y248920D03*
X115993Y248920D03*
X172720Y248920D03*
X191347Y248920D03*
X574887Y233680D03*
X593513Y233680D03*
X700193Y269240D03*
X681567Y269240D03*
X96520Y309880D03*
X115147Y309880D03*
X173567Y309880D03*
X192193Y309880D03*
X397087Y375920D03*
X415713Y375920D03*
X437727Y375920D03*
X456353Y375920D03*
X456353Y411480D03*
X437727Y411480D03*
X397087Y411480D03*
X415713Y411480D03*
X456353Y452120D03*
X437727Y452120D03*
X635847Y452120D03*
X654473Y452120D03*
X507153Y452120D03*
X488527Y452120D03*
G54D18*
X610974Y176952D02*
X616692Y176952D01*
X616692Y188808D01*
X610974Y188808D01*
X610974Y176952D01*D02*
X592348Y176952D02*
X598066Y176952D01*
X598066Y188808D01*
X592348Y188808D01*
X592348Y176952D01*D02*
X436032Y240134D02*
X447888Y240134D01*
X447888Y245852D01*
X436032Y245852D01*
X436032Y240134D01*D02*
X436032Y221508D02*
X447888Y221508D01*
X447888Y227226D01*
X436032Y227226D01*
X436032Y221508D01*D02*
X531388Y446192D02*
X537106Y446192D01*
X537106Y458048D01*
X531388Y458048D01*
X531388Y446192D01*D02*
X550014Y446192D02*
X555732Y446192D01*
X555732Y458048D01*
X550014Y458048D01*
X550014Y446192D01*D02*
X684952Y509374D02*
X696808Y509374D01*
X696808Y515092D01*
X684952Y515092D01*
X684952Y509374D01*D02*
X684952Y490748D02*
X696808Y490748D01*
X696808Y496466D01*
X684952Y496466D01*
X684952Y490748D01*D02*
X766444Y104668D02*
X778300Y104668D01*
X778300Y110386D01*
X766444Y110386D01*
X766444Y104668D01*D02*
X766444Y123294D02*
X778300Y123294D01*
X778300Y129012D01*
X766444Y129012D01*
X766444Y123294D01*D02*
X822112Y104668D02*
X833968Y104668D01*
X833968Y110386D01*
X822112Y110386D01*
X822112Y104668D01*D02*
X822112Y123294D02*
X833968Y123294D01*
X833968Y129012D01*
X822112Y129012D01*
X822112Y123294D01*D02*
X552872Y148694D02*
X564728Y148694D01*
X564728Y154412D01*
X552872Y154412D01*
X552872Y148694D01*D02*
X552872Y130068D02*
X564728Y130068D01*
X564728Y135786D01*
X552872Y135786D01*
X552872Y130068D01*D02*
X436032Y158177D02*
X447888Y158177D01*
X447888Y163895D01*
X436032Y163895D01*
X436032Y158177D01*D02*
X436032Y176804D02*
X447888Y176804D01*
X447888Y182522D01*
X436032Y182522D01*
X436032Y176804D01*D02*
X659277Y151552D02*
X664995Y151552D01*
X664995Y163408D01*
X659277Y163408D01*
X659277Y151552D01*D02*
X640650Y151552D02*
X646368Y151552D01*
X646368Y163408D01*
X640650Y163408D01*
X640650Y151552D01*D02*
X483974Y202352D02*
X489692Y202352D01*
X489692Y214208D01*
X483974Y214208D01*
X483974Y202352D01*D02*
X465348Y202352D02*
X471066Y202352D01*
X471066Y214208D01*
X465348Y214208D01*
X465348Y202352D01*D02*
X529694Y227752D02*
X535412Y227752D01*
X535412Y239608D01*
X529694Y239608D01*
X529694Y227752D01*D02*
X511068Y227752D02*
X516786Y227752D01*
X516786Y239608D01*
X511068Y239608D01*
X511068Y227752D01*D02*
X94508Y242992D02*
X100226Y242992D01*
X100226Y254848D01*
X94508Y254848D01*
X94508Y242992D01*D02*
X113134Y242992D02*
X118852Y242992D01*
X118852Y254848D01*
X113134Y254848D01*
X113134Y242992D01*D02*
X169861Y242992D02*
X175579Y242992D01*
X175579Y254848D01*
X169861Y254848D01*
X169861Y242992D01*D02*
X188488Y242992D02*
X194206Y242992D01*
X194206Y254848D01*
X188488Y254848D01*
X188488Y242992D01*D02*
X572028Y227752D02*
X577746Y227752D01*
X577746Y239608D01*
X572028Y239608D01*
X572028Y227752D01*D02*
X590654Y227752D02*
X596372Y227752D01*
X596372Y239608D01*
X590654Y239608D01*
X590654Y227752D01*D02*
X697334Y263312D02*
X703052Y263312D01*
X703052Y275168D01*
X697334Y275168D01*
X697334Y263312D01*D02*
X678708Y263312D02*
X684426Y263312D01*
X684426Y275168D01*
X678708Y275168D01*
X678708Y263312D01*D02*
X93661Y303952D02*
X99379Y303952D01*
X99379Y315808D01*
X93661Y315808D01*
X93661Y303952D01*D02*
X112288Y303952D02*
X118006Y303952D01*
X118006Y315808D01*
X112288Y315808D01*
X112288Y303952D01*D02*
X170708Y303952D02*
X176426Y303952D01*
X176426Y315808D01*
X170708Y315808D01*
X170708Y303952D01*D02*
X189334Y303952D02*
X195052Y303952D01*
X195052Y315808D01*
X189334Y315808D01*
X189334Y303952D01*D02*
X771312Y323108D02*
X783168Y323108D01*
X783168Y328826D01*
X771312Y328826D01*
X771312Y323108D01*D02*
X771312Y341734D02*
X783168Y341734D01*
X783168Y347452D01*
X771312Y347452D01*
X771312Y341734D01*D02*
X827404Y323108D02*
X839260Y323108D01*
X839260Y328826D01*
X827404Y328826D01*
X827404Y323108D01*D02*
X827404Y341734D02*
X839260Y341734D01*
X839260Y347452D01*
X827404Y347452D01*
X827404Y341734D01*D02*
X394228Y369992D02*
X399946Y369992D01*
X399946Y381848D01*
X394228Y381848D01*
X394228Y369992D01*D02*
X412854Y369992D02*
X418572Y369992D01*
X418572Y381848D01*
X412854Y381848D01*
X412854Y369992D01*D02*
X434868Y369992D02*
X440586Y369992D01*
X440586Y381848D01*
X434868Y381848D01*
X434868Y369992D01*D02*
X453494Y369992D02*
X459212Y369992D01*
X459212Y381848D01*
X453494Y381848D01*
X453494Y369992D01*D02*
X234111Y434964D02*
X245967Y434964D01*
X245967Y440682D01*
X234111Y440682D01*
X234111Y434964D01*D02*
X234111Y416337D02*
X245967Y416337D01*
X245967Y422055D01*
X234111Y422055D01*
X234111Y416337D01*D02*
X267310Y416337D02*
X279166Y416337D01*
X279166Y422055D01*
X267310Y422055D01*
X267310Y416337D01*D02*
X267310Y434964D02*
X279166Y434964D01*
X279166Y440682D01*
X267310Y440682D01*
X267310Y434964D01*D02*
X453494Y405552D02*
X459212Y405552D01*
X459212Y417408D01*
X453494Y417408D01*
X453494Y405552D01*D02*
X434868Y405552D02*
X440586Y405552D01*
X440586Y417408D01*
X434868Y417408D01*
X434868Y405552D01*D02*
X394228Y405552D02*
X399946Y405552D01*
X399946Y417408D01*
X394228Y417408D01*
X394228Y405552D01*D02*
X412854Y405552D02*
X418572Y405552D01*
X418572Y417408D01*
X412854Y417408D01*
X412854Y405552D01*D02*
X453494Y446192D02*
X459212Y446192D01*
X459212Y458048D01*
X453494Y458048D01*
X453494Y446192D01*D02*
X434868Y446192D02*
X440586Y446192D01*
X440586Y458048D01*
X434868Y458048D01*
X434868Y446192D01*D02*
X588432Y450108D02*
X600288Y450108D01*
X600288Y455826D01*
X588432Y455826D01*
X588432Y450108D01*D02*
X588432Y468734D02*
X600288Y468734D01*
X600288Y474452D01*
X588432Y474452D01*
X588432Y468734D01*D02*
X632988Y446192D02*
X638706Y446192D01*
X638706Y458048D01*
X632988Y458048D01*
X632988Y446192D01*D02*
X651614Y446192D02*
X657332Y446192D01*
X657332Y458048D01*
X651614Y458048D01*
X651614Y446192D01*D02*
X684952Y429788D02*
X696808Y429788D01*
X696808Y435506D01*
X684952Y435506D01*
X684952Y429788D01*D02*
X684952Y448414D02*
X696808Y448414D01*
X696808Y454132D01*
X684952Y454132D01*
X684952Y448414D01*D02*
X504294Y446192D02*
X510012Y446192D01*
X510012Y458048D01*
X504294Y458048D01*
X504294Y446192D01*D02*
X485668Y446192D02*
X491386Y446192D01*
X491386Y458048D01*
X485668Y458048D01*
X485668Y446192D01*D02*
G54D19*
X441960Y242993D03*
X441960Y224367D03*
X690880Y512233D03*
X690880Y493607D03*
X772372Y107527D03*
X772372Y126153D03*
X828040Y107527D03*
X828040Y126153D03*
X558800Y151553D03*
X558800Y132927D03*
X441960Y161036D03*
X441960Y179663D03*
X777240Y325967D03*
X777240Y344593D03*
X833332Y325967D03*
X833332Y344593D03*
X240039Y437823D03*
X240039Y419196D03*
X273238Y419196D03*
X273238Y437823D03*
X594360Y452967D03*
X594360Y471593D03*
X690880Y432647D03*
X690880Y451273D03*
G54D20*
X629320Y204470D03*
X629320Y217170D03*
X681320Y204470D03*
X681320Y217170D03*
X629320Y229870D03*
X629320Y242570D03*
X681320Y229870D03*
X681320Y242570D03*
G54D21*
X91440Y406400D03*
X91440Y101600D03*
G54D22*
X494030Y131480D03*
X519430Y131480D03*
X506730Y131480D03*
X532130Y131480D03*
X494030Y183480D03*
X519430Y183480D03*
X506730Y183480D03*
X532130Y183480D03*
G54D23*
X727312Y208280D03*
X746312Y208280D03*
X727312Y238760D03*
X746312Y238760D03*

M02*
