G04 Generated by Ultiboard 14.0 *
%FSLAX34Y34*%
%MOMM*%

%ADD10C,0.0001*%
%ADD11C,0.0010*%
%ADD12C,0.2540*%
%ADD13C,1.0000*%
%ADD14C,0.1270*%
%ADD15C,1.6088*%
%ADD16R,0.5291X0.5291*%
%ADD17C,0.9949*%
%ADD18C,1.0000*%
%ADD19C,1.3556*%
%ADD20R,1.3556X1.3556*%


G04 ColorRGB 0000FF for the following layer *
%LNCopper Bottom*%
%LPD*%
G54D10*
G36*
X290523Y20295D02*
X290523Y20295D01*
X294101Y20295D01*
G75*
D01*
G03X308756Y14225I10699J5104*
G01*
X308756Y14225D01*
X318971Y4011D01*
G74*
D01*
G03X319162Y3828I3625J3592*
G01*
X319162Y3828D01*
X67103Y3828D01*
G74*
D01*
G03X66040Y3979I1063J3667*
G01*
G74*
D01*
G02X59859Y10160I0J6181*
G01*
G74*
D01*
G03X59708Y11223I3819J0*
G01*
X59708Y11223D01*
X59708Y522177D01*
G74*
D01*
G03X59859Y523240I3667J1063*
G01*
G74*
D01*
G02X66040Y529421I6181J0*
G01*
G74*
D01*
G03X67103Y529572I0J3819*
G01*
X67103Y529572D01*
X855980Y529572D01*
G74*
D01*
G03X856185Y529577I9J3828*
G01*
G74*
D01*
G02X862317Y523445I204J6336*
G01*
G74*
D01*
G03X862312Y523240I3823J196*
G01*
X862312Y523240D01*
X862312Y361973D01*
X741680Y361973D01*
G75*
D01*
G03X737847Y358140I0J-3833*
G01*
X737847Y358140D01*
X737847Y301013D01*
X427565Y301013D01*
X401345Y327234D01*
X401345Y338260D01*
G75*
D01*
G03X391135Y338260I-5105J7179*
G01*
X391135Y338260D01*
X391135Y325129D01*
G75*
D01*
G03X392631Y321511I5105J-7*
G01*
X392631Y321511D01*
X417807Y296334D01*
X417807Y101600D01*
G75*
D01*
G03X421640Y97767I3833J0*
G01*
X421640Y97767D01*
X422947Y97767D01*
X422947Y33284D01*
G75*
D01*
G03X440653Y33284I8853J-7883*
G01*
X440653Y33284D01*
X440653Y97767D01*
X574040Y97767D01*
G75*
D01*
G03X577873Y101600I0J3833*
G01*
X577873Y101600D01*
X577873Y135867D01*
X588434Y135867D01*
X601955Y122346D01*
X601955Y80854D01*
X597326Y76225D01*
X472000Y76225D01*
G75*
D01*
G03X472000Y66015I-7179J-5105*
G01*
X472000Y66015D01*
X599433Y66015D01*
G75*
D01*
G03X600947Y66243I5J5105*
G01*
G74*
D01*
G03X603055Y67517I1508J4876*
G01*
X603055Y67517D01*
X610663Y75125D01*
G75*
D01*
G03X612165Y78740I-3601J3616*
G01*
X612165Y78740D01*
X612165Y124460D01*
G74*
D01*
G03X610663Y128075I5105J2*
G01*
X610663Y128075D01*
X602872Y135867D01*
X722607Y135867D01*
X722607Y93980D01*
G75*
D01*
G03X726440Y90147I3833J0*
G01*
X726440Y90147D01*
X862312Y90147D01*
X862312Y10160D01*
G75*
D01*
G03X862317Y9955I3828J-9*
G01*
G74*
D01*
G02X856185Y3823I6336J204*
G01*
G74*
D01*
G03X855980Y3828I196J3823*
G01*
X855980Y3828D01*
X341238Y3828D01*
G74*
D01*
G03X341435Y4017I3434J3777*
G01*
X341435Y4017D01*
X351644Y14225D01*
G75*
D01*
G03X344425Y21444I3956J11175*
G01*
X344425Y21444D01*
X335706Y12725D01*
X324694Y12725D01*
X315975Y21444D01*
G75*
D01*
G03X294101Y30505I-11171J3966*
G01*
X294101Y30505D01*
X290523Y30505D01*
G74*
D01*
G03X282045Y36873I8478J2459*
G01*
X282045Y36873D01*
X276755Y36873D01*
G75*
D01*
G03X268277Y30505I0J-8828*
G01*
X268277Y30505D01*
X202774Y30505D01*
X168715Y64563D01*
G74*
D01*
G03X165947Y65994I3616J3601*
G01*
G75*
D01*
G03X165095Y66065I-848J-5033*
G01*
X165095Y66065D01*
X85934Y66065D01*
X73685Y78314D01*
X73685Y102026D01*
X80942Y109283D01*
G74*
D01*
G03X80834Y108378I3720J903*
G01*
X80834Y108378D01*
X80834Y105361D01*
X87679Y105361D01*
X87679Y112206D01*
X84662Y112206D01*
G75*
D01*
G03X83757Y112098I-2J-3828*
G01*
X83757Y112098D01*
X88490Y116831D01*
G75*
D01*
G03X81271Y124050I2950J10169*
G01*
X81271Y124050D01*
X64971Y107749D01*
G75*
D01*
G03X63475Y104130I3607J-3610*
G01*
X63475Y104130D01*
X63475Y76211D01*
G75*
D01*
G03X64971Y72591I5105J-9*
G01*
X64971Y72591D01*
X80211Y57351D01*
G74*
D01*
G03X82169Y56130I3609J3607*
G01*
G75*
D01*
G03X83820Y55855I1653J4829*
G01*
X83820Y55855D01*
X162986Y55855D01*
X197051Y21791D01*
G74*
D01*
G03X199037Y20560I3610J3607*
G01*
G75*
D01*
G03X200660Y20295I1623J4839*
G01*
X200660Y20295D01*
X268277Y20295D01*
G75*
D01*
G03X276755Y13928I8477J2460*
G01*
X276755Y13928D01*
X282045Y13928D01*
G74*
D01*
G03X290523Y20295I1J8827*
G01*
D02*
G37*
%LPC*%
G36*
X170590Y441969D02*
G75*
D01*
G03X177809Y434750I-2950J-10169*
G01*
X177809Y434750D01*
X239213Y496154D01*
G75*
D01*
G03X229377Y500756I-452J11845*
G01*
X229377Y500756D01*
X170590Y441969D01*
D02*
G37*
G36*
X145190Y441969D02*
G75*
D01*
G03X152409Y434750I-2950J-10169*
G01*
X152409Y434750D01*
X213813Y496154D01*
G75*
D01*
G03X203977Y500756I-452J11845*
G01*
X203977Y500756D01*
X145190Y441969D01*
D02*
G37*
G36*
X119790Y441969D02*
G75*
D01*
G03X127009Y434750I-2950J-10169*
G01*
X127009Y434750D01*
X188413Y496154D01*
G75*
D01*
G03X178577Y500756I-452J11845*
G01*
X178577Y500756D01*
X119790Y441969D01*
D02*
G37*
G36*
X278385Y504044D02*
X278385Y504044D01*
X250513Y476172D01*
X249346Y475005D01*
X231143Y475005D01*
G75*
D01*
G03X227531Y473509I-1J-5105*
G01*
X227531Y473509D01*
X195990Y441969D01*
G75*
D01*
G03X203209Y434750I-2950J-10169*
G01*
X203209Y434750D01*
X233254Y464795D01*
X251460Y464795D01*
G74*
D01*
G03X255075Y466297I2J5105*
G01*
X255075Y466297D01*
X285604Y496825D01*
G75*
D01*
G03X278385Y504044I3956J11175*
G01*
D02*
G37*
G36*
X216975Y402797D02*
X216975Y402797D01*
X290351Y476172D01*
X292052Y477873D01*
X292052Y477873D01*
X311004Y496825D01*
G75*
D01*
G03X303785Y504044I3956J11175*
G01*
X303785Y504044D01*
X292052Y492311D01*
X275913Y476172D01*
X211246Y411505D01*
X202316Y411505D01*
G75*
D01*
G03X202316Y401295I-9275J-5105*
G01*
X202316Y401295D01*
X213360Y401295D01*
G74*
D01*
G03X216975Y402797I2J5105*
G01*
D02*
G37*
G36*
X532052Y519777D02*
G75*
D01*
G03X532052Y519777I1348J-11777*
G01*
D02*
G37*
G36*
X335255Y497301D02*
X335255Y497301D01*
X335255Y426294D01*
X292526Y383565D01*
X197694Y383565D01*
X177809Y403450D01*
G75*
D01*
G03X170590Y396231I-10169J2950*
G01*
X170590Y396231D01*
X191971Y374851D01*
G74*
D01*
G03X194594Y373452I3609J3608*
G01*
G75*
D01*
G03X195580Y373355I990J5007*
G01*
X195580Y373355D01*
X294632Y373355D01*
G75*
D01*
G03X296370Y373658I5J5105*
G01*
G74*
D01*
G03X298255Y374857I1730J4802*
G01*
X298255Y374857D01*
X343963Y420565D01*
G75*
D01*
G03X345465Y424180I-3601J3616*
G01*
X345465Y424180D01*
X345465Y497301D01*
G75*
D01*
G03X335255Y497301I-5105J10698*
G01*
D02*
G37*
G36*
X360655Y497301D02*
X360655Y497301D01*
X360655Y426294D01*
X302686Y368325D01*
X187534Y368325D01*
X152409Y403450D01*
G75*
D01*
G03X145190Y396231I-10169J2950*
G01*
X145190Y396231D01*
X181811Y359611D01*
G75*
D01*
G03X185428Y358115I3610J3607*
G01*
X185428Y358115D01*
X304800Y358115D01*
G74*
D01*
G03X308415Y359617I2J5105*
G01*
X308415Y359617D01*
X369363Y420565D01*
G75*
D01*
G03X370865Y424180I-3601J3616*
G01*
X370865Y424180D01*
X370865Y497301D01*
G75*
D01*
G03X360655Y497301I-5105J10698*
G01*
D02*
G37*
G36*
X386055Y497301D02*
X386055Y497301D01*
X386055Y421214D01*
X315386Y350545D01*
X179914Y350545D01*
X127009Y403450D01*
G75*
D01*
G03X119790Y396231I-10169J2950*
G01*
X119790Y396231D01*
X174191Y341831D01*
G75*
D01*
G03X177802Y340335I3610J3607*
G01*
X177802Y340335D01*
X317500Y340335D01*
G74*
D01*
G03X321115Y341837I2J5105*
G01*
X321115Y341837D01*
X394763Y415485D01*
G75*
D01*
G03X396265Y419100I-3601J3616*
G01*
X396265Y419100D01*
X396265Y497301D01*
G75*
D01*
G03X386055Y497301I-5105J10698*
G01*
D02*
G37*
G36*
X102046Y413178D02*
G74*
D01*
G03X98218Y417006I3828J0*
G01*
X98218Y417006D01*
X84662Y417006D01*
G75*
D01*
G03X80834Y413178I0J-3828*
G01*
X80834Y413178D01*
X80834Y399622D01*
G75*
D01*
G03X84662Y395794I3828J0*
G01*
X84662Y395794D01*
X94827Y395794D01*
X169111Y321511D01*
G75*
D01*
G03X172722Y320015I3610J3607*
G01*
X172722Y320015D01*
X327660Y320015D01*
G74*
D01*
G03X331275Y321517I2J5105*
G01*
X331275Y321517D01*
X420163Y410405D01*
G75*
D01*
G03X421665Y414020I-3601J3616*
G01*
X421665Y414020D01*
X421665Y496877D01*
G75*
D01*
G03X428033Y505355I-2459J8478*
G01*
X428033Y505355D01*
X428033Y510645D01*
G74*
D01*
G03X419205Y519473I8828J0*
G01*
X419205Y519473D01*
X413915Y519473D01*
G75*
D01*
G03X405088Y510645I1J-8828*
G01*
X405088Y510645D01*
X405088Y505355D01*
G75*
D01*
G03X411455Y496877I8827J-1*
G01*
X411455Y496877D01*
X411455Y416134D01*
X325546Y330225D01*
X174834Y330225D01*
X102046Y403013D01*
X102046Y413178D01*
D02*
G37*
G36*
X532052Y13623D02*
G75*
D01*
G03X532052Y13623I1348J11777*
G01*
D02*
G37*
G36*
X528740Y407725D02*
G74*
D01*
G03X534885Y401580I9900J3755*
G01*
X534885Y401580D01*
X534885Y407725D01*
X528740Y407725D01*
D02*
G37*
G36*
X528740Y415235D02*
X528740Y415235D01*
X534885Y415235D01*
X534885Y421380D01*
G74*
D01*
G03X528740Y415235I3755J9900*
G01*
D02*
G37*
G36*
X213335Y302700D02*
X213335Y302700D01*
X213335Y179914D01*
X170590Y137169D01*
G75*
D01*
G03X177809Y129950I-2950J-10169*
G01*
X177809Y129950D01*
X222043Y174185D01*
G75*
D01*
G03X223545Y177800I-3601J3616*
G01*
X223545Y177800D01*
X223545Y302700D01*
G75*
D01*
G03X213335Y302700I-5105J7179*
G01*
D02*
G37*
G36*
X299720Y60985D02*
X299720Y60985D01*
X215474Y60985D01*
X177809Y98650D01*
G75*
D01*
G03X170590Y91431I-10169J2950*
G01*
X170590Y91431D01*
X209751Y52271D01*
G75*
D01*
G03X213368Y50775I3610J3607*
G01*
X213368Y50775D01*
X297606Y50775D01*
X319025Y29356D01*
G75*
D01*
G03X326244Y36575I11175J-3956*
G01*
X326244Y36575D01*
X303335Y59483D01*
G74*
D01*
G03X299720Y60985I3616J3601*
G01*
D02*
G37*
G36*
X835043Y518744D02*
X835043Y518744D01*
X840156Y518744D01*
X840156Y523857D01*
G74*
D01*
G03X835043Y518744I3124J8237*
G01*
D02*
G37*
G36*
X840156Y507383D02*
X840156Y507383D01*
X840156Y512496D01*
X835043Y512496D01*
G74*
D01*
G03X840156Y507383I8237J3124*
G01*
D02*
G37*
G36*
X846404Y523857D02*
X846404Y523857D01*
X846404Y518744D01*
X851517Y518744D01*
G74*
D01*
G03X846404Y523857I8237J3124*
G01*
D02*
G37*
G36*
X851517Y512496D02*
X851517Y512496D01*
X846404Y512496D01*
X846404Y507383D01*
G74*
D01*
G03X851517Y512496I3124J8237*
G01*
D02*
G37*
G36*
X840280Y515620D02*
G75*
D01*
G03X840280Y515620I3000J0*
G01*
D02*
G37*
G36*
X837740Y22860D02*
G75*
D01*
G03X837740Y22860I3000J0*
G01*
D02*
G37*
G36*
X837616Y14623D02*
X837616Y14623D01*
X837616Y19736D01*
X832503Y19736D01*
G74*
D01*
G03X837616Y14623I8237J3124*
G01*
D02*
G37*
G36*
X848977Y19736D02*
X848977Y19736D01*
X843864Y19736D01*
X843864Y14623D01*
G74*
D01*
G03X848977Y19736I3124J8237*
G01*
D02*
G37*
G36*
X832503Y25984D02*
X832503Y25984D01*
X837616Y25984D01*
X837616Y31097D01*
G74*
D01*
G03X832503Y25984I3124J8237*
G01*
D02*
G37*
G36*
X843864Y31097D02*
X843864Y31097D01*
X843864Y25984D01*
X848977Y25984D01*
G74*
D01*
G03X843864Y31097I8237J3124*
G01*
D02*
G37*
G36*
X828657Y431216D02*
X828657Y431216D01*
X823544Y431216D01*
X823544Y426103D01*
G74*
D01*
G03X828657Y431216I3124J8237*
G01*
D02*
G37*
G36*
X812183Y437464D02*
X812183Y437464D01*
X817296Y437464D01*
X817296Y442577D01*
G74*
D01*
G03X812183Y437464I3124J8237*
G01*
D02*
G37*
G36*
X817420Y434340D02*
G75*
D01*
G03X817420Y434340I3000J0*
G01*
D02*
G37*
G36*
X817296Y426103D02*
X817296Y426103D01*
X817296Y431216D01*
X812183Y431216D01*
G74*
D01*
G03X817296Y426103I8237J3124*
G01*
D02*
G37*
G36*
X823544Y442577D02*
X823544Y442577D01*
X823544Y437464D01*
X828657Y437464D01*
G74*
D01*
G03X823544Y442577I8237J3124*
G01*
D02*
G37*
G36*
X97137Y504876D02*
X97137Y504876D01*
X92024Y504876D01*
X92024Y499763D01*
G74*
D01*
G03X97137Y504876I3124J8237*
G01*
D02*
G37*
G36*
X85776Y499763D02*
X85776Y499763D01*
X85776Y504876D01*
X80663Y504876D01*
G74*
D01*
G03X85776Y499763I8237J3124*
G01*
D02*
G37*
G36*
X132590Y508000D02*
G75*
D01*
G03X132590Y508000I19810J0*
G01*
D02*
G37*
G36*
X252306Y508000D02*
G75*
D01*
G03X252306Y508000I11854J0*
G01*
D02*
G37*
G36*
X80663Y511124D02*
X80663Y511124D01*
X85776Y511124D01*
X85776Y516237D01*
G74*
D01*
G03X80663Y511124I3124J8237*
G01*
D02*
G37*
G36*
X92024Y516237D02*
X92024Y516237D01*
X92024Y511124D01*
X97137Y511124D01*
G74*
D01*
G03X92024Y516237I8237J3124*
G01*
D02*
G37*
G36*
X85900Y508000D02*
G75*
D01*
G03X85900Y508000I3000J0*
G01*
D02*
G37*
G36*
X546946Y508000D02*
G75*
D01*
G03X546946Y508000I11854J0*
G01*
D02*
G37*
G36*
X572346Y508000D02*
G75*
D01*
G03X572346Y508000I11854J0*
G01*
D02*
G37*
G36*
X597746Y508000D02*
G75*
D01*
G03X597746Y508000I11854J0*
G01*
D02*
G37*
G36*
X646473Y505355D02*
X646473Y505355D01*
X646473Y510645D01*
G74*
D01*
G03X637645Y519473I8828J0*
G01*
X637645Y519473D01*
X632355Y519473D01*
G75*
D01*
G03X623528Y510645I1J-8828*
G01*
X623528Y510645D01*
X623528Y505355D01*
G75*
D01*
G03X632355Y496528I8827J0*
G01*
X632355Y496528D01*
X637645Y496528D01*
G75*
D01*
G03X646473Y505355I1J8827*
G01*
D02*
G37*
G36*
X654130Y508000D02*
G75*
D01*
G03X654130Y508000I8810J0*
G01*
D02*
G37*
G36*
X445346Y508000D02*
G75*
D01*
G03X445346Y508000I11854J0*
G01*
D02*
G37*
G36*
X470746Y508000D02*
G75*
D01*
G03X470746Y508000I11854J0*
G01*
D02*
G37*
G36*
X496146Y508000D02*
G75*
D01*
G03X496146Y508000I11854J0*
G01*
D02*
G37*
G36*
X546946Y25400D02*
G75*
D01*
G03X546946Y25400I11854J0*
G01*
D02*
G37*
G36*
X572346Y25400D02*
G75*
D01*
G03X572346Y25400I11854J0*
G01*
D02*
G37*
G36*
X597746Y25400D02*
G75*
D01*
G03X597746Y25400I11854J0*
G01*
D02*
G37*
G36*
X623146Y25400D02*
G75*
D01*
G03X623146Y25400I11854J0*
G01*
D02*
G37*
G36*
X640590Y76200D02*
G75*
D01*
G03X640590Y76200I19810J0*
G01*
D02*
G37*
G36*
X548540Y407725D02*
X548540Y407725D01*
X542395Y407725D01*
X542395Y401580D01*
G74*
D01*
G03X548540Y407725I3755J9900*
G01*
D02*
G37*
G36*
X640590Y355600D02*
G75*
D01*
G03X640590Y355600I19810J0*
G01*
D02*
G37*
G36*
X533640Y411480D02*
G75*
D01*
G03X533640Y411480I5000J0*
G01*
D02*
G37*
G36*
X542395Y421380D02*
X542395Y421380D01*
X542395Y415235D01*
X548540Y415235D01*
G74*
D01*
G03X542395Y421380I9900J3755*
G01*
D02*
G37*
G36*
X182452Y127000D02*
G75*
D01*
G03X182452Y127000I10588J0*
G01*
D02*
G37*
G36*
X98476Y17163D02*
X98476Y17163D01*
X98476Y22276D01*
X93363Y22276D01*
G74*
D01*
G03X98476Y17163I8237J3124*
G01*
D02*
G37*
G36*
X109837Y22276D02*
X109837Y22276D01*
X104724Y22276D01*
X104724Y17163D01*
G74*
D01*
G03X109837Y22276I3124J8237*
G01*
D02*
G37*
G36*
X119890Y25400D02*
G75*
D01*
G03X119890Y25400I19810J0*
G01*
D02*
G37*
G36*
X102046Y108378D02*
G74*
D01*
G03X98218Y112206I3828J0*
G01*
X98218Y112206D01*
X95201Y112206D01*
X95201Y105361D01*
X102046Y105361D01*
X102046Y108378D01*
D02*
G37*
G36*
X86440Y101600D02*
G75*
D01*
G03X86440Y101600I5000J0*
G01*
D02*
G37*
G36*
X98600Y25400D02*
G75*
D01*
G03X98600Y25400I3000J0*
G01*
D02*
G37*
G36*
X93363Y28524D02*
X93363Y28524D01*
X98476Y28524D01*
X98476Y33637D01*
G74*
D01*
G03X93363Y28524I3124J8237*
G01*
D02*
G37*
G36*
X104724Y33637D02*
X104724Y33637D01*
X104724Y28524D01*
X109837Y28524D01*
G74*
D01*
G03X104724Y33637I8237J3124*
G01*
D02*
G37*
G36*
X98218Y90994D02*
G75*
D01*
G03X102046Y94822I0J3828*
G01*
X102046Y94822D01*
X102046Y97839D01*
X95201Y97839D01*
X95201Y90994D01*
X98218Y90994D01*
D02*
G37*
G36*
X80834Y94822D02*
G75*
D01*
G03X84662Y90994I3828J0*
G01*
X84662Y90994D01*
X87679Y90994D01*
X87679Y97839D01*
X80834Y97839D01*
X80834Y94822D01*
D02*
G37*
G36*
X111840Y101600D02*
G75*
D01*
G03X111840Y101600I5000J0*
G01*
D02*
G37*
G36*
X113085Y91700D02*
X113085Y91700D01*
X113085Y97845D01*
X106940Y97845D01*
G74*
D01*
G03X113085Y91700I9900J3755*
G01*
D02*
G37*
G36*
X137240Y101600D02*
G75*
D01*
G03X137240Y101600I5000J0*
G01*
D02*
G37*
G36*
X126740Y97845D02*
X126740Y97845D01*
X120595Y97845D01*
X120595Y91700D01*
G74*
D01*
G03X126740Y97845I3755J9900*
G01*
D02*
G37*
G36*
X138485Y91700D02*
X138485Y91700D01*
X138485Y97845D01*
X132340Y97845D01*
G74*
D01*
G03X138485Y91700I9900J3755*
G01*
D02*
G37*
G36*
X152140Y97845D02*
X152140Y97845D01*
X145995Y97845D01*
X145995Y91700D01*
G74*
D01*
G03X152140Y97845I3755J9900*
G01*
D02*
G37*
G36*
X182452Y101600D02*
G75*
D01*
G03X182452Y101600I10588J0*
G01*
D02*
G37*
G36*
X106252Y127000D02*
G75*
D01*
G03X106252Y127000I10588J0*
G01*
D02*
G37*
G36*
X106940Y105355D02*
X106940Y105355D01*
X113085Y105355D01*
X113085Y111500D01*
G74*
D01*
G03X106940Y105355I3755J9900*
G01*
D02*
G37*
G36*
X131652Y127000D02*
G75*
D01*
G03X131652Y127000I10588J0*
G01*
D02*
G37*
G36*
X120595Y111500D02*
X120595Y111500D01*
X120595Y105355D01*
X126740Y105355D01*
G74*
D01*
G03X120595Y111500I9900J3755*
G01*
D02*
G37*
G36*
X132340Y105355D02*
X132340Y105355D01*
X138485Y105355D01*
X138485Y111500D01*
G74*
D01*
G03X132340Y105355I3755J9900*
G01*
D02*
G37*
G36*
X145995Y111500D02*
X145995Y111500D01*
X145995Y105355D01*
X152140Y105355D01*
G74*
D01*
G03X145995Y111500I9900J3755*
G01*
D02*
G37*
G36*
X81540Y435555D02*
X81540Y435555D01*
X87685Y435555D01*
X87685Y441700D01*
G74*
D01*
G03X81540Y435555I3755J9900*
G01*
D02*
G37*
G36*
X95195Y441700D02*
X95195Y441700D01*
X95195Y435555D01*
X101340Y435555D01*
G74*
D01*
G03X95195Y441700I9900J3755*
G01*
D02*
G37*
G36*
X101340Y428045D02*
X101340Y428045D01*
X95195Y428045D01*
X95195Y421900D01*
G74*
D01*
G03X101340Y428045I3755J9900*
G01*
D02*
G37*
G36*
X87685Y421900D02*
X87685Y421900D01*
X87685Y428045D01*
X81540Y428045D01*
G74*
D01*
G03X87685Y421900I9900J3755*
G01*
D02*
G37*
G36*
X86440Y431800D02*
G75*
D01*
G03X86440Y431800I5000J0*
G01*
D02*
G37*
G36*
X369146Y25400D02*
G75*
D01*
G03X369146Y25400I11854J0*
G01*
D02*
G37*
G36*
X402196Y14316D02*
X402196Y14316D01*
X402196Y21196D01*
X395316Y21196D01*
G74*
D01*
G03X402196Y14316I11084J4204*
G01*
D02*
G37*
G36*
X417484Y21196D02*
X417484Y21196D01*
X410604Y21196D01*
X410604Y14316D01*
G74*
D01*
G03X417484Y21196I4204J11084*
G01*
D02*
G37*
G36*
X445346Y25400D02*
G75*
D01*
G03X445346Y25400I11854J0*
G01*
D02*
G37*
G36*
X496528Y28045D02*
X496528Y28045D01*
X496528Y22755D01*
G75*
D01*
G03X505355Y13928I8827J0*
G01*
X505355Y13928D01*
X510645Y13928D01*
G75*
D01*
G03X519473Y22755I1J8827*
G01*
X519473Y22755D01*
X519473Y28045D01*
G74*
D01*
G03X510645Y36873I8828J0*
G01*
X510645Y36873D01*
X505355Y36873D01*
G75*
D01*
G03X496528Y28045I1J-8828*
G01*
D02*
G37*
G36*
X395316Y29604D02*
X395316Y29604D01*
X402196Y29604D01*
X402196Y36484D01*
G74*
D01*
G03X395316Y29604I4204J11084*
G01*
D02*
G37*
G36*
X410604Y36484D02*
X410604Y36484D01*
X410604Y29604D01*
X417484Y29604D01*
G74*
D01*
G03X410604Y36484I11084J4204*
G01*
D02*
G37*
G36*
X401955Y25400D02*
G75*
D01*
G03X401955Y25400I4445J0*
G01*
D02*
G37*
G36*
X418483Y396824D02*
X418483Y396824D01*
X423596Y396824D01*
X423596Y401937D01*
G74*
D01*
G03X418483Y396824I3124J8237*
G01*
D02*
G37*
G36*
X423596Y385463D02*
X423596Y385463D01*
X423596Y390576D01*
X418483Y390576D01*
G74*
D01*
G03X423596Y385463I8237J3124*
G01*
D02*
G37*
G36*
X429844Y401937D02*
X429844Y401937D01*
X429844Y396824D01*
X434957Y396824D01*
G74*
D01*
G03X429844Y401937I8237J3124*
G01*
D02*
G37*
G36*
X434957Y390576D02*
X434957Y390576D01*
X429844Y390576D01*
X429844Y385463D01*
G74*
D01*
G03X434957Y390576I3124J8237*
G01*
D02*
G37*
G36*
X423720Y393700D02*
G75*
D01*
G03X423720Y393700I3000J0*
G01*
D02*
G37*
G36*
X497252Y411480D02*
G75*
D01*
G03X497252Y411480I10588J0*
G01*
D02*
G37*
%LPD*%
G36*
X477834Y238105D02*
X477834Y238105D01*
X421640Y294299D01*
X421640Y101600D01*
X574040Y101600D01*
X574040Y139700D01*
X586399Y139700D01*
X581005Y145094D01*
G75*
D01*
G02X586426Y150515I-1885J7306*
G01*
X586426Y150515D01*
X597241Y139700D01*
X726440Y139700D01*
X726440Y93980D01*
X863583Y93980D01*
X863583Y358140D01*
X741680Y358140D01*
X741680Y297180D01*
X429601Y297180D01*
X483255Y243526D01*
G75*
D01*
G02X477834Y238105I1885J-7306*
G01*
D02*
G37*
%LPC*%
G36*
X535880Y278563D02*
G75*
D01*
G02X535880Y278563I60J-9323*
G01*
D02*
G37*
G36*
X708796Y239325D02*
X708796Y239325D01*
X708796Y243704D01*
X713175Y243704D01*
G74*
D01*
G02X708796Y239325I7055J2676*
G01*
D02*
G37*
G36*
X699065Y243704D02*
X699065Y243704D01*
X703444Y243704D01*
X703444Y239325D01*
G74*
D01*
G02X699065Y243704I2676J7055*
G01*
D02*
G37*
G36*
X501217Y269240D02*
G75*
D01*
G02X501217Y269240I9323J0*
G01*
D02*
G37*
G36*
X802180Y347980D02*
G75*
D01*
G02X802180Y347980I3000J0*
G01*
D02*
G37*
G36*
X778477Y273520D02*
G75*
D01*
G02X778477Y273520I9323J0*
G01*
D02*
G37*
G36*
X798125Y350656D02*
G74*
D01*
G02X802504Y355035I7055J2676*
G01*
X802504Y355035D01*
X802504Y350656D01*
X798125Y350656D01*
D02*
G37*
G36*
X802504Y340925D02*
G74*
D01*
G02X798125Y345304I2676J7055*
G01*
X798125Y345304D01*
X802504Y345304D01*
X802504Y340925D01*
D02*
G37*
G36*
X807856Y355035D02*
G74*
D01*
G02X812235Y350656I2676J7055*
G01*
X812235Y350656D01*
X807856Y350656D01*
X807856Y355035D01*
D02*
G37*
G36*
X812235Y345304D02*
G74*
D01*
G02X807856Y340925I7055J2676*
G01*
X807856Y340925D01*
X807856Y345304D01*
X812235Y345304D01*
D02*
G37*
G36*
X841551Y226826D02*
G75*
D01*
G02X841551Y220214I-3750J-3306*
G01*
X841551Y220214D01*
X846517Y220214D01*
G74*
D01*
G02X841106Y214803I8716J3305*
G01*
X841106Y214803D01*
X841106Y219769D01*
G75*
D01*
G02X834494Y219769I-3306J3750*
G01*
X834494Y219769D01*
X834494Y214803D01*
G74*
D01*
G02X829083Y220214I3305J8716*
G01*
X829083Y220214D01*
X834049Y220214D01*
G75*
D01*
G02X834049Y226826I3750J3306*
G01*
X834049Y226826D01*
X829083Y226826D01*
G74*
D01*
G02X834494Y232237I8716J3305*
G01*
X834494Y232237D01*
X834494Y227271D01*
G75*
D01*
G02X841106Y227271I3306J-3750*
G01*
X841106Y227271D01*
X841106Y232237D01*
G74*
D01*
G02X846517Y226826I3305J8716*
G01*
X846517Y226826D01*
X841551Y226826D01*
D02*
G37*
G36*
X797100Y109220D02*
G75*
D01*
G02X797100Y109220I3000J0*
G01*
D02*
G37*
G36*
X793045Y111896D02*
G74*
D01*
G02X797424Y116275I7055J2676*
G01*
X797424Y116275D01*
X797424Y111896D01*
X793045Y111896D01*
D02*
G37*
G36*
X797424Y102165D02*
G74*
D01*
G02X793045Y106544I2676J7055*
G01*
X793045Y106544D01*
X797424Y106544D01*
X797424Y102165D01*
D02*
G37*
G36*
X802776Y116275D02*
G74*
D01*
G02X807155Y111896I2676J7055*
G01*
X807155Y111896D01*
X802776Y111896D01*
X802776Y116275D01*
D02*
G37*
G36*
X807155Y106544D02*
G74*
D01*
G02X802776Y102165I7055J2676*
G01*
X802776Y102165D01*
X802776Y106544D01*
X807155Y106544D01*
D02*
G37*
G36*
X778477Y173520D02*
G75*
D01*
G02X778477Y173520I9323J0*
G01*
D02*
G37*
G36*
X434905Y139836D02*
G74*
D01*
G02X439284Y144215I7055J2676*
G01*
X439284Y144215D01*
X439284Y139836D01*
X434905Y139836D01*
D02*
G37*
G36*
X438960Y137160D02*
G75*
D01*
G02X438960Y137160I3000J0*
G01*
D02*
G37*
G36*
X439284Y130105D02*
G74*
D01*
G02X434905Y134484I2676J7055*
G01*
X434905Y134484D01*
X439284Y134484D01*
X439284Y130105D01*
D02*
G37*
G36*
X444636Y144215D02*
G74*
D01*
G02X449015Y139836I2676J7055*
G01*
X449015Y139836D01*
X444636Y139836D01*
X444636Y144215D01*
D02*
G37*
G36*
X449015Y134484D02*
G74*
D01*
G02X444636Y130105I7055J2676*
G01*
X444636Y130105D01*
X444636Y134484D01*
X449015Y134484D01*
D02*
G37*
G36*
X511833Y206861D02*
X511833Y206861D01*
X511833Y166439D01*
G75*
D01*
G02X504167Y166439I-3833J-6499*
G01*
X504167Y166439D01*
X504167Y206861D01*
G75*
D01*
G02X511833Y206861I3833J6499*
G01*
D02*
G37*
G36*
X459175Y203064D02*
G74*
D01*
G02X454796Y198685I7055J2676*
G01*
X454796Y198685D01*
X454796Y203064D01*
X459175Y203064D01*
D02*
G37*
G36*
X449444Y198685D02*
G74*
D01*
G02X445065Y203064I2676J7055*
G01*
X445065Y203064D01*
X449444Y203064D01*
X449444Y198685D01*
D02*
G37*
G36*
X445065Y208416D02*
G74*
D01*
G02X449444Y212795I7055J2676*
G01*
X449444Y212795D01*
X449444Y208416D01*
X445065Y208416D01*
D02*
G37*
G36*
X454796Y212795D02*
G74*
D01*
G02X459175Y208416I2676J7055*
G01*
X459175Y208416D01*
X454796Y208416D01*
X454796Y212795D01*
D02*
G37*
G36*
X449120Y205740D02*
G75*
D01*
G02X449120Y205740I3000J0*
G01*
D02*
G37*
G36*
X617084Y257105D02*
G74*
D01*
G02X612705Y261484I2676J7055*
G01*
X612705Y261484D01*
X617084Y261484D01*
X617084Y257105D01*
D02*
G37*
G36*
X626815Y261484D02*
G74*
D01*
G02X622436Y257105I7055J2676*
G01*
X622436Y257105D01*
X622436Y261484D01*
X626815Y261484D01*
D02*
G37*
G36*
X699065Y249056D02*
G74*
D01*
G02X703444Y253435I7055J2676*
G01*
X703444Y253435D01*
X703444Y249056D01*
X699065Y249056D01*
D02*
G37*
G36*
X708796Y253435D02*
G74*
D01*
G02X713175Y249056I2676J7055*
G01*
X713175Y249056D01*
X708796Y249056D01*
X708796Y253435D01*
D02*
G37*
G36*
X703120Y246380D02*
G75*
D01*
G02X703120Y246380I3000J0*
G01*
D02*
G37*
G36*
X616760Y264160D02*
G75*
D01*
G02X616760Y264160I3000J0*
G01*
D02*
G37*
G36*
X612705Y266836D02*
G74*
D01*
G02X617084Y271215I7055J2676*
G01*
X617084Y271215D01*
X617084Y266836D01*
X612705Y266836D01*
D02*
G37*
G36*
X622436Y271215D02*
G74*
D01*
G02X626815Y266836I2676J7055*
G01*
X626815Y266836D01*
X622436Y266836D01*
X622436Y271215D01*
D02*
G37*
G36*
X555800Y111760D02*
G75*
D01*
G02X555800Y111760I3000J0*
G01*
D02*
G37*
G36*
X551745Y114436D02*
G74*
D01*
G02X556124Y118815I7055J2676*
G01*
X556124Y118815D01*
X556124Y114436D01*
X551745Y114436D01*
D02*
G37*
G36*
X556124Y104705D02*
G74*
D01*
G02X551745Y109084I2676J7055*
G01*
X551745Y109084D01*
X556124Y109084D01*
X556124Y104705D01*
D02*
G37*
G36*
X561476Y118815D02*
G74*
D01*
G02X565855Y114436I2676J7055*
G01*
X565855Y114436D01*
X561476Y114436D01*
X561476Y118815D01*
D02*
G37*
G36*
X565855Y109084D02*
G74*
D01*
G02X561476Y104705I7055J2676*
G01*
X561476Y104705D01*
X561476Y109084D01*
X565855Y109084D01*
D02*
G37*
G36*
X617356Y156915D02*
G74*
D01*
G02X621735Y152536I2676J7055*
G01*
X621735Y152536D01*
X617356Y152536D01*
X617356Y156915D01*
D02*
G37*
G36*
X621735Y147184D02*
G74*
D01*
G02X617356Y142805I7055J2676*
G01*
X617356Y142805D01*
X617356Y147184D01*
X621735Y147184D01*
D02*
G37*
G36*
X607625Y152536D02*
G74*
D01*
G02X612004Y156915I7055J2676*
G01*
X612004Y156915D01*
X612004Y152536D01*
X607625Y152536D01*
D02*
G37*
G36*
X612004Y142805D02*
G74*
D01*
G02X607625Y147184I2676J7055*
G01*
X607625Y147184D01*
X612004Y147184D01*
X612004Y142805D01*
D02*
G37*
G36*
X611680Y149860D02*
G75*
D01*
G02X611680Y149860I3000J0*
G01*
D02*
G37*
G36*
X703444Y173285D02*
G74*
D01*
G02X699065Y177664I2676J7055*
G01*
X699065Y177664D01*
X703444Y177664D01*
X703444Y173285D01*
D02*
G37*
G36*
X703120Y180340D02*
G75*
D01*
G02X703120Y180340I3000J0*
G01*
D02*
G37*
G36*
X713175Y177664D02*
G74*
D01*
G02X708796Y173285I7055J2676*
G01*
X708796Y173285D01*
X708796Y177664D01*
X713175Y177664D01*
D02*
G37*
G36*
X699065Y183016D02*
G74*
D01*
G02X703444Y187395I7055J2676*
G01*
X703444Y187395D01*
X703444Y183016D01*
X699065Y183016D01*
D02*
G37*
G36*
X708796Y187395D02*
G74*
D01*
G02X713175Y183016I2676J7055*
G01*
X713175Y183016D01*
X708796Y183016D01*
X708796Y187395D01*
D02*
G37*
%LPD*%
G54D11*
X535880Y278563D02*
G75*
D01*
G02X535880Y278563I60J-9323*
G01*
X708796Y239325D02*
X708796Y243704D01*
X713175Y243704D01*
G74*
D01*
G02X708796Y239325I7055J2676*
G01*
X699065Y243704D02*
X703444Y243704D01*
X703444Y239325D01*
G74*
D01*
G02X699065Y243704I2676J7055*
G01*
X501217Y269240D02*
G75*
D01*
G02X501217Y269240I9323J0*
G01*
X802180Y347980D02*
G75*
D01*
G02X802180Y347980I3000J0*
G01*
X778477Y273520D02*
G75*
D01*
G02X778477Y273520I9323J0*
G01*
X798125Y350656D02*
G74*
D01*
G02X802504Y355035I7055J2676*
G01*
X802504Y350656D01*
X798125Y350656D01*
X802504Y340925D02*
G74*
D01*
G02X798125Y345304I2676J7055*
G01*
X802504Y345304D01*
X802504Y340925D01*
X807856Y355035D02*
G74*
D01*
G02X812235Y350656I2676J7055*
G01*
X807856Y350656D01*
X807856Y355035D01*
X812235Y345304D02*
G74*
D01*
G02X807856Y340925I7055J2676*
G01*
X807856Y345304D01*
X812235Y345304D01*
X841551Y226826D02*
G75*
D01*
G02X841551Y220214I-3750J-3306*
G01*
X846517Y220214D01*
G74*
D01*
G02X841106Y214803I8716J3305*
G01*
X841106Y219769D01*
G75*
D01*
G02X834494Y219769I-3306J3750*
G01*
X834494Y214803D01*
G74*
D01*
G02X829083Y220214I3305J8716*
G01*
X834049Y220214D01*
G75*
D01*
G02X834049Y226826I3750J3306*
G01*
X829083Y226826D01*
G74*
D01*
G02X834494Y232237I8716J3305*
G01*
X834494Y227271D01*
G75*
D01*
G02X841106Y227271I3306J-3750*
G01*
X841106Y232237D01*
G74*
D01*
G02X846517Y226826I3305J8716*
G01*
X841551Y226826D01*
X797100Y109220D02*
G75*
D01*
G02X797100Y109220I3000J0*
G01*
X793045Y111896D02*
G74*
D01*
G02X797424Y116275I7055J2676*
G01*
X797424Y111896D01*
X793045Y111896D01*
X797424Y102165D02*
G74*
D01*
G02X793045Y106544I2676J7055*
G01*
X797424Y106544D01*
X797424Y102165D01*
X802776Y116275D02*
G74*
D01*
G02X807155Y111896I2676J7055*
G01*
X802776Y111896D01*
X802776Y116275D01*
X807155Y106544D02*
G74*
D01*
G02X802776Y102165I7055J2676*
G01*
X802776Y106544D01*
X807155Y106544D01*
X778477Y173520D02*
G75*
D01*
G02X778477Y173520I9323J0*
G01*
X434905Y139836D02*
G74*
D01*
G02X439284Y144215I7055J2676*
G01*
X439284Y139836D01*
X434905Y139836D01*
X438960Y137160D02*
G75*
D01*
G02X438960Y137160I3000J0*
G01*
X439284Y130105D02*
G74*
D01*
G02X434905Y134484I2676J7055*
G01*
X439284Y134484D01*
X439284Y130105D01*
X444636Y144215D02*
G74*
D01*
G02X449015Y139836I2676J7055*
G01*
X444636Y139836D01*
X444636Y144215D01*
X449015Y134484D02*
G74*
D01*
G02X444636Y130105I7055J2676*
G01*
X444636Y134484D01*
X449015Y134484D01*
X511833Y206861D02*
X511833Y166439D01*
G75*
D01*
G02X504167Y166439I-3833J-6499*
G01*
X504167Y206861D01*
G75*
D01*
G02X511833Y206861I3833J6499*
G01*
X459175Y203064D02*
G74*
D01*
G02X454796Y198685I7055J2676*
G01*
X454796Y203064D01*
X459175Y203064D01*
X449444Y198685D02*
G74*
D01*
G02X445065Y203064I2676J7055*
G01*
X449444Y203064D01*
X449444Y198685D01*
X445065Y208416D02*
G74*
D01*
G02X449444Y212795I7055J2676*
G01*
X449444Y208416D01*
X445065Y208416D01*
X454796Y212795D02*
G74*
D01*
G02X459175Y208416I2676J7055*
G01*
X454796Y208416D01*
X454796Y212795D01*
X449120Y205740D02*
G75*
D01*
G02X449120Y205740I3000J0*
G01*
X617084Y257105D02*
G74*
D01*
G02X612705Y261484I2676J7055*
G01*
X617084Y261484D01*
X617084Y257105D01*
X626815Y261484D02*
G74*
D01*
G02X622436Y257105I7055J2676*
G01*
X622436Y261484D01*
X626815Y261484D01*
X699065Y249056D02*
G74*
D01*
G02X703444Y253435I7055J2676*
G01*
X703444Y249056D01*
X699065Y249056D01*
X708796Y253435D02*
G74*
D01*
G02X713175Y249056I2676J7055*
G01*
X708796Y249056D01*
X708796Y253435D01*
X703120Y246380D02*
G75*
D01*
G02X703120Y246380I3000J0*
G01*
X616760Y264160D02*
G75*
D01*
G02X616760Y264160I3000J0*
G01*
X612705Y266836D02*
G74*
D01*
G02X617084Y271215I7055J2676*
G01*
X617084Y266836D01*
X612705Y266836D01*
X622436Y271215D02*
G74*
D01*
G02X626815Y266836I2676J7055*
G01*
X622436Y266836D01*
X622436Y271215D01*
X555800Y111760D02*
G75*
D01*
G02X555800Y111760I3000J0*
G01*
X551745Y114436D02*
G74*
D01*
G02X556124Y118815I7055J2676*
G01*
X556124Y114436D01*
X551745Y114436D01*
X556124Y104705D02*
G74*
D01*
G02X551745Y109084I2676J7055*
G01*
X556124Y109084D01*
X556124Y104705D01*
X561476Y118815D02*
G74*
D01*
G02X565855Y114436I2676J7055*
G01*
X561476Y114436D01*
X561476Y118815D01*
X565855Y109084D02*
G74*
D01*
G02X561476Y104705I7055J2676*
G01*
X561476Y109084D01*
X565855Y109084D01*
X617356Y156915D02*
G74*
D01*
G02X621735Y152536I2676J7055*
G01*
X617356Y152536D01*
X617356Y156915D01*
X621735Y147184D02*
G74*
D01*
G02X617356Y142805I7055J2676*
G01*
X617356Y147184D01*
X621735Y147184D01*
X607625Y152536D02*
G74*
D01*
G02X612004Y156915I7055J2676*
G01*
X612004Y152536D01*
X607625Y152536D01*
X612004Y142805D02*
G74*
D01*
G02X607625Y147184I2676J7055*
G01*
X612004Y147184D01*
X612004Y142805D01*
X611680Y149860D02*
G75*
D01*
G02X611680Y149860I3000J0*
G01*
X703444Y173285D02*
G74*
D01*
G02X699065Y177664I2676J7055*
G01*
X703444Y177664D01*
X703444Y173285D01*
X703120Y180340D02*
G75*
D01*
G02X703120Y180340I3000J0*
G01*
X713175Y177664D02*
G74*
D01*
G02X708796Y173285I7055J2676*
G01*
X708796Y177664D01*
X713175Y177664D01*
X699065Y183016D02*
G74*
D01*
G02X703444Y187395I7055J2676*
G01*
X703444Y183016D01*
X699065Y183016D01*
X708796Y187395D02*
G74*
D01*
G02X713175Y183016I2676J7055*
G01*
X708796Y183016D01*
X708796Y187395D01*
X477834Y238105D02*
X421640Y294299D01*
X421640Y101600D01*
X574040Y101600D01*
X574040Y139700D01*
X586399Y139700D01*
X581005Y145094D01*
G75*
D01*
G02X586426Y150515I-1885J7306*
G01*
X597241Y139700D01*
X726440Y139700D01*
X726440Y93980D01*
X863583Y93980D01*
X863583Y358140D01*
X741680Y358140D01*
X741680Y297180D01*
X429601Y297180D01*
X483255Y243526D01*
G75*
D01*
G02X477834Y238105I1885J-7306*
G01*
G54D12*
X170590Y441969D02*
G75*
D01*
G03X177809Y434750I-2950J-10169*
G01*
X239213Y496154D01*
G75*
D01*
G03X229377Y500756I-452J11845*
G01*
X170590Y441969D01*
X145190Y441969D02*
G75*
D01*
G03X152409Y434750I-2950J-10169*
G01*
X213813Y496154D01*
G75*
D01*
G03X203977Y500756I-452J11845*
G01*
X145190Y441969D01*
X119790Y441969D02*
G75*
D01*
G03X127009Y434750I-2950J-10169*
G01*
X188413Y496154D01*
G75*
D01*
G03X178577Y500756I-452J11845*
G01*
X119790Y441969D01*
X278385Y504044D02*
X250513Y476172D01*
X249346Y475005D01*
X231143Y475005D01*
G75*
D01*
G03X227531Y473509I-1J-5105*
G01*
X195990Y441969D01*
G75*
D01*
G03X203209Y434750I-2950J-10169*
G01*
X233254Y464795D01*
X251460Y464795D01*
G74*
D01*
G03X255075Y466297I2J5105*
G01*
X285604Y496825D01*
G75*
D01*
G03X278385Y504044I3956J11175*
G01*
X216975Y402797D02*
X290351Y476172D01*
X292052Y477873D01*
X292052Y477873D01*
X311004Y496825D01*
G75*
D01*
G03X303785Y504044I3956J11175*
G01*
X292052Y492311D01*
X275913Y476172D01*
X211246Y411505D01*
X202316Y411505D01*
G75*
D01*
G03X202316Y401295I-9275J-5105*
G01*
X213360Y401295D01*
G74*
D01*
G03X216975Y402797I2J5105*
G01*
X532052Y519777D02*
G75*
D01*
G03X532052Y519777I1348J-11777*
G01*
X335255Y497301D02*
X335255Y426294D01*
X292526Y383565D01*
X197694Y383565D01*
X177809Y403450D01*
G75*
D01*
G03X170590Y396231I-10169J2950*
G01*
X191971Y374851D01*
G74*
D01*
G03X194594Y373452I3609J3608*
G01*
G75*
D01*
G03X195580Y373355I990J5007*
G01*
X294632Y373355D01*
G75*
D01*
G03X296370Y373658I5J5105*
G01*
G74*
D01*
G03X298255Y374857I1730J4802*
G01*
X343963Y420565D01*
G75*
D01*
G03X345465Y424180I-3601J3616*
G01*
X345465Y497301D01*
G75*
D01*
G03X335255Y497301I-5105J10698*
G01*
X360655Y497301D02*
X360655Y426294D01*
X302686Y368325D01*
X187534Y368325D01*
X152409Y403450D01*
G75*
D01*
G03X145190Y396231I-10169J2950*
G01*
X181811Y359611D01*
G75*
D01*
G03X185428Y358115I3610J3607*
G01*
X304800Y358115D01*
G74*
D01*
G03X308415Y359617I2J5105*
G01*
X369363Y420565D01*
G75*
D01*
G03X370865Y424180I-3601J3616*
G01*
X370865Y497301D01*
G75*
D01*
G03X360655Y497301I-5105J10698*
G01*
X386055Y497301D02*
X386055Y421214D01*
X315386Y350545D01*
X179914Y350545D01*
X127009Y403450D01*
G75*
D01*
G03X119790Y396231I-10169J2950*
G01*
X174191Y341831D01*
G75*
D01*
G03X177802Y340335I3610J3607*
G01*
X317500Y340335D01*
G74*
D01*
G03X321115Y341837I2J5105*
G01*
X394763Y415485D01*
G75*
D01*
G03X396265Y419100I-3601J3616*
G01*
X396265Y497301D01*
G75*
D01*
G03X386055Y497301I-5105J10698*
G01*
X102046Y413178D02*
G74*
D01*
G03X98218Y417006I3828J0*
G01*
X84662Y417006D01*
G75*
D01*
G03X80834Y413178I0J-3828*
G01*
X80834Y399622D01*
G75*
D01*
G03X84662Y395794I3828J0*
G01*
X94827Y395794D01*
X169111Y321511D01*
G75*
D01*
G03X172722Y320015I3610J3607*
G01*
X327660Y320015D01*
G74*
D01*
G03X331275Y321517I2J5105*
G01*
X420163Y410405D01*
G75*
D01*
G03X421665Y414020I-3601J3616*
G01*
X421665Y496877D01*
G75*
D01*
G03X428033Y505355I-2459J8478*
G01*
X428033Y510645D01*
G74*
D01*
G03X419205Y519473I8828J0*
G01*
X413915Y519473D01*
G75*
D01*
G03X405088Y510645I1J-8828*
G01*
X405088Y505355D01*
G75*
D01*
G03X411455Y496877I8827J-1*
G01*
X411455Y416134D01*
X325546Y330225D01*
X174834Y330225D01*
X102046Y403013D01*
X102046Y413178D01*
X532052Y13623D02*
G75*
D01*
G03X532052Y13623I1348J11777*
G01*
X528740Y407725D02*
G74*
D01*
G03X534885Y401580I9900J3755*
G01*
X534885Y407725D01*
X528740Y407725D01*
X528740Y415235D02*
X534885Y415235D01*
X534885Y421380D01*
G74*
D01*
G03X528740Y415235I3755J9900*
G01*
X213335Y302700D02*
X213335Y179914D01*
X170590Y137169D01*
G75*
D01*
G03X177809Y129950I-2950J-10169*
G01*
X222043Y174185D01*
G75*
D01*
G03X223545Y177800I-3601J3616*
G01*
X223545Y302700D01*
G75*
D01*
G03X213335Y302700I-5105J7179*
G01*
X299720Y60985D02*
X215474Y60985D01*
X177809Y98650D01*
G75*
D01*
G03X170590Y91431I-10169J2950*
G01*
X209751Y52271D01*
G75*
D01*
G03X213368Y50775I3610J3607*
G01*
X297606Y50775D01*
X319025Y29356D01*
G75*
D01*
G03X326244Y36575I11175J-3956*
G01*
X303335Y59483D01*
G74*
D01*
G03X299720Y60985I3616J3601*
G01*
X835043Y518744D02*
X840156Y518744D01*
X840156Y523857D01*
G74*
D01*
G03X835043Y518744I3124J8237*
G01*
X840156Y507383D02*
X840156Y512496D01*
X835043Y512496D01*
G74*
D01*
G03X840156Y507383I8237J3124*
G01*
X846404Y523857D02*
X846404Y518744D01*
X851517Y518744D01*
G74*
D01*
G03X846404Y523857I8237J3124*
G01*
X851517Y512496D02*
X846404Y512496D01*
X846404Y507383D01*
G74*
D01*
G03X851517Y512496I3124J8237*
G01*
X840280Y515620D02*
G75*
D01*
G03X840280Y515620I3000J0*
G01*
X837740Y22860D02*
G75*
D01*
G03X837740Y22860I3000J0*
G01*
X837616Y14623D02*
X837616Y19736D01*
X832503Y19736D01*
G74*
D01*
G03X837616Y14623I8237J3124*
G01*
X848977Y19736D02*
X843864Y19736D01*
X843864Y14623D01*
G74*
D01*
G03X848977Y19736I3124J8237*
G01*
X832503Y25984D02*
X837616Y25984D01*
X837616Y31097D01*
G74*
D01*
G03X832503Y25984I3124J8237*
G01*
X843864Y31097D02*
X843864Y25984D01*
X848977Y25984D01*
G74*
D01*
G03X843864Y31097I8237J3124*
G01*
X828657Y431216D02*
X823544Y431216D01*
X823544Y426103D01*
G74*
D01*
G03X828657Y431216I3124J8237*
G01*
X812183Y437464D02*
X817296Y437464D01*
X817296Y442577D01*
G74*
D01*
G03X812183Y437464I3124J8237*
G01*
X817420Y434340D02*
G75*
D01*
G03X817420Y434340I3000J0*
G01*
X817296Y426103D02*
X817296Y431216D01*
X812183Y431216D01*
G74*
D01*
G03X817296Y426103I8237J3124*
G01*
X823544Y442577D02*
X823544Y437464D01*
X828657Y437464D01*
G74*
D01*
G03X823544Y442577I8237J3124*
G01*
X97137Y504876D02*
X92024Y504876D01*
X92024Y499763D01*
G74*
D01*
G03X97137Y504876I3124J8237*
G01*
X85776Y499763D02*
X85776Y504876D01*
X80663Y504876D01*
G74*
D01*
G03X85776Y499763I8237J3124*
G01*
X132590Y508000D02*
G75*
D01*
G03X132590Y508000I19810J0*
G01*
X252306Y508000D02*
G75*
D01*
G03X252306Y508000I11854J0*
G01*
X80663Y511124D02*
X85776Y511124D01*
X85776Y516237D01*
G74*
D01*
G03X80663Y511124I3124J8237*
G01*
X92024Y516237D02*
X92024Y511124D01*
X97137Y511124D01*
G74*
D01*
G03X92024Y516237I8237J3124*
G01*
X85900Y508000D02*
G75*
D01*
G03X85900Y508000I3000J0*
G01*
X546946Y508000D02*
G75*
D01*
G03X546946Y508000I11854J0*
G01*
X572346Y508000D02*
G75*
D01*
G03X572346Y508000I11854J0*
G01*
X597746Y508000D02*
G75*
D01*
G03X597746Y508000I11854J0*
G01*
X646473Y505355D02*
X646473Y510645D01*
G74*
D01*
G03X637645Y519473I8828J0*
G01*
X632355Y519473D01*
G75*
D01*
G03X623528Y510645I1J-8828*
G01*
X623528Y505355D01*
G75*
D01*
G03X632355Y496528I8827J0*
G01*
X637645Y496528D01*
G75*
D01*
G03X646473Y505355I1J8827*
G01*
X654130Y508000D02*
G75*
D01*
G03X654130Y508000I8810J0*
G01*
X445346Y508000D02*
G75*
D01*
G03X445346Y508000I11854J0*
G01*
X470746Y508000D02*
G75*
D01*
G03X470746Y508000I11854J0*
G01*
X496146Y508000D02*
G75*
D01*
G03X496146Y508000I11854J0*
G01*
X546946Y25400D02*
G75*
D01*
G03X546946Y25400I11854J0*
G01*
X572346Y25400D02*
G75*
D01*
G03X572346Y25400I11854J0*
G01*
X597746Y25400D02*
G75*
D01*
G03X597746Y25400I11854J0*
G01*
X623146Y25400D02*
G75*
D01*
G03X623146Y25400I11854J0*
G01*
X640590Y76200D02*
G75*
D01*
G03X640590Y76200I19810J0*
G01*
X548540Y407725D02*
X542395Y407725D01*
X542395Y401580D01*
G74*
D01*
G03X548540Y407725I3755J9900*
G01*
X640590Y355600D02*
G75*
D01*
G03X640590Y355600I19810J0*
G01*
X533640Y411480D02*
G75*
D01*
G03X533640Y411480I5000J0*
G01*
X542395Y421380D02*
X542395Y415235D01*
X548540Y415235D01*
G74*
D01*
G03X542395Y421380I9900J3755*
G01*
X182452Y127000D02*
G75*
D01*
G03X182452Y127000I10588J0*
G01*
X98476Y17163D02*
X98476Y22276D01*
X93363Y22276D01*
G74*
D01*
G03X98476Y17163I8237J3124*
G01*
X109837Y22276D02*
X104724Y22276D01*
X104724Y17163D01*
G74*
D01*
G03X109837Y22276I3124J8237*
G01*
X119890Y25400D02*
G75*
D01*
G03X119890Y25400I19810J0*
G01*
X102046Y108378D02*
G74*
D01*
G03X98218Y112206I3828J0*
G01*
X95201Y112206D01*
X95201Y105361D01*
X102046Y105361D01*
X102046Y108378D01*
X86440Y101600D02*
G75*
D01*
G03X86440Y101600I5000J0*
G01*
X98600Y25400D02*
G75*
D01*
G03X98600Y25400I3000J0*
G01*
X93363Y28524D02*
X98476Y28524D01*
X98476Y33637D01*
G74*
D01*
G03X93363Y28524I3124J8237*
G01*
X104724Y33637D02*
X104724Y28524D01*
X109837Y28524D01*
G74*
D01*
G03X104724Y33637I8237J3124*
G01*
X98218Y90994D02*
G75*
D01*
G03X102046Y94822I0J3828*
G01*
X102046Y97839D01*
X95201Y97839D01*
X95201Y90994D01*
X98218Y90994D01*
X80834Y94822D02*
G75*
D01*
G03X84662Y90994I3828J0*
G01*
X87679Y90994D01*
X87679Y97839D01*
X80834Y97839D01*
X80834Y94822D01*
X111840Y101600D02*
G75*
D01*
G03X111840Y101600I5000J0*
G01*
X113085Y91700D02*
X113085Y97845D01*
X106940Y97845D01*
G74*
D01*
G03X113085Y91700I9900J3755*
G01*
X137240Y101600D02*
G75*
D01*
G03X137240Y101600I5000J0*
G01*
X126740Y97845D02*
X120595Y97845D01*
X120595Y91700D01*
G74*
D01*
G03X126740Y97845I3755J9900*
G01*
X138485Y91700D02*
X138485Y97845D01*
X132340Y97845D01*
G74*
D01*
G03X138485Y91700I9900J3755*
G01*
X152140Y97845D02*
X145995Y97845D01*
X145995Y91700D01*
G74*
D01*
G03X152140Y97845I3755J9900*
G01*
X182452Y101600D02*
G75*
D01*
G03X182452Y101600I10588J0*
G01*
X106252Y127000D02*
G75*
D01*
G03X106252Y127000I10588J0*
G01*
X106940Y105355D02*
X113085Y105355D01*
X113085Y111500D01*
G74*
D01*
G03X106940Y105355I3755J9900*
G01*
X131652Y127000D02*
G75*
D01*
G03X131652Y127000I10588J0*
G01*
X120595Y111500D02*
X120595Y105355D01*
X126740Y105355D01*
G74*
D01*
G03X120595Y111500I9900J3755*
G01*
X132340Y105355D02*
X138485Y105355D01*
X138485Y111500D01*
G74*
D01*
G03X132340Y105355I3755J9900*
G01*
X145995Y111500D02*
X145995Y105355D01*
X152140Y105355D01*
G74*
D01*
G03X145995Y111500I9900J3755*
G01*
X81540Y435555D02*
X87685Y435555D01*
X87685Y441700D01*
G74*
D01*
G03X81540Y435555I3755J9900*
G01*
X95195Y441700D02*
X95195Y435555D01*
X101340Y435555D01*
G74*
D01*
G03X95195Y441700I9900J3755*
G01*
X101340Y428045D02*
X95195Y428045D01*
X95195Y421900D01*
G74*
D01*
G03X101340Y428045I3755J9900*
G01*
X87685Y421900D02*
X87685Y428045D01*
X81540Y428045D01*
G74*
D01*
G03X87685Y421900I9900J3755*
G01*
X86440Y431800D02*
G75*
D01*
G03X86440Y431800I5000J0*
G01*
X369146Y25400D02*
G75*
D01*
G03X369146Y25400I11854J0*
G01*
X402196Y14316D02*
X402196Y21196D01*
X395316Y21196D01*
G74*
D01*
G03X402196Y14316I11084J4204*
G01*
X417484Y21196D02*
X410604Y21196D01*
X410604Y14316D01*
G74*
D01*
G03X417484Y21196I4204J11084*
G01*
X445346Y25400D02*
G75*
D01*
G03X445346Y25400I11854J0*
G01*
X496528Y28045D02*
X496528Y22755D01*
G75*
D01*
G03X505355Y13928I8827J0*
G01*
X510645Y13928D01*
G75*
D01*
G03X519473Y22755I1J8827*
G01*
X519473Y28045D01*
G74*
D01*
G03X510645Y36873I8828J0*
G01*
X505355Y36873D01*
G75*
D01*
G03X496528Y28045I1J-8828*
G01*
X395316Y29604D02*
X402196Y29604D01*
X402196Y36484D01*
G74*
D01*
G03X395316Y29604I4204J11084*
G01*
X410604Y36484D02*
X410604Y29604D01*
X417484Y29604D01*
G74*
D01*
G03X410604Y36484I11084J4204*
G01*
X401955Y25400D02*
G75*
D01*
G03X401955Y25400I4445J0*
G01*
X418483Y396824D02*
X423596Y396824D01*
X423596Y401937D01*
G74*
D01*
G03X418483Y396824I3124J8237*
G01*
X423596Y385463D02*
X423596Y390576D01*
X418483Y390576D01*
G74*
D01*
G03X423596Y385463I8237J3124*
G01*
X429844Y401937D02*
X429844Y396824D01*
X434957Y396824D01*
G74*
D01*
G03X429844Y401937I8237J3124*
G01*
X434957Y390576D02*
X429844Y390576D01*
X429844Y385463D01*
G74*
D01*
G03X434957Y390576I3124J8237*
G01*
X423720Y393700D02*
G75*
D01*
G03X423720Y393700I3000J0*
G01*
X497252Y411480D02*
G75*
D01*
G03X497252Y411480I10588J0*
G01*
X290523Y20295D02*
X294101Y20295D01*
G75*
D01*
G03X308756Y14225I10699J5104*
G01*
X318971Y4011D01*
G74*
D01*
G03X319162Y3828I3625J3592*
G01*
X67103Y3828D01*
G74*
D01*
G03X66040Y3979I1063J3667*
G01*
G74*
D01*
G02X59859Y10160I0J6181*
G01*
G74*
D01*
G03X59708Y11223I3819J0*
G01*
X59708Y522177D01*
G74*
D01*
G03X59859Y523240I3667J1063*
G01*
G74*
D01*
G02X66040Y529421I6181J0*
G01*
G74*
D01*
G03X67103Y529572I0J3819*
G01*
X855980Y529572D01*
G74*
D01*
G03X856185Y529577I9J3828*
G01*
G74*
D01*
G02X862317Y523445I204J6336*
G01*
G74*
D01*
G03X862312Y523240I3823J196*
G01*
X862312Y361973D01*
X741680Y361973D01*
G75*
D01*
G03X737847Y358140I0J-3833*
G01*
X737847Y301013D01*
X427565Y301013D01*
X401345Y327234D01*
X401345Y338260D01*
G75*
D01*
G03X391135Y338260I-5105J7179*
G01*
X391135Y325129D01*
G75*
D01*
G03X392631Y321511I5105J-7*
G01*
X417807Y296334D01*
X417807Y101600D01*
G75*
D01*
G03X421640Y97767I3833J0*
G01*
X422947Y97767D01*
X422947Y33284D01*
G75*
D01*
G03X440653Y33284I8853J-7883*
G01*
X440653Y97767D01*
X574040Y97767D01*
G75*
D01*
G03X577873Y101600I0J3833*
G01*
X577873Y135867D01*
X588434Y135867D01*
X601955Y122346D01*
X601955Y80854D01*
X597326Y76225D01*
X472000Y76225D01*
G75*
D01*
G03X472000Y66015I-7179J-5105*
G01*
X599433Y66015D01*
G75*
D01*
G03X600947Y66243I5J5105*
G01*
G74*
D01*
G03X603055Y67517I1508J4876*
G01*
X610663Y75125D01*
G75*
D01*
G03X612165Y78740I-3601J3616*
G01*
X612165Y124460D01*
G74*
D01*
G03X610663Y128075I5105J2*
G01*
X602872Y135867D01*
X722607Y135867D01*
X722607Y93980D01*
G75*
D01*
G03X726440Y90147I3833J0*
G01*
X862312Y90147D01*
X862312Y10160D01*
G75*
D01*
G03X862317Y9955I3828J-9*
G01*
G74*
D01*
G02X856185Y3823I6336J204*
G01*
G74*
D01*
G03X855980Y3828I196J3823*
G01*
X341238Y3828D01*
G74*
D01*
G03X341435Y4017I3434J3777*
G01*
X351644Y14225D01*
G75*
D01*
G03X344425Y21444I3956J11175*
G01*
X335706Y12725D01*
X324694Y12725D01*
X315975Y21444D01*
G75*
D01*
G03X294101Y30505I-11171J3966*
G01*
X290523Y30505D01*
G74*
D01*
G03X282045Y36873I8478J2459*
G01*
X276755Y36873D01*
G75*
D01*
G03X268277Y30505I0J-8828*
G01*
X202774Y30505D01*
X168715Y64563D01*
G74*
D01*
G03X165947Y65994I3616J3601*
G01*
G75*
D01*
G03X165095Y66065I-848J-5033*
G01*
X85934Y66065D01*
X73685Y78314D01*
X73685Y102026D01*
X80942Y109283D01*
G74*
D01*
G03X80834Y108378I3720J903*
G01*
X80834Y105361D01*
X87679Y105361D01*
X87679Y112206D01*
X84662Y112206D01*
G75*
D01*
G03X83757Y112098I-2J-3828*
G01*
X88490Y116831D01*
G75*
D01*
G03X81271Y124050I2950J10169*
G01*
X64971Y107749D01*
G75*
D01*
G03X63475Y104130I3607J-3610*
G01*
X63475Y76211D01*
G75*
D01*
G03X64971Y72591I5105J-9*
G01*
X80211Y57351D01*
G74*
D01*
G03X82169Y56130I3609J3607*
G01*
G75*
D01*
G03X83820Y55855I1653J4829*
G01*
X162986Y55855D01*
X197051Y21791D01*
G74*
D01*
G03X199037Y20560I3610J3607*
G01*
G75*
D01*
G03X200660Y20295I1623J4839*
G01*
X268277Y20295D01*
G75*
D01*
G03X276755Y13928I8477J2460*
G01*
X282045Y13928D01*
G74*
D01*
G03X290523Y20295I1J8827*
G01*
X355600Y25400D02*
X337820Y7620D01*
X322580Y7620D01*
X304800Y25400D01*
X508000Y213360D02*
X508000Y160020D01*
X464820Y71120D02*
X599440Y71120D01*
X579120Y152400D02*
X607060Y124460D01*
X607060Y78740D01*
X599440Y71120D01*
X396240Y325120D02*
X485140Y236220D01*
X238760Y508000D02*
X238760Y502920D01*
X167640Y431800D01*
X187960Y508000D02*
X187960Y502920D01*
X116840Y431800D01*
X213360Y508000D02*
X213360Y502920D01*
X142240Y431800D01*
X193040Y431800D02*
X231140Y469900D01*
X251460Y469900D01*
X289560Y508000D01*
X193040Y406400D02*
X213360Y406400D01*
X314960Y508000D01*
X340360Y508000D02*
X340360Y424180D01*
X294640Y378460D01*
X195580Y378460D01*
X167640Y406400D01*
X142240Y406400D02*
X185420Y363220D01*
X304800Y363220D01*
X365760Y424180D01*
X365760Y508000D01*
X116840Y406400D02*
X177800Y345440D01*
X317500Y345440D02*
X391160Y419100D01*
X391160Y508000D01*
X177800Y345440D02*
X317500Y345440D01*
X91440Y406400D02*
X172720Y325120D01*
X327660Y325120D01*
X416560Y414020D01*
X416560Y508000D01*
X218440Y309880D02*
X218440Y177800D01*
X167640Y127000D01*
X200660Y25400D02*
X304800Y25400D01*
X200660Y25400D02*
X165100Y60960D01*
X83820Y60960D01*
X68580Y76200D01*
X68580Y104140D01*
X91440Y127000D01*
X167640Y101600D02*
X213360Y55880D01*
X299720Y55880D01*
X330200Y25400D01*
X396240Y325120D02*
X396240Y345440D01*
G54D13*
X431800Y25400D02*
X431800Y127000D01*
X441960Y137160D01*
G54D14*
X53340Y-2540D02*
X53340Y51308D01*
X53340Y-2540D02*
X134874Y-2540D01*
X868680Y-2540D02*
X787146Y-2540D01*
X868680Y-2540D02*
X868680Y51308D01*
X868680Y535940D02*
X868680Y482092D01*
X868680Y535940D02*
X787146Y535940D01*
X53340Y535940D02*
X134874Y535940D01*
X53340Y535940D02*
X53340Y482092D01*
X3340Y-2540D02*
X-96660Y-2540D01*
X-46660Y-52540D02*
X-46660Y47460D01*
X-84160Y-2540D02*
G75*
D01*
G02X-84160Y-2540I37500J0*
G01*
X918680Y-2540D02*
X1018680Y-2540D01*
X968680Y-52540D02*
X968680Y47460D01*
X931180Y-2540D02*
G75*
D01*
G02X931180Y-2540I37500J0*
G01*
X956180Y-2540D02*
G75*
D01*
G02X956180Y-2540I12500J0*
G01*
X3340Y535940D02*
X-96660Y535940D01*
X-46660Y485940D02*
X-46660Y585940D01*
X-84160Y535940D02*
G75*
D01*
G02X-84160Y535940I37500J0*
G01*
X-71660Y535940D02*
G75*
D01*
G02X-71660Y535940I25000J0*
G01*
X-59160Y535940D02*
G75*
D01*
G02X-59160Y535940I12500J0*
G01*
G54D15*
X457200Y508000D03*
X584200Y508000D03*
X609600Y508000D03*
X558800Y508000D03*
X508000Y508000D03*
X533400Y508000D03*
X482600Y508000D03*
X340360Y508000D03*
X365760Y508000D03*
X391160Y508000D03*
X289560Y508000D03*
X314960Y508000D03*
X264160Y508000D03*
X238760Y508000D03*
X213360Y508000D03*
X187960Y508000D03*
X457200Y25400D03*
X330200Y25400D03*
X304800Y25400D03*
X355600Y25400D03*
X406400Y25400D03*
X381000Y25400D03*
X431800Y25400D03*
X533400Y25400D03*
X558800Y25400D03*
X609600Y25400D03*
X584200Y25400D03*
X635000Y25400D03*
G54D16*
X635000Y508000D03*
X416560Y508000D03*
X279400Y25400D03*
X508000Y25400D03*
G54D17*
X632355Y505355D02*
X637645Y505355D01*
X637645Y510645D01*
X632355Y510645D01*
X632355Y505355D01*D02*
X413915Y505355D02*
X419205Y505355D01*
X419205Y510645D01*
X413915Y510645D01*
X413915Y505355D01*D02*
X276755Y22755D02*
X282045Y22755D01*
X282045Y28045D01*
X276755Y28045D01*
X276755Y22755D01*D02*
X505355Y22755D02*
X510645Y22755D01*
X510645Y28045D01*
X505355Y28045D01*
X505355Y22755D01*D02*
G54D18*
X508000Y213360D03*
X805180Y347980D03*
X800100Y109220D03*
X464820Y71120D03*
X558800Y111760D03*
X614680Y149860D03*
X840740Y22860D03*
X843280Y515620D03*
X508000Y159940D03*
X441960Y137160D03*
X485140Y236220D03*
X619760Y264160D03*
X706120Y180340D03*
X706120Y246380D03*
X396240Y345440D03*
X426720Y393700D03*
X662940Y508000D03*
X452120Y205740D03*
X579120Y152400D03*
X820420Y434340D03*
X88900Y508000D03*
X101600Y25400D03*
X218440Y309880D03*
G54D19*
X538640Y411480D03*
X507840Y411480D03*
X535940Y269240D03*
X510540Y269240D03*
X787800Y273520D03*
X787800Y173520D03*
X837800Y223520D03*
X116840Y431800D03*
X193040Y431800D03*
X193040Y406400D03*
X142240Y406400D03*
X167640Y406400D03*
X91440Y431800D03*
X116840Y406400D03*
X167640Y431800D03*
X142240Y431800D03*
X167640Y127000D03*
X116840Y101600D03*
X142240Y101600D03*
X193040Y127000D03*
X193040Y101600D03*
X167640Y101600D03*
X91440Y127000D03*
X116840Y127000D03*
X142240Y127000D03*
G54D20*
X91440Y406400D03*
X91440Y101600D03*

M02*
