G04 Generated by Ultiboard 14.0 *
%FSLAX34Y34*%
%MOMM*%

%ADD10C,0.0001*%
%ADD11C,0.2540*%
%ADD12C,0.0010*%
%ADD13C,0.1270*%
%ADD14C,1.6088*%
%ADD15R,0.5291X0.5291*%
%ADD16C,0.9949*%
%ADD17C,1.0000*%
%ADD18C,1.3556*%
%ADD19R,0.5718X1.1857*%
%ADD20C,0.4232*%
%ADD21R,1.1857X0.5718*%
%ADD22R,2.2000X0.6000*%
%ADD23R,1.3556X1.3556*%
%ADD24R,0.6000X2.2000*%
%ADD25R,1.0500X1.4000*%


G04 ColorRGB 00FF00 for the following layer *
%LNCopper Top*%
%LPD*%
G54D10*
G36*
X735375Y358140D02*
X735375Y358140D01*
X735375Y303485D01*
X630834Y303485D01*
X612165Y322154D01*
X612165Y363646D01*
X676061Y427542D01*
X679437Y427542D01*
G75*
D01*
G03X684952Y423833I5515J2245*
G01*
X684952Y423833D01*
X696808Y423833D01*
G75*
D01*
G03X702763Y429788I0J5955*
G01*
X702763Y429788D01*
X702763Y435505D01*
G74*
D01*
G03X696808Y441460I5955J0*
G01*
X696808Y441460D01*
X684952Y441460D01*
G75*
D01*
G03X679437Y437751I0J-5955*
G01*
X679437Y437751D01*
X673947Y437751D01*
G75*
D01*
G03X671611Y437185I0J-5104*
G01*
G74*
D01*
G03X670337Y436256I2334J4538*
G01*
X670337Y436256D01*
X604946Y370865D01*
X557543Y370865D01*
G75*
D01*
G03X555348Y370369I0J-5105*
G01*
G74*
D01*
G03X553933Y369369I2195J4608*
G01*
X553933Y369369D01*
X497008Y312445D01*
X226868Y312445D01*
G75*
D01*
G03X210012Y312445I-8428J-2563*
G01*
X210012Y312445D01*
X201007Y312445D01*
X201007Y315808D01*
G74*
D01*
G03X195052Y321763I5955J0*
G01*
X195052Y321763D01*
X189335Y321763D01*
G75*
D01*
G03X183380Y315808I0J-5955*
G01*
X183380Y315808D01*
X183380Y303952D01*
G75*
D01*
G03X189335Y297997I5955J0*
G01*
X189335Y297997D01*
X195052Y297997D01*
G74*
D01*
G03X200754Y302235I0J5955*
G01*
X200754Y302235D01*
X214061Y302235D01*
G75*
D01*
G03X222819Y302235I4379J7645*
G01*
X222819Y302235D01*
X417872Y302235D01*
G74*
D01*
G03X415335Y297180I3767J5055*
G01*
X415335Y297180D01*
X415335Y101600D01*
G75*
D01*
G03X421640Y95295I6305J0*
G01*
X421640Y95295D01*
X501625Y95295D01*
X501625Y36046D01*
G74*
D01*
G03X496528Y28045I3730J8000*
G01*
X496528Y28045D01*
X496528Y22755D01*
G75*
D01*
G03X505355Y13928I8827J0*
G01*
X505355Y13928D01*
X510645Y13928D01*
G75*
D01*
G03X519473Y22755I1J8827*
G01*
X519473Y22755D01*
X519473Y28045D01*
G74*
D01*
G03X511835Y36792I8828J0*
G01*
X511835Y36792D01*
X511835Y95295D01*
X574040Y95295D01*
G75*
D01*
G03X580345Y101600I0J6305*
G01*
X580345Y101600D01*
X580345Y133395D01*
X720135Y133395D01*
X720135Y93980D01*
G75*
D01*
G03X726440Y87675I6305J0*
G01*
X726440Y87675D01*
X862312Y87675D01*
X862312Y10160D01*
G75*
D01*
G03X862317Y9955I3828J-9*
G01*
G74*
D01*
G02X856185Y3823I6336J204*
G01*
G74*
D01*
G03X855980Y3828I196J3823*
G01*
X855980Y3828D01*
X67103Y3828D01*
G74*
D01*
G03X66040Y3979I1063J3667*
G01*
G74*
D01*
G02X59859Y10160I0J6181*
G01*
G74*
D01*
G03X59708Y11223I3819J0*
G01*
X59708Y11223D01*
X59708Y522177D01*
G74*
D01*
G03X59859Y523240I3667J1063*
G01*
G74*
D01*
G02X66040Y529421I6181J0*
G01*
G74*
D01*
G03X67103Y529572I0J3819*
G01*
X67103Y529572D01*
X855980Y529572D01*
G74*
D01*
G03X856185Y529577I9J3828*
G01*
G74*
D01*
G02X862317Y523445I204J6336*
G01*
G74*
D01*
G03X862312Y523240I3823J196*
G01*
X862312Y523240D01*
X862312Y364445D01*
X741680Y364445D01*
G75*
D01*
G03X735375Y358140I0J-6305*
G01*
D02*
G37*
%LPC*%
G36*
X588432Y480407D02*
G75*
D01*
G03X582483Y474719I0J-5955*
G01*
X582483Y474719D01*
X591235Y474719D01*
X591235Y480407D01*
X588432Y480407D01*
D02*
G37*
G36*
X504391Y494231D02*
X504391Y494231D01*
X522449Y476172D01*
X529142Y469479D01*
X529142Y463563D01*
G74*
D01*
G03X525433Y458048I2245J5515*
G01*
X525433Y458048D01*
X525433Y446192D01*
G75*
D01*
G03X531388Y440237I5955J0*
G01*
X531388Y440237D01*
X537105Y440237D01*
G75*
D01*
G03X543060Y446192I0J5955*
G01*
X543060Y446192D01*
X543060Y458048D01*
G74*
D01*
G03X539351Y463563I5955J0*
G01*
X539351Y463563D01*
X539351Y471593D01*
G74*
D01*
G03X537848Y475211I5104J1*
G01*
X537848Y475211D01*
X536887Y476172D01*
X536887Y476172D01*
X514782Y498277D01*
G75*
D01*
G03X502925Y497287I-6782J9723*
G01*
G74*
D01*
G03X504391Y494231I5075J555*
G01*
D02*
G37*
G36*
X483422Y496174D02*
X483422Y496174D01*
X483422Y463563D01*
G74*
D01*
G03X479713Y458048I2245J5515*
G01*
X479713Y458048D01*
X479713Y446192D01*
G75*
D01*
G03X485668Y440237I5955J0*
G01*
X485668Y440237D01*
X491385Y440237D01*
G75*
D01*
G03X497340Y446192I0J5955*
G01*
X497340Y446192D01*
X497340Y458048D01*
G74*
D01*
G03X493631Y463563I5955J0*
G01*
X493631Y463563D01*
X493631Y502073D01*
G74*
D01*
G03X493482Y503299I5104J2*
G01*
G75*
D01*
G03X483422Y496174I-10882J4700*
G01*
D02*
G37*
G36*
X600288Y480407D02*
X600288Y480407D01*
X597485Y480407D01*
X597485Y474719D01*
X606237Y474719D01*
G74*
D01*
G03X600288Y480407I5948J266*
G01*
D02*
G37*
G36*
X696808Y484793D02*
G75*
D01*
G03X702763Y490748I0J5955*
G01*
X702763Y490748D01*
X702763Y496465D01*
G74*
D01*
G03X696808Y502420I5955J0*
G01*
X696808Y502420D01*
X684952Y502420D01*
G75*
D01*
G03X678997Y496465I0J-5955*
G01*
X678997Y496465D01*
X678997Y490748D01*
G75*
D01*
G03X684952Y484793I5955J0*
G01*
X684952Y484793D01*
X685775Y484793D01*
X685775Y460087D01*
X684952Y460087D01*
G75*
D01*
G03X679863Y457225I0J-5955*
G01*
X679863Y457225D01*
X663287Y457225D01*
X663287Y458048D01*
G74*
D01*
G03X657332Y464003I5955J0*
G01*
X657332Y464003D01*
X651615Y464003D01*
G75*
D01*
G03X645660Y458048I0J-5955*
G01*
X645660Y458048D01*
X645660Y446192D01*
G75*
D01*
G03X651615Y440237I5955J0*
G01*
X651615Y440237D01*
X657332Y440237D01*
G75*
D01*
G03X663287Y446192I0J5955*
G01*
X663287Y446192D01*
X663287Y447015D01*
X679164Y447015D01*
G75*
D01*
G03X684952Y442460I5787J1399*
G01*
X684952Y442460D01*
X696808Y442460D01*
G75*
D01*
G03X702763Y448415I0J5955*
G01*
X702763Y448415D01*
X702763Y454132D01*
G74*
D01*
G03X696808Y460087I5955J0*
G01*
X696808Y460087D01*
X695985Y460087D01*
X695985Y484793D01*
X696808Y484793D01*
D02*
G37*
G36*
X245144Y498012D02*
G75*
D01*
G03X234935Y496780I-6384J9987*
G01*
X234935Y496780D01*
X234935Y446636D01*
X234111Y446636D01*
G75*
D01*
G03X228156Y440681I0J-5955*
G01*
X228156Y440681D01*
X228156Y434964D01*
G75*
D01*
G03X234111Y429009I5955J0*
G01*
X234111Y429009D01*
X245968Y429009D01*
G74*
D01*
G03X251482Y432718I1J5955*
G01*
X251482Y432718D01*
X261795Y432718D01*
G75*
D01*
G03X267310Y429009I5515J2245*
G01*
X267310Y429009D01*
X279166Y429009D01*
G75*
D01*
G03X285121Y434964I0J5955*
G01*
X285121Y434964D01*
X285121Y440681D01*
G74*
D01*
G03X279166Y446636I5955J0*
G01*
X279166Y446636D01*
X267310Y446636D01*
G75*
D01*
G03X261795Y442927I0J-5955*
G01*
X261795Y442927D01*
X251482Y442927D01*
G74*
D01*
G03X245968Y446636I5514J2244*
G01*
X245968Y446636D01*
X245144Y446636D01*
X245144Y498012D01*
D02*
G37*
G36*
X461458Y463563D02*
X461458Y463563D01*
X461458Y496937D01*
G75*
D01*
G03X451249Y497748I-4258J11063*
G01*
X451249Y497748D01*
X451249Y463563D01*
G74*
D01*
G03X447540Y458048I2245J5515*
G01*
X447540Y458048D01*
X447540Y446192D01*
G75*
D01*
G03X451249Y440677I5955J0*
G01*
X451249Y440677D01*
X451249Y422923D01*
G74*
D01*
G03X447540Y417408I2245J5515*
G01*
X447540Y417408D01*
X447540Y405552D01*
G75*
D01*
G03X451249Y400037I5955J0*
G01*
X451249Y400037D01*
X451249Y387363D01*
G74*
D01*
G03X447540Y381848I2245J5515*
G01*
X447540Y381848D01*
X447540Y369992D01*
G75*
D01*
G03X453495Y364037I5955J0*
G01*
X453495Y364037D01*
X459212Y364037D01*
G75*
D01*
G03X465167Y369992I0J5955*
G01*
X465167Y369992D01*
X465167Y381848D01*
G74*
D01*
G03X461458Y387363I5955J0*
G01*
X461458Y387363D01*
X461458Y400037D01*
G75*
D01*
G03X465167Y405552I-2245J5515*
G01*
X465167Y405552D01*
X465167Y417408D01*
G74*
D01*
G03X461458Y422923I5955J0*
G01*
X461458Y422923D01*
X461458Y440677D01*
G75*
D01*
G03X465167Y446192I-2245J5515*
G01*
X465167Y446192D01*
X465167Y458048D01*
G74*
D01*
G03X461458Y463563I5955J0*
G01*
D02*
G37*
G36*
X234111Y410383D02*
X234111Y410383D01*
X236914Y410383D01*
X236914Y416071D01*
X228162Y416071D01*
G75*
D01*
G03X234111Y410383I5948J266*
G01*
D02*
G37*
G36*
X228162Y422321D02*
X228162Y422321D01*
X236914Y422321D01*
X236914Y428009D01*
X234111Y428009D01*
G75*
D01*
G03X228162Y422321I-1J-5954*
G01*
D02*
G37*
G36*
X198991Y239449D02*
G75*
D01*
G03X200160Y242992I-4785J3543*
G01*
X200160Y242992D01*
X200160Y254848D01*
G74*
D01*
G03X194205Y260803I5955J0*
G01*
X194205Y260803D01*
X188488Y260803D01*
G75*
D01*
G03X182533Y254848I0J-5955*
G01*
X182533Y254848D01*
X182533Y242992D01*
G75*
D01*
G03X188488Y237037I5955J0*
G01*
X188488Y237037D01*
X188782Y237037D01*
X188782Y136694D01*
G75*
D01*
G03X188782Y117306I4256J-9694*
G01*
X188782Y117306D01*
X188782Y111294D01*
G75*
D01*
G03X202316Y96495I4260J-9692*
G01*
X202316Y96495D01*
X330626Y96495D01*
X375912Y51209D01*
G75*
D01*
G03X375895Y50790I5087J-416*
G01*
X375895Y50790D01*
X375895Y36099D01*
G75*
D01*
G03X386105Y36099I5105J-10698*
G01*
X386105Y36099D01*
X386105Y48686D01*
X403434Y66015D01*
X457640Y66015D01*
G75*
D01*
G03X457640Y76225I7179J5105*
G01*
X457640Y76225D01*
X401320Y76225D01*
G75*
D01*
G03X399387Y75844I2J-5105*
G01*
G74*
D01*
G03X397711Y74729I1934J4724*
G01*
X397711Y74729D01*
X382270Y59289D01*
X336355Y105203D01*
G74*
D01*
G03X332740Y106705I3616J3601*
G01*
X332740Y106705D01*
X202316Y106705D01*
G74*
D01*
G03X198991Y110357I9275J5105*
G01*
X198991Y110357D01*
X198991Y118243D01*
G75*
D01*
G03X198991Y135757I-5950J8757*
G01*
X198991Y135757D01*
X198991Y239449D01*
D02*
G37*
G36*
X835043Y518744D02*
X835043Y518744D01*
X840156Y518744D01*
X840156Y523857D01*
G74*
D01*
G03X835043Y518744I3124J8237*
G01*
D02*
G37*
G36*
X840156Y507383D02*
X840156Y507383D01*
X840156Y512496D01*
X835043Y512496D01*
G74*
D01*
G03X840156Y507383I8237J3124*
G01*
D02*
G37*
G36*
X846404Y523857D02*
X846404Y523857D01*
X846404Y518744D01*
X851517Y518744D01*
G74*
D01*
G03X846404Y523857I8237J3124*
G01*
D02*
G37*
G36*
X851517Y512496D02*
X851517Y512496D01*
X846404Y512496D01*
X846404Y507383D01*
G74*
D01*
G03X851517Y512496I3124J8237*
G01*
D02*
G37*
G36*
X840280Y515620D02*
G75*
D01*
G03X840280Y515620I3000J0*
G01*
D02*
G37*
G36*
X97137Y504876D02*
X97137Y504876D01*
X92024Y504876D01*
X92024Y499763D01*
G74*
D01*
G03X97137Y504876I3124J8237*
G01*
D02*
G37*
G36*
X85776Y499763D02*
X85776Y499763D01*
X85776Y504876D01*
X80663Y504876D01*
G74*
D01*
G03X85776Y499763I8237J3124*
G01*
D02*
G37*
G36*
X132590Y508000D02*
G75*
D01*
G03X132590Y508000I19810J0*
G01*
D02*
G37*
G36*
X176106Y508000D02*
G75*
D01*
G03X176106Y508000I11854J0*
G01*
D02*
G37*
G36*
X201506Y508000D02*
G75*
D01*
G03X201506Y508000I11854J0*
G01*
D02*
G37*
G36*
X80663Y511124D02*
X80663Y511124D01*
X85776Y511124D01*
X85776Y516237D01*
G74*
D01*
G03X80663Y511124I3124J8237*
G01*
D02*
G37*
G36*
X92024Y516237D02*
X92024Y516237D01*
X92024Y511124D01*
X97137Y511124D01*
G74*
D01*
G03X92024Y516237I8237J3124*
G01*
D02*
G37*
G36*
X85900Y508000D02*
G75*
D01*
G03X85900Y508000I3000J0*
G01*
D02*
G37*
G36*
X521546Y508000D02*
G75*
D01*
G03X521546Y508000I11854J0*
G01*
D02*
G37*
G36*
X546946Y508000D02*
G75*
D01*
G03X546946Y508000I11854J0*
G01*
D02*
G37*
G36*
X572346Y508000D02*
G75*
D01*
G03X572346Y508000I11854J0*
G01*
D02*
G37*
G36*
X597746Y508000D02*
G75*
D01*
G03X597746Y508000I11854J0*
G01*
D02*
G37*
G36*
X646473Y505355D02*
X646473Y505355D01*
X646473Y510645D01*
G74*
D01*
G03X637645Y519473I8828J0*
G01*
X637645Y519473D01*
X632355Y519473D01*
G75*
D01*
G03X623528Y510645I1J-8828*
G01*
X623528Y510645D01*
X623528Y505355D01*
G75*
D01*
G03X632355Y496528I8827J0*
G01*
X632355Y496528D01*
X637645Y496528D01*
G75*
D01*
G03X646473Y505355I1J8827*
G01*
D02*
G37*
G36*
X654130Y508000D02*
G75*
D01*
G03X654130Y508000I8810J0*
G01*
D02*
G37*
G36*
X679003Y509108D02*
G75*
D01*
G03X684952Y503420I5948J266*
G01*
X684952Y503420D01*
X687755Y503420D01*
X687755Y509108D01*
X679003Y509108D01*
D02*
G37*
G36*
X684952Y521047D02*
G75*
D01*
G03X679003Y515359I0J-5955*
G01*
X679003Y515359D01*
X687755Y515359D01*
X687755Y521047D01*
X684952Y521047D01*
D02*
G37*
G36*
X696808Y503420D02*
G74*
D01*
G03X702757Y509108I0J5955*
G01*
X702757Y509108D01*
X694005Y509108D01*
X694005Y503420D01*
X696808Y503420D01*
D02*
G37*
G36*
X702757Y515359D02*
G74*
D01*
G03X696808Y521047I5948J266*
G01*
X696808Y521047D01*
X694005Y521047D01*
X694005Y515359D01*
X702757Y515359D01*
D02*
G37*
G36*
X252306Y508000D02*
G75*
D01*
G03X252306Y508000I11854J0*
G01*
D02*
G37*
G36*
X277706Y508000D02*
G75*
D01*
G03X277706Y508000I11854J0*
G01*
D02*
G37*
G36*
X303106Y508000D02*
G75*
D01*
G03X303106Y508000I11854J0*
G01*
D02*
G37*
G36*
X328506Y508000D02*
G75*
D01*
G03X328506Y508000I11854J0*
G01*
D02*
G37*
G36*
X353906Y508000D02*
G75*
D01*
G03X353906Y508000I11854J0*
G01*
D02*
G37*
G36*
X379306Y508000D02*
G75*
D01*
G03X379306Y508000I11854J0*
G01*
D02*
G37*
G36*
X428033Y505355D02*
X428033Y505355D01*
X428033Y510645D01*
G74*
D01*
G03X419205Y519473I8828J0*
G01*
X419205Y519473D01*
X413915Y519473D01*
G75*
D01*
G03X405088Y510645I1J-8828*
G01*
X405088Y510645D01*
X405088Y505355D01*
G75*
D01*
G03X413915Y496528I8827J0*
G01*
X413915Y496528D01*
X419205Y496528D01*
G75*
D01*
G03X428033Y505355I1J8827*
G01*
D02*
G37*
G36*
X843864Y31097D02*
X843864Y31097D01*
X843864Y25984D01*
X848977Y25984D01*
G74*
D01*
G03X843864Y31097I8237J3124*
G01*
D02*
G37*
G36*
X832503Y25984D02*
X832503Y25984D01*
X837616Y25984D01*
X837616Y31097D01*
G74*
D01*
G03X832503Y25984I3124J8237*
G01*
D02*
G37*
G36*
X848977Y19736D02*
X848977Y19736D01*
X843864Y19736D01*
X843864Y14623D01*
G74*
D01*
G03X848977Y19736I3124J8237*
G01*
D02*
G37*
G36*
X837616Y14623D02*
X837616Y14623D01*
X837616Y19736D01*
X832503Y19736D01*
G74*
D01*
G03X837616Y14623I8237J3124*
G01*
D02*
G37*
G36*
X837740Y22860D02*
G75*
D01*
G03X837740Y22860I3000J0*
G01*
D02*
G37*
G36*
X828657Y431216D02*
X828657Y431216D01*
X823544Y431216D01*
X823544Y426103D01*
G74*
D01*
G03X828657Y431216I3124J8237*
G01*
D02*
G37*
G36*
X812183Y437464D02*
X812183Y437464D01*
X817296Y437464D01*
X817296Y442577D01*
G74*
D01*
G03X812183Y437464I3124J8237*
G01*
D02*
G37*
G36*
X817420Y434340D02*
G75*
D01*
G03X817420Y434340I3000J0*
G01*
D02*
G37*
G36*
X817296Y426103D02*
X817296Y426103D01*
X817296Y431216D01*
X812183Y431216D01*
G74*
D01*
G03X817296Y426103I8237J3124*
G01*
D02*
G37*
G36*
X823544Y442577D02*
X823544Y442577D01*
X823544Y437464D01*
X828657Y437464D01*
G74*
D01*
G03X823544Y442577I8237J3124*
G01*
D02*
G37*
G36*
X640590Y76200D02*
G75*
D01*
G03X640590Y76200I19810J0*
G01*
D02*
G37*
G36*
X623146Y25400D02*
G75*
D01*
G03X623146Y25400I11854J0*
G01*
D02*
G37*
G36*
X597746Y25400D02*
G75*
D01*
G03X597746Y25400I11854J0*
G01*
D02*
G37*
G36*
X572346Y25400D02*
G75*
D01*
G03X572346Y25400I11854J0*
G01*
D02*
G37*
G36*
X546946Y25400D02*
G75*
D01*
G03X546946Y25400I11854J0*
G01*
D02*
G37*
G36*
X521546Y25400D02*
G75*
D01*
G03X521546Y25400I11854J0*
G01*
D02*
G37*
G36*
X440852Y440243D02*
G75*
D01*
G03X446540Y446192I-266J5948*
G01*
X446540Y446192D01*
X446540Y448995D01*
X440852Y448995D01*
X440852Y440243D01*
D02*
G37*
G36*
X391982Y400037D02*
X391982Y400037D01*
X391982Y387363D01*
G74*
D01*
G03X388273Y381848I2245J5515*
G01*
X388273Y381848D01*
X388273Y369992D01*
G75*
D01*
G03X391135Y364903I5955J0*
G01*
X391135Y364903D01*
X391135Y352620D01*
G75*
D01*
G03X401345Y352620I5105J-7179*
G01*
X401345Y352620D01*
X401345Y364204D01*
G75*
D01*
G03X405900Y369992I-1399J5787*
G01*
X405900Y369992D01*
X405900Y381848D01*
G74*
D01*
G03X402191Y387363I5955J0*
G01*
X402191Y387363D01*
X402191Y400037D01*
G75*
D01*
G03X405900Y405552I-2245J5515*
G01*
X405900Y405552D01*
X405900Y417408D01*
G74*
D01*
G03X399945Y423363I5955J0*
G01*
X399945Y423363D01*
X394228Y423363D01*
G75*
D01*
G03X388273Y417408I0J-5955*
G01*
X388273Y417408D01*
X388273Y405552D01*
G75*
D01*
G03X391982Y400037I5955J0*
G01*
D02*
G37*
G36*
X432972Y387493D02*
G74*
D01*
G03X434957Y390576I6252J6206*
G01*
X434957Y390576D01*
X429844Y390576D01*
X429844Y385463D01*
G74*
D01*
G03X430276Y385640I3123J8237*
G01*
G74*
D01*
G03X428913Y381848I4592J3792*
G01*
X428913Y381848D01*
X428913Y381025D01*
X424527Y381025D01*
X424527Y381848D01*
G74*
D01*
G03X423164Y385640I5955J0*
G01*
G74*
D01*
G03X423596Y385463I3555J8060*
G01*
X423596Y385463D01*
X423596Y390576D01*
X418483Y390576D01*
G74*
D01*
G03X420468Y387493I8237J3123*
G01*
G74*
D01*
G03X418572Y387803I1896J5644*
G01*
X418572Y387803D01*
X412855Y387803D01*
G75*
D01*
G03X406900Y381848I0J-5955*
G01*
X406900Y381848D01*
X406900Y369992D01*
G75*
D01*
G03X412855Y364037I5955J0*
G01*
X412855Y364037D01*
X418572Y364037D01*
G75*
D01*
G03X424527Y369992I0J5955*
G01*
X424527Y369992D01*
X424527Y370815D01*
X428913Y370815D01*
X428913Y369992D01*
G75*
D01*
G03X434868Y364037I5955J0*
G01*
X434868Y364037D01*
X440585Y364037D01*
G75*
D01*
G03X446540Y369992I0J5955*
G01*
X446540Y369992D01*
X446540Y381848D01*
G74*
D01*
G03X440585Y387803I5955J0*
G01*
X440585Y387803D01*
X434868Y387803D01*
G75*
D01*
G03X432972Y387493I0J-5955*
G01*
D02*
G37*
G36*
X423164Y401760D02*
G75*
D01*
G03X424527Y405552I-4592J3792*
G01*
X424527Y405552D01*
X424527Y408355D01*
X418839Y408355D01*
X418839Y399603D01*
G74*
D01*
G03X420468Y399907I267J5948*
G01*
G74*
D01*
G03X418483Y396824I6252J6206*
G01*
X418483Y396824D01*
X423596Y396824D01*
X423596Y401937D01*
G74*
D01*
G03X423164Y401760I3123J8237*
G01*
D02*
G37*
G36*
X406900Y405552D02*
G75*
D01*
G03X412588Y399603I5955J0*
G01*
X412588Y399603D01*
X412588Y408355D01*
X406900Y408355D01*
X406900Y405552D01*
D02*
G37*
G36*
X432972Y399907D02*
G74*
D01*
G03X434601Y399603I1896J5644*
G01*
X434601Y399603D01*
X434601Y408355D01*
X428913Y408355D01*
X428913Y405552D01*
G75*
D01*
G03X430276Y401760I5955J0*
G01*
G74*
D01*
G03X429844Y401937I3555J8060*
G01*
X429844Y401937D01*
X429844Y396824D01*
X434957Y396824D01*
G74*
D01*
G03X432972Y399907I8237J3123*
G01*
D02*
G37*
G36*
X423720Y393700D02*
G75*
D01*
G03X423720Y393700I3000J0*
G01*
D02*
G37*
G36*
X440852Y399603D02*
G75*
D01*
G03X446540Y405552I-266J5948*
G01*
X446540Y405552D01*
X446540Y408355D01*
X440852Y408355D01*
X440852Y399603D01*
D02*
G37*
G36*
X245968Y410383D02*
G74*
D01*
G03X251916Y416071I0J5954*
G01*
X251916Y416071D01*
X243165Y416071D01*
X243165Y410383D01*
X245968Y410383D01*
D02*
G37*
G36*
X279166Y410383D02*
G74*
D01*
G03X285115Y416071I1J5954*
G01*
X285115Y416071D01*
X276363Y416071D01*
X276363Y410383D01*
X279166Y410383D01*
D02*
G37*
G36*
X261361Y416071D02*
G75*
D01*
G03X267310Y410383I5948J266*
G01*
X267310Y410383D01*
X270113Y410383D01*
X270113Y416071D01*
X261361Y416071D01*
D02*
G37*
G36*
X424527Y417408D02*
G74*
D01*
G03X418839Y423357I5955J0*
G01*
X418839Y423357D01*
X418839Y414605D01*
X424527Y414605D01*
X424527Y417408D01*
D02*
G37*
G36*
X412588Y423357D02*
G74*
D01*
G03X406900Y417408I266J5948*
G01*
X406900Y417408D01*
X406900Y414605D01*
X412588Y414605D01*
X412588Y423357D01*
D02*
G37*
G36*
X434601Y423357D02*
G74*
D01*
G03X428913Y417408I266J5948*
G01*
X428913Y417408D01*
X428913Y414605D01*
X434601Y414605D01*
X434601Y423357D01*
D02*
G37*
G36*
X446540Y417408D02*
G74*
D01*
G03X440852Y423357I5955J0*
G01*
X440852Y423357D01*
X440852Y414605D01*
X446540Y414605D01*
X446540Y417408D01*
D02*
G37*
G36*
X251916Y422321D02*
G74*
D01*
G03X245968Y428009I5947J265*
G01*
X245968Y428009D01*
X243165Y428009D01*
X243165Y422321D01*
X251916Y422321D01*
D02*
G37*
G36*
X285115Y422321D02*
G74*
D01*
G03X279166Y428009I5948J266*
G01*
X279166Y428009D01*
X276363Y428009D01*
X276363Y422321D01*
X285115Y422321D01*
D02*
G37*
G36*
X267310Y428009D02*
G75*
D01*
G03X261361Y422321I-1J-5954*
G01*
X261361Y422321D01*
X270113Y422321D01*
X270113Y428009D01*
X267310Y428009D01*
D02*
G37*
G36*
X434601Y463997D02*
G74*
D01*
G03X428913Y458048I266J5948*
G01*
X428913Y458048D01*
X428913Y455245D01*
X434601Y455245D01*
X434601Y463997D01*
D02*
G37*
G36*
X428913Y446192D02*
G75*
D01*
G03X434601Y440243I5955J0*
G01*
X434601Y440243D01*
X434601Y448995D01*
X428913Y448995D01*
X428913Y446192D01*
D02*
G37*
G36*
X446540Y458048D02*
G74*
D01*
G03X440852Y463997I5955J0*
G01*
X440852Y463997D01*
X440852Y455245D01*
X446540Y455245D01*
X446540Y458048D01*
D02*
G37*
G36*
X132964Y132105D02*
X132964Y132105D01*
X126116Y132105D01*
G75*
D01*
G03X107564Y132105I-9276J-5103*
G01*
X107564Y132105D01*
X100716Y132105D01*
G75*
D01*
G03X100716Y121895I-9275J-5105*
G01*
X100716Y121895D01*
X107564Y121895D01*
G75*
D01*
G03X126116Y121895I9276J5103*
G01*
X126116Y121895D01*
X132964Y121895D01*
G75*
D01*
G03X132964Y132105I9275J5105*
G01*
D02*
G37*
G36*
X98476Y17163D02*
X98476Y17163D01*
X98476Y22276D01*
X93363Y22276D01*
G74*
D01*
G03X98476Y17163I8237J3124*
G01*
D02*
G37*
G36*
X109837Y22276D02*
X109837Y22276D01*
X104724Y22276D01*
X104724Y17163D01*
G74*
D01*
G03X109837Y22276I3124J8237*
G01*
D02*
G37*
G36*
X119890Y25400D02*
G75*
D01*
G03X119890Y25400I19810J0*
G01*
D02*
G37*
G36*
X98600Y25400D02*
G75*
D01*
G03X98600Y25400I3000J0*
G01*
D02*
G37*
G36*
X93363Y28524D02*
X93363Y28524D01*
X98476Y28524D01*
X98476Y33637D01*
G74*
D01*
G03X93363Y28524I3124J8237*
G01*
D02*
G37*
G36*
X104724Y33637D02*
X104724Y33637D01*
X104724Y28524D01*
X109837Y28524D01*
G74*
D01*
G03X104724Y33637I8237J3124*
G01*
D02*
G37*
G36*
X98218Y90994D02*
G75*
D01*
G03X102046Y94822I0J3828*
G01*
X102046Y94822D01*
X102046Y97839D01*
X95201Y97839D01*
X95201Y90994D01*
X98218Y90994D01*
D02*
G37*
G36*
X86440Y101600D02*
G75*
D01*
G03X86440Y101600I5000J0*
G01*
D02*
G37*
G36*
X80834Y94822D02*
G75*
D01*
G03X84662Y90994I3828J0*
G01*
X84662Y90994D01*
X87679Y90994D01*
X87679Y97839D01*
X80834Y97839D01*
X80834Y94822D01*
D02*
G37*
G36*
X111840Y101600D02*
G75*
D01*
G03X111840Y101600I5000J0*
G01*
D02*
G37*
G36*
X113085Y91700D02*
X113085Y91700D01*
X113085Y97845D01*
X106940Y97845D01*
G74*
D01*
G03X113085Y91700I9900J3755*
G01*
D02*
G37*
G36*
X137240Y101600D02*
G75*
D01*
G03X137240Y101600I5000J0*
G01*
D02*
G37*
G36*
X126740Y97845D02*
X126740Y97845D01*
X120595Y97845D01*
X120595Y91700D01*
G74*
D01*
G03X126740Y97845I3755J9900*
G01*
D02*
G37*
G36*
X138485Y91700D02*
X138485Y91700D01*
X138485Y97845D01*
X132340Y97845D01*
G74*
D01*
G03X138485Y91700I9900J3755*
G01*
D02*
G37*
G36*
X157052Y101600D02*
G75*
D01*
G03X157052Y101600I10588J0*
G01*
D02*
G37*
G36*
X152140Y97845D02*
X152140Y97845D01*
X145995Y97845D01*
X145995Y91700D01*
G74*
D01*
G03X152140Y97845I3755J9900*
G01*
D02*
G37*
G36*
X102046Y108378D02*
G74*
D01*
G03X98218Y112206I3828J0*
G01*
X98218Y112206D01*
X95201Y112206D01*
X95201Y105361D01*
X102046Y105361D01*
X102046Y108378D01*
D02*
G37*
G36*
X80834Y108378D02*
X80834Y108378D01*
X80834Y105361D01*
X87679Y105361D01*
X87679Y112206D01*
X84662Y112206D01*
G75*
D01*
G03X80834Y108378I0J-3828*
G01*
D02*
G37*
G36*
X106940Y105355D02*
X106940Y105355D01*
X113085Y105355D01*
X113085Y111500D01*
G74*
D01*
G03X106940Y105355I3755J9900*
G01*
D02*
G37*
G36*
X120595Y111500D02*
X120595Y111500D01*
X120595Y105355D01*
X126740Y105355D01*
G74*
D01*
G03X120595Y111500I9900J3755*
G01*
D02*
G37*
G36*
X132340Y105355D02*
X132340Y105355D01*
X138485Y105355D01*
X138485Y111500D01*
G74*
D01*
G03X132340Y105355I3755J9900*
G01*
D02*
G37*
G36*
X157052Y127000D02*
G75*
D01*
G03X157052Y127000I10588J0*
G01*
D02*
G37*
G36*
X145995Y111500D02*
X145995Y111500D01*
X145995Y105355D01*
X152140Y105355D01*
G74*
D01*
G03X145995Y111500I9900J3755*
G01*
D02*
G37*
G36*
X600288Y462780D02*
G74*
D01*
G03X606237Y468468I0J5955*
G01*
X606237Y468468D01*
X597485Y468468D01*
X597485Y462780D01*
X600288Y462780D01*
D02*
G37*
G36*
X582644Y457225D02*
X582644Y457225D01*
X561687Y457225D01*
X561687Y458048D01*
G74*
D01*
G03X555732Y464003I5955J0*
G01*
X555732Y464003D01*
X550015Y464003D01*
G75*
D01*
G03X544060Y458048I0J-5955*
G01*
X544060Y458048D01*
X544060Y446192D01*
G75*
D01*
G03X550015Y440237I5955J0*
G01*
X550015Y440237D01*
X555732Y440237D01*
G75*
D01*
G03X561687Y446192I0J5955*
G01*
X561687Y446192D01*
X561687Y447015D01*
X583343Y447015D01*
G75*
D01*
G03X588432Y444153I5089J3093*
G01*
X588432Y444153D01*
X600288Y444153D01*
G74*
D01*
G03X605803Y447862I0J5955*
G01*
X605803Y447862D01*
X627033Y447862D01*
X627033Y446192D01*
G75*
D01*
G03X632988Y440237I5955J0*
G01*
X632988Y440237D01*
X638705Y440237D01*
G75*
D01*
G03X644660Y446192I0J5955*
G01*
X644660Y446192D01*
X644660Y458048D01*
G74*
D01*
G03X638705Y464003I5955J0*
G01*
X638705Y464003D01*
X632988Y464003D01*
G75*
D01*
G03X627033Y458071I0J-5955*
G01*
X627033Y458071D01*
X605803Y458071D01*
G74*
D01*
G03X600288Y461780I5515J2245*
G01*
X600288Y461780D01*
X588432Y461780D01*
G75*
D01*
G03X582644Y457225I0J-5955*
G01*
D02*
G37*
G36*
X502049Y440677D02*
X502049Y440677D01*
X502049Y420344D01*
G75*
D01*
G03X512258Y421102I5791J-8864*
G01*
X512258Y421102D01*
X512258Y440677D01*
G75*
D01*
G03X515967Y446192I-2245J5515*
G01*
X515967Y446192D01*
X515967Y458048D01*
G74*
D01*
G03X510012Y464003I5955J0*
G01*
X510012Y464003D01*
X504295Y464003D01*
G75*
D01*
G03X498340Y458048I0J-5955*
G01*
X498340Y458048D01*
X498340Y446192D01*
G75*
D01*
G03X502049Y440677I5955J0*
G01*
D02*
G37*
G36*
X640590Y355600D02*
G75*
D01*
G03X640590Y355600I19810J0*
G01*
D02*
G37*
G36*
X542395Y421380D02*
X542395Y421380D01*
X542395Y415235D01*
X548540Y415235D01*
G74*
D01*
G03X542395Y421380I9900J3755*
G01*
D02*
G37*
G36*
X534885Y401580D02*
X534885Y401580D01*
X534885Y407725D01*
X528740Y407725D01*
G74*
D01*
G03X534885Y401580I9900J3755*
G01*
D02*
G37*
G36*
X528740Y415235D02*
X528740Y415235D01*
X534885Y415235D01*
X534885Y421380D01*
G74*
D01*
G03X528740Y415235I3755J9900*
G01*
D02*
G37*
G36*
X533640Y411480D02*
G75*
D01*
G03X533640Y411480I5000J0*
G01*
D02*
G37*
G36*
X548540Y407725D02*
X548540Y407725D01*
X542395Y407725D01*
X542395Y401580D01*
G74*
D01*
G03X548540Y407725I3755J9900*
G01*
D02*
G37*
G36*
X582483Y468468D02*
G75*
D01*
G03X588432Y462780I5948J266*
G01*
X588432Y462780D01*
X591235Y462780D01*
X591235Y468468D01*
X582483Y468468D01*
D02*
G37*
G36*
X88553Y242992D02*
G75*
D01*
G03X94241Y237043I5955J0*
G01*
X94241Y237043D01*
X94241Y245795D01*
X88553Y245795D01*
X88553Y242992D01*
D02*
G37*
G36*
X100492Y237043D02*
G75*
D01*
G03X106180Y242992I-266J5948*
G01*
X106180Y242992D01*
X106180Y245795D01*
X100492Y245795D01*
X100492Y237043D01*
D02*
G37*
G36*
X124807Y242992D02*
X124807Y242992D01*
X124807Y243815D01*
X163907Y243815D01*
X163907Y242992D01*
G75*
D01*
G03X169861Y237037I5954J-1*
G01*
X169861Y237037D01*
X175579Y237037D01*
G75*
D01*
G03X181533Y242992I-1J5955*
G01*
X181533Y242992D01*
X181533Y254848D01*
G74*
D01*
G03X175579Y260803I5954J1*
G01*
X175579Y260803D01*
X169861Y260803D01*
G75*
D01*
G03X163907Y254848I1J-5955*
G01*
X163907Y254848D01*
X163907Y254025D01*
X124807Y254025D01*
X124807Y254848D01*
G74*
D01*
G03X118852Y260803I5955J0*
G01*
X118852Y260803D01*
X113135Y260803D01*
G75*
D01*
G03X107180Y254848I0J-5955*
G01*
X107180Y254848D01*
X107180Y242992D01*
G75*
D01*
G03X113135Y237037I5955J0*
G01*
X113135Y237037D01*
X118852Y237037D01*
G75*
D01*
G03X124807Y242992I0J5955*
G01*
D02*
G37*
G36*
X94241Y260797D02*
G74*
D01*
G03X88553Y254848I266J5948*
G01*
X88553Y254848D01*
X88553Y252045D01*
X94241Y252045D01*
X94241Y260797D01*
D02*
G37*
G36*
X106180Y254848D02*
G74*
D01*
G03X100492Y260797I5955J0*
G01*
X100492Y260797D01*
X100492Y252045D01*
X106180Y252045D01*
X106180Y254848D01*
D02*
G37*
G36*
X99645Y298003D02*
G75*
D01*
G03X105333Y303952I-266J5948*
G01*
X105333Y303952D01*
X105333Y306755D01*
X99645Y306755D01*
X99645Y298003D01*
D02*
G37*
G36*
X87707Y303952D02*
G75*
D01*
G03X93395Y298003I5954J-1*
G01*
X93395Y298003D01*
X93395Y306755D01*
X87707Y306755D01*
X87707Y303952D01*
D02*
G37*
G36*
X123960Y303952D02*
X123960Y303952D01*
X123960Y304775D01*
X164753Y304775D01*
X164753Y303952D01*
G75*
D01*
G03X170708Y297997I5955J0*
G01*
X170708Y297997D01*
X176425Y297997D01*
G75*
D01*
G03X182380Y303952I0J5955*
G01*
X182380Y303952D01*
X182380Y315808D01*
G74*
D01*
G03X176425Y321763I5955J0*
G01*
X176425Y321763D01*
X170708Y321763D01*
G75*
D01*
G03X164753Y315808I0J-5955*
G01*
X164753Y315808D01*
X164753Y314985D01*
X123960Y314985D01*
X123960Y315808D01*
G74*
D01*
G03X118005Y321763I5955J0*
G01*
X118005Y321763D01*
X112288Y321763D01*
G75*
D01*
G03X106333Y315808I0J-5955*
G01*
X106333Y315808D01*
X106333Y303952D01*
G75*
D01*
G03X112288Y297997I5955J0*
G01*
X112288Y297997D01*
X118005Y297997D01*
G75*
D01*
G03X123960Y303952I0J5955*
G01*
D02*
G37*
G36*
X105333Y315808D02*
G74*
D01*
G03X99645Y321757I5954J1*
G01*
X99645Y321757D01*
X99645Y313005D01*
X105333Y313005D01*
X105333Y315808D01*
D02*
G37*
G36*
X93395Y321757D02*
G74*
D01*
G03X87707Y315808I266J5948*
G01*
X87707Y315808D01*
X87707Y313005D01*
X93395Y313005D01*
X93395Y321757D01*
D02*
G37*
G36*
X80834Y413178D02*
X80834Y413178D01*
X80834Y399622D01*
G75*
D01*
G03X84662Y395794I3828J0*
G01*
X84662Y395794D01*
X98218Y395794D01*
G75*
D01*
G03X102046Y399622I0J3828*
G01*
X102046Y399622D01*
X102046Y413178D01*
G74*
D01*
G03X98218Y417006I3828J0*
G01*
X98218Y417006D01*
X84662Y417006D01*
G75*
D01*
G03X80834Y413178I0J-3828*
G01*
D02*
G37*
G36*
X106252Y406400D02*
G75*
D01*
G03X106252Y406400I10588J0*
G01*
D02*
G37*
G36*
X131652Y406400D02*
G75*
D01*
G03X131652Y406400I10588J0*
G01*
D02*
G37*
G36*
X157052Y406400D02*
G75*
D01*
G03X157052Y406400I10588J0*
G01*
D02*
G37*
G36*
X182452Y406400D02*
G75*
D01*
G03X182452Y406400I10588J0*
G01*
D02*
G37*
G36*
X81540Y435555D02*
X81540Y435555D01*
X87685Y435555D01*
X87685Y441700D01*
G74*
D01*
G03X81540Y435555I3755J9900*
G01*
D02*
G37*
G36*
X95195Y441700D02*
X95195Y441700D01*
X95195Y435555D01*
X101340Y435555D01*
G74*
D01*
G03X95195Y441700I9900J3755*
G01*
D02*
G37*
G36*
X101340Y428045D02*
X101340Y428045D01*
X95195Y428045D01*
X95195Y421900D01*
G74*
D01*
G03X101340Y428045I3755J9900*
G01*
D02*
G37*
G36*
X87685Y421900D02*
X87685Y421900D01*
X87685Y428045D01*
X81540Y428045D01*
G74*
D01*
G03X87685Y421900I9900J3755*
G01*
D02*
G37*
G36*
X86440Y431800D02*
G75*
D01*
G03X86440Y431800I5000J0*
G01*
D02*
G37*
G36*
X106252Y431800D02*
G75*
D01*
G03X106252Y431800I10588J0*
G01*
D02*
G37*
G36*
X131652Y431800D02*
G75*
D01*
G03X131652Y431800I10588J0*
G01*
D02*
G37*
G36*
X157052Y431800D02*
G75*
D01*
G03X157052Y431800I10588J0*
G01*
D02*
G37*
G36*
X182452Y431800D02*
G75*
D01*
G03X182452Y431800I10588J0*
G01*
D02*
G37*
G36*
X267928Y28045D02*
X267928Y28045D01*
X267928Y22755D01*
G75*
D01*
G03X276755Y13928I8827J0*
G01*
X276755Y13928D01*
X282045Y13928D01*
G75*
D01*
G03X290873Y22755I1J8827*
G01*
X290873Y22755D01*
X290873Y28045D01*
G74*
D01*
G03X282045Y36873I8828J0*
G01*
X282045Y36873D01*
X276755Y36873D01*
G75*
D01*
G03X267928Y28045I1J-8828*
G01*
D02*
G37*
G36*
X292946Y25400D02*
G75*
D01*
G03X292946Y25400I11854J0*
G01*
D02*
G37*
G36*
X318346Y25400D02*
G75*
D01*
G03X318346Y25400I11854J0*
G01*
D02*
G37*
G36*
X343746Y25400D02*
G75*
D01*
G03X343746Y25400I11854J0*
G01*
D02*
G37*
G36*
X402196Y14316D02*
X402196Y14316D01*
X402196Y21196D01*
X395316Y21196D01*
G74*
D01*
G03X402196Y14316I11084J4204*
G01*
D02*
G37*
G36*
X417484Y21196D02*
X417484Y21196D01*
X410604Y21196D01*
X410604Y14316D01*
G74*
D01*
G03X417484Y21196I4204J11084*
G01*
D02*
G37*
G36*
X419946Y25400D02*
G75*
D01*
G03X419946Y25400I11854J0*
G01*
D02*
G37*
G36*
X445346Y25400D02*
G75*
D01*
G03X445346Y25400I11854J0*
G01*
D02*
G37*
G36*
X395316Y29604D02*
X395316Y29604D01*
X402196Y29604D01*
X402196Y36484D01*
G74*
D01*
G03X395316Y29604I4204J11084*
G01*
D02*
G37*
G36*
X410604Y36484D02*
X410604Y36484D01*
X410604Y29604D01*
X417484Y29604D01*
G74*
D01*
G03X410604Y36484I11084J4204*
G01*
D02*
G37*
G36*
X401955Y25400D02*
G75*
D01*
G03X401955Y25400I4445J0*
G01*
D02*
G37*
%LPD*%
G36*
X757505Y234308D02*
X757505Y234308D01*
X763197Y240000D01*
X763197Y240000D01*
X775880Y252683D01*
X775880Y252683D01*
X785220Y262023D01*
G75*
D01*
G03X776303Y270940I2579J11496*
G01*
X776303Y270940D01*
X775880Y270517D01*
X775880Y270517D01*
X754892Y249529D01*
G74*
D01*
G03X751562Y250789I3329J3769*
G01*
X751562Y250789D01*
X741062Y250789D01*
G75*
D01*
G03X736812Y248449I0J-5029*
G01*
G74*
D01*
G03X733617Y250677I4250J2689*
G01*
X733617Y250677D01*
X733617Y272580D01*
X775880Y314843D01*
X775880Y314843D01*
X776990Y315953D01*
X783168Y315953D01*
G74*
D01*
G03X789439Y319661I1J7155*
G01*
X789439Y319661D01*
X821133Y319661D01*
G75*
D01*
G03X827404Y315953I6270J3447*
G01*
X827404Y315953D01*
X839260Y315953D01*
G75*
D01*
G03X846416Y323108I1J7155*
G01*
X846416Y323108D01*
X846416Y328825D01*
G74*
D01*
G03X842348Y335280I7156J0*
G01*
G74*
D01*
G03X846382Y341042I3087J6455*
G01*
X846382Y341042D01*
X836883Y341042D01*
X836883Y335981D01*
X829781Y335981D01*
X829781Y341042D01*
X820282Y341042D01*
G74*
D01*
G03X824316Y335280I7121J693*
G01*
G74*
D01*
G03X821133Y332272I3087J6455*
G01*
X821133Y332272D01*
X789439Y332272D01*
G74*
D01*
G03X786256Y335280I6270J3447*
G01*
G74*
D01*
G03X790290Y341042I3087J6455*
G01*
X790290Y341042D01*
X780791Y341042D01*
X780791Y335981D01*
X773689Y335981D01*
X773689Y341042D01*
X764190Y341042D01*
G74*
D01*
G03X768224Y335280I7121J693*
G01*
G74*
D01*
G03X764156Y328825I3087J6455*
G01*
X764156Y328825D01*
X764156Y323108D01*
G75*
D01*
G03X764413Y321210I7156J3*
G01*
X764413Y321210D01*
X741680Y298477D01*
X741680Y358140D01*
X861111Y358140D01*
X861111Y93980D01*
X726440Y93980D01*
X726440Y139700D01*
X574040Y139700D01*
X574040Y101600D01*
X513035Y101600D01*
X513035Y116690D01*
G74*
D01*
G03X513080Y116729I3270J3819*
G01*
G75*
D01*
G03X516430Y115451I3350J3751*
G01*
X516430Y115451D01*
X522430Y115451D01*
G74*
D01*
G03X525780Y116729I0J5029*
G01*
G75*
D01*
G03X529130Y115451I3350J3751*
G01*
X529130Y115451D01*
X535130Y115451D01*
G75*
D01*
G03X540159Y120480I0J5029*
G01*
X540159Y120480D01*
X540159Y142480D01*
G74*
D01*
G03X538627Y146095I5029J1*
G01*
X538627Y146095D01*
X546205Y146095D01*
G74*
D01*
G03X549784Y142240I6667J2601*
G01*
G74*
D01*
G03X545750Y136478I3087J6455*
G01*
X545750Y136478D01*
X555249Y136478D01*
X555249Y141539D01*
X562351Y141539D01*
X562351Y136478D01*
X571850Y136478D01*
G74*
D01*
G03X567816Y142240I7121J693*
G01*
G74*
D01*
G03X571381Y146059I3087J6455*
G01*
G75*
D01*
G03X589071Y153434I7739J6342*
G01*
X589071Y153434D01*
X599659Y164021D01*
G75*
D01*
G03X601512Y168487I-4452J4465*
G01*
X601512Y168487D01*
X601512Y170681D01*
G74*
D01*
G03X604520Y173864I3447J6270*
G01*
G74*
D01*
G03X610282Y169830I6455J3087*
G01*
X610282Y169830D01*
X610282Y179329D01*
X605221Y179329D01*
X605221Y186431D01*
X610282Y186431D01*
X610282Y195930D01*
G74*
D01*
G03X604520Y191896I693J7121*
G01*
G74*
D01*
G03X602285Y194587I6455J3087*
G01*
X602285Y194587D01*
X613291Y205594D01*
X613291Y201470D01*
G75*
D01*
G03X618320Y196441I5029J0*
G01*
X618320Y196441D01*
X623015Y196441D01*
X623015Y192159D01*
G74*
D01*
G03X617384Y195930I6323J3351*
G01*
X617384Y195930D01*
X617384Y186431D01*
X623015Y186431D01*
X623015Y179329D01*
X617384Y179329D01*
X617384Y169830D01*
G74*
D01*
G03X623015Y173602I692J7121*
G01*
X623015Y173602D01*
X623015Y171683D01*
G75*
D01*
G03X624861Y167211I6305J-14*
G01*
X624861Y167211D01*
X633495Y158577D01*
X633495Y151552D01*
G75*
D01*
G03X640651Y144396I7156J0*
G01*
X640651Y144396D01*
X646368Y144396D01*
G74*
D01*
G03X652823Y148464I0J7156*
G01*
G75*
D01*
G03X659277Y144396I6454J3086*
G01*
X659277Y144396D01*
X664995Y144396D01*
G75*
D01*
G03X672150Y151552I-1J7156*
G01*
X672150Y151552D01*
X672150Y158577D01*
X685772Y172199D01*
G75*
D01*
G03X687625Y176664I-4452J4465*
G01*
X687625Y176664D01*
X687625Y196441D01*
X692320Y196441D01*
G75*
D01*
G03X697349Y201470I0J5029*
G01*
X697349Y201470D01*
X697349Y207470D01*
G74*
D01*
G03X696071Y210820I5029J0*
G01*
G74*
D01*
G03X696110Y210865I3781J3316*
G01*
X696110Y210865D01*
X715810Y210865D01*
X717033Y209642D01*
X717033Y201280D01*
G75*
D01*
G03X721007Y196363I5029J0*
G01*
X721007Y196363D01*
X721007Y166782D01*
G75*
D01*
G03X722853Y162309I6305J-15*
G01*
X722853Y162309D01*
X759288Y125874D01*
X759288Y123295D01*
G75*
D01*
G03X763356Y116840I7156J0*
G01*
G74*
D01*
G03X759322Y111078I3087J6455*
G01*
X759322Y111078D01*
X768821Y111078D01*
X768821Y116139D01*
X775923Y116139D01*
X775923Y111078D01*
X785422Y111078D01*
G74*
D01*
G03X781388Y116840I7121J693*
G01*
G74*
D01*
G03X784571Y119848I3087J6455*
G01*
X784571Y119848D01*
X815841Y119848D01*
G74*
D01*
G03X819024Y116840I6270J3447*
G01*
G74*
D01*
G03X814990Y111078I3087J6455*
G01*
X814990Y111078D01*
X824489Y111078D01*
X824489Y116139D01*
X831591Y116139D01*
X831591Y111078D01*
X841090Y111078D01*
G74*
D01*
G03X837056Y116840I7121J693*
G01*
G75*
D01*
G03X841124Y123295I-3087J6455*
G01*
X841124Y123295D01*
X841124Y129012D01*
G74*
D01*
G03X833968Y136167I7156J1*
G01*
X833968Y136167D01*
X822112Y136167D01*
G75*
D01*
G03X815841Y132459I-1J-7155*
G01*
X815841Y132459D01*
X784571Y132459D01*
G74*
D01*
G03X778300Y136167I6270J3447*
G01*
X778300Y136167D01*
X766830Y136167D01*
X733617Y169380D01*
X733617Y196363D01*
G74*
D01*
G03X736812Y198591I1054J4916*
G01*
G75*
D01*
G03X741062Y196251I4250J2689*
G01*
X741062Y196251D01*
X751562Y196251D01*
G74*
D01*
G03X754892Y197511I1J5029*
G01*
X754892Y197511D01*
X775880Y176523D01*
X776303Y176100D01*
G75*
D01*
G03X785220Y185017I11496J-2579*
G01*
X785220Y185017D01*
X757505Y212732D01*
G74*
D01*
G03X756591Y213490I4464J4453*
G01*
X756591Y213490D01*
X756591Y215280D01*
G74*
D01*
G03X751562Y220309I5029J0*
G01*
X751562Y220309D01*
X741062Y220309D01*
G75*
D01*
G03X736812Y217969I0J-5029*
G01*
G74*
D01*
G03X732562Y220309I4250J2689*
G01*
X732562Y220309D01*
X724200Y220309D01*
X722887Y221622D01*
G74*
D01*
G03X718422Y223475I4465J4452*
G01*
X718422Y223475D01*
X696110Y223475D01*
G74*
D01*
G03X696071Y223520I3819J3270*
G01*
G74*
D01*
G03X696110Y223565I3781J3316*
G01*
X696110Y223565D01*
X718422Y223565D01*
G74*
D01*
G03X722887Y225418I0J6305*
G01*
X722887Y225418D01*
X724200Y226731D01*
X732562Y226731D01*
G74*
D01*
G03X736812Y229071I0J5029*
G01*
G75*
D01*
G03X741062Y226731I4250J2689*
G01*
X741062Y226731D01*
X751562Y226731D01*
G75*
D01*
G03X756591Y231760I0J5029*
G01*
X756591Y231760D01*
X756591Y233550D01*
G74*
D01*
G03X757505Y234308I3550J5211*
G01*
D02*
G37*
%LPC*%
G36*
X771312Y354607D02*
G75*
D01*
G03X764190Y348144I-1J-7155*
G01*
X764190Y348144D01*
X773689Y348144D01*
X773689Y354607D01*
X771312Y354607D01*
D02*
G37*
G36*
X827404Y354607D02*
G75*
D01*
G03X820282Y348144I-1J-7155*
G01*
X820282Y348144D01*
X829781Y348144D01*
X829781Y354607D01*
X827404Y354607D01*
D02*
G37*
G36*
X801632Y338625D02*
X801632Y338625D01*
X801632Y344432D01*
X795825Y344432D01*
G74*
D01*
G03X801632Y338625I9355J3548*
G01*
D02*
G37*
G36*
X814535Y344432D02*
X814535Y344432D01*
X808728Y344432D01*
X808728Y338625D01*
G74*
D01*
G03X814535Y344432I3548J9355*
G01*
D02*
G37*
G36*
X795825Y351528D02*
X795825Y351528D01*
X801632Y351528D01*
X801632Y357335D01*
G74*
D01*
G03X795825Y351528I3548J9355*
G01*
D02*
G37*
G36*
X790290Y348144D02*
G74*
D01*
G03X783168Y354607I7121J692*
G01*
X783168Y354607D01*
X780791Y354607D01*
X780791Y348144D01*
X790290Y348144D01*
D02*
G37*
G36*
X808728Y357335D02*
X808728Y357335D01*
X808728Y351528D01*
X814535Y351528D01*
G74*
D01*
G03X808728Y357335I9355J3548*
G01*
D02*
G37*
G36*
X802180Y347980D02*
G75*
D01*
G03X802180Y347980I3000J0*
G01*
D02*
G37*
G36*
X846382Y348144D02*
G74*
D01*
G03X839260Y354607I7121J692*
G01*
X839260Y354607D01*
X836883Y354607D01*
X836883Y348144D01*
X846382Y348144D01*
D02*
G37*
G36*
X841978Y234537D02*
X841978Y234537D01*
X841978Y227698D01*
X848817Y227698D01*
G74*
D01*
G03X841978Y234537I11017J4178*
G01*
D02*
G37*
G36*
X778300Y97513D02*
G74*
D01*
G03X785422Y103976I1J7155*
G01*
X785422Y103976D01*
X775923Y103976D01*
X775923Y97513D01*
X778300Y97513D01*
D02*
G37*
G36*
X796552Y99865D02*
X796552Y99865D01*
X796552Y105672D01*
X790745Y105672D01*
G74*
D01*
G03X796552Y99865I9355J3548*
G01*
D02*
G37*
G36*
X814990Y103976D02*
G75*
D01*
G03X822112Y97513I7121J692*
G01*
X822112Y97513D01*
X824489Y97513D01*
X824489Y103976D01*
X814990Y103976D01*
D02*
G37*
G36*
X809455Y105672D02*
X809455Y105672D01*
X803648Y105672D01*
X803648Y99865D01*
G74*
D01*
G03X809455Y105672I3548J9355*
G01*
D02*
G37*
G36*
X833968Y97513D02*
G74*
D01*
G03X841090Y103976I1J7155*
G01*
X841090Y103976D01*
X831591Y103976D01*
X831591Y97513D01*
X833968Y97513D01*
D02*
G37*
G36*
X797100Y109220D02*
G75*
D01*
G03X797100Y109220I3000J0*
G01*
D02*
G37*
G36*
X790745Y112768D02*
X790745Y112768D01*
X796552Y112768D01*
X796552Y118575D01*
G74*
D01*
G03X790745Y112768I3548J9355*
G01*
D02*
G37*
G36*
X803648Y118575D02*
X803648Y118575D01*
X803648Y112768D01*
X809455Y112768D01*
G74*
D01*
G03X803648Y118575I9355J3548*
G01*
D02*
G37*
G36*
X832800Y223520D02*
G75*
D01*
G03X832800Y223520I5000J0*
G01*
D02*
G37*
G36*
X833622Y212503D02*
X833622Y212503D01*
X833622Y219342D01*
X826783Y219342D01*
G74*
D01*
G03X833622Y212503I11017J4178*
G01*
D02*
G37*
G36*
X848817Y219342D02*
X848817Y219342D01*
X841978Y219342D01*
X841978Y212503D01*
G74*
D01*
G03X848817Y219342I4178J11017*
G01*
D02*
G37*
G36*
X826783Y227698D02*
X826783Y227698D01*
X833622Y227698D01*
X833622Y234537D01*
G74*
D01*
G03X826783Y227698I4178J11017*
G01*
D02*
G37*
G36*
X618228Y159215D02*
X618228Y159215D01*
X618228Y153408D01*
X624035Y153408D01*
G74*
D01*
G03X618228Y159215I9355J3548*
G01*
D02*
G37*
G36*
X709668Y189695D02*
X709668Y189695D01*
X709668Y183888D01*
X715475Y183888D01*
G74*
D01*
G03X709668Y189695I9355J3548*
G01*
D02*
G37*
G36*
X696765Y183888D02*
X696765Y183888D01*
X702572Y183888D01*
X702572Y189695D01*
G74*
D01*
G03X696765Y183888I3548J9355*
G01*
D02*
G37*
G36*
X715475Y176792D02*
X715475Y176792D01*
X709668Y176792D01*
X709668Y170985D01*
G74*
D01*
G03X715475Y176792I3548J9355*
G01*
D02*
G37*
G36*
X703120Y180340D02*
G75*
D01*
G03X703120Y180340I3000J0*
G01*
D02*
G37*
G36*
X702572Y170985D02*
X702572Y170985D01*
X702572Y176792D01*
X696765Y176792D01*
G74*
D01*
G03X702572Y170985I9355J3548*
G01*
D02*
G37*
G36*
X611680Y149860D02*
G75*
D01*
G03X611680Y149860I3000J0*
G01*
D02*
G37*
G36*
X611132Y140505D02*
X611132Y140505D01*
X611132Y146312D01*
X605325Y146312D01*
G74*
D01*
G03X611132Y140505I9355J3548*
G01*
D02*
G37*
G36*
X605325Y153408D02*
X605325Y153408D01*
X611132Y153408D01*
X611132Y159215D01*
G74*
D01*
G03X605325Y153408I3548J9355*
G01*
D02*
G37*
G36*
X624035Y146312D02*
X624035Y146312D01*
X618228Y146312D01*
X618228Y140505D01*
G74*
D01*
G03X624035Y146312I3548J9355*
G01*
D02*
G37*
G36*
X564728Y122913D02*
G74*
D01*
G03X571850Y129376I1J7155*
G01*
X571850Y129376D01*
X562351Y129376D01*
X562351Y122913D01*
X564728Y122913D01*
D02*
G37*
G36*
X545750Y129376D02*
G75*
D01*
G03X552872Y122913I7121J692*
G01*
X552872Y122913D01*
X555249Y122913D01*
X555249Y129376D01*
X545750Y129376D01*
D02*
G37*
G36*
X568155Y108212D02*
X568155Y108212D01*
X562348Y108212D01*
X562348Y102405D01*
G74*
D01*
G03X568155Y108212I3548J9355*
G01*
D02*
G37*
G36*
X562348Y121115D02*
X562348Y121115D01*
X562348Y115308D01*
X568155Y115308D01*
G74*
D01*
G03X562348Y121115I9355J3548*
G01*
D02*
G37*
G36*
X555252Y102405D02*
X555252Y102405D01*
X555252Y108212D01*
X549445Y108212D01*
G74*
D01*
G03X555252Y102405I9355J3548*
G01*
D02*
G37*
G36*
X555800Y111760D02*
G75*
D01*
G03X555800Y111760I3000J0*
G01*
D02*
G37*
G36*
X549445Y115308D02*
X549445Y115308D01*
X555252Y115308D01*
X555252Y121115D01*
G74*
D01*
G03X549445Y115308I3548J9355*
G01*
D02*
G37*
G36*
X759322Y103976D02*
G75*
D01*
G03X766444Y97513I7121J692*
G01*
X766444Y97513D01*
X768821Y97513D01*
X768821Y103976D01*
X759322Y103976D01*
D02*
G37*
%LPD*%
G36*
X572028Y246764D02*
G75*
D01*
G03X564883Y239985I1J-7156*
G01*
X564883Y239985D01*
X542557Y239985D01*
G74*
D01*
G03X542245Y241731I7144J376*
G01*
X542245Y241731D01*
X542245Y259286D01*
G75*
D01*
G03X529635Y259286I-6305J9953*
G01*
X529635Y259286D01*
X529635Y246763D01*
G74*
D01*
G03X523240Y242696I59J7155*
G01*
G74*
D01*
G03X520232Y245879I6455J3087*
G01*
X520232Y245879D01*
X520232Y262539D01*
G75*
D01*
G03X507621Y257824I-9692J6700*
G01*
X507621Y257824D01*
X507621Y245879D01*
G74*
D01*
G03X503913Y239608I3447J6270*
G01*
X503913Y239608D01*
X503913Y232583D01*
X503541Y232212D01*
G75*
D01*
G03X501695Y227739I4459J-4458*
G01*
X501695Y227739D01*
X501695Y221128D01*
G74*
D01*
G03X498014Y213972I6304J7768*
G01*
G74*
D01*
G03X496845Y214393I2710J5693*
G01*
G74*
D01*
G03X491445Y221146I7153J184*
G01*
X491445Y221146D01*
X491445Y228452D01*
G75*
D01*
G03X478835Y228452I-6305J7767*
G01*
X478835Y228452D01*
X478835Y219186D01*
G74*
D01*
G03X477520Y217296I5139J4978*
G01*
G74*
D01*
G03X471758Y221330I6455J3087*
G01*
X471758Y221330D01*
X471758Y211831D01*
X476819Y211831D01*
X476819Y204729D01*
X471758Y204729D01*
X471758Y195230D01*
G74*
D01*
G03X477520Y199264I693J7121*
G01*
G75*
D01*
G03X483975Y195196I6455J3087*
G01*
X483975Y195196D01*
X486052Y195196D01*
G74*
D01*
G03X486001Y194480I4978J714*
G01*
X486001Y194480D01*
X486001Y189785D01*
X448265Y189785D01*
X448265Y196507D01*
G74*
D01*
G03X448572Y196385I3848J9235*
G01*
X448572Y196385D01*
X448572Y202192D01*
X448265Y202192D01*
X448265Y209288D01*
X448572Y209288D01*
X448572Y214385D01*
G75*
D01*
G03X455044Y221508I-683J7122*
G01*
X455044Y221508D01*
X455044Y227225D01*
G74*
D01*
G03X450976Y233680I7156J0*
G01*
G75*
D01*
G03X455044Y240135I-3087J6455*
G01*
X455044Y240135D01*
X455044Y245852D01*
G74*
D01*
G03X452235Y251536I7156J0*
G01*
X452235Y251536D01*
X480721Y280021D01*
G74*
D01*
G03X481024Y280347I4464J4453*
G01*
G74*
D01*
G03X481350Y280650I4127J4767*
G01*
X481350Y280650D01*
X497880Y297180D01*
X621003Y297180D01*
X653401Y264781D01*
G75*
D01*
G03X657867Y262935I4458J4459*
G01*
X657867Y262935D01*
X671563Y262935D01*
G74*
D01*
G03X675261Y257041I7144J375*
G01*
X675261Y257041D01*
X675261Y250599D01*
X670320Y250599D01*
G75*
D01*
G03X665291Y245570I0J-5029*
G01*
X665291Y245570D01*
X665291Y239570D01*
G75*
D01*
G03X666569Y236220I5029J0*
G01*
G74*
D01*
G03X665291Y232870I3751J3350*
G01*
X665291Y232870D01*
X665291Y226870D01*
G75*
D01*
G03X666569Y223520I5029J0*
G01*
G74*
D01*
G03X665291Y220170I3751J3350*
G01*
X665291Y220170D01*
X665291Y214170D01*
G75*
D01*
G03X666569Y210820I5029J0*
G01*
G74*
D01*
G03X665291Y207470I3751J3350*
G01*
X665291Y207470D01*
X665291Y201470D01*
G75*
D01*
G03X670320Y196441I5029J0*
G01*
X670320Y196441D01*
X675015Y196441D01*
X675015Y179276D01*
X666200Y170461D01*
G74*
D01*
G03X664995Y170564I1210J7052*
G01*
X664995Y170564D01*
X659277Y170564D01*
G75*
D01*
G03X652823Y166496I1J-7156*
G01*
G74*
D01*
G03X646368Y170564I6455J3087*
G01*
X646368Y170564D01*
X640651Y170564D01*
G75*
D01*
G03X639445Y170461I4J-7156*
G01*
X639445Y170461D01*
X635625Y174281D01*
X635625Y196441D01*
X640320Y196441D01*
G75*
D01*
G03X645349Y201470I0J5029*
G01*
X645349Y201470D01*
X645349Y207470D01*
G74*
D01*
G03X644071Y210820I5029J0*
G01*
G75*
D01*
G03X645349Y214170I-3751J3350*
G01*
X645349Y214170D01*
X645349Y220170D01*
G74*
D01*
G03X644071Y223520I5029J0*
G01*
G75*
D01*
G03X645349Y226870I-3751J3350*
G01*
X645349Y226870D01*
X645349Y232870D01*
G74*
D01*
G03X644071Y236220I5029J0*
G01*
G75*
D01*
G03X645349Y239570I-3751J3350*
G01*
X645349Y239570D01*
X645349Y239723D01*
X632167Y239723D01*
X632167Y237899D01*
X626473Y237899D01*
X626473Y239723D01*
X613291Y239723D01*
X613291Y239570D01*
G75*
D01*
G03X614569Y236220I5029J0*
G01*
G74*
D01*
G03X614530Y236175I3781J3316*
G01*
X614530Y236175D01*
X603527Y236175D01*
X603527Y239608D01*
G74*
D01*
G03X596372Y246764I7155J1*
G01*
X596372Y246764D01*
X590655Y246764D01*
G75*
D01*
G03X584200Y242696I0J-7156*
G01*
G74*
D01*
G03X577745Y246764I6455J3087*
G01*
X577745Y246764D01*
X572028Y246764D01*
D02*
G37*
%LPC*%
G36*
X449120Y205740D02*
G75*
D01*
G03X449120Y205740I3000J0*
G01*
D02*
G37*
G36*
X460057Y211831D02*
X460057Y211831D01*
X464656Y211831D01*
X464656Y221330D01*
G74*
D01*
G03X458193Y214208I692J7121*
G01*
X458193Y214208D01*
X458193Y213691D01*
G74*
D01*
G03X455668Y215095I6073J7950*
G01*
X455668Y215095D01*
X455668Y209288D01*
X461475Y209288D01*
G74*
D01*
G03X460057Y211831I9354J3549*
G01*
D02*
G37*
G36*
X458194Y202192D02*
X458194Y202192D01*
X455668Y202192D01*
X455668Y196385D01*
G74*
D01*
G03X459207Y198678I3549J9355*
G01*
G74*
D01*
G03X464656Y195230I6141J3675*
G01*
X464656Y195230D01*
X464656Y204729D01*
X458193Y204729D01*
X458193Y202352D01*
G75*
D01*
G03X458194Y202192I7155J-35*
G01*
D02*
G37*
G36*
X623308Y273515D02*
X623308Y273515D01*
X623308Y267708D01*
X629115Y267708D01*
G74*
D01*
G03X623308Y273515I9355J3548*
G01*
D02*
G37*
G36*
X610405Y267708D02*
X610405Y267708D01*
X616212Y267708D01*
X616212Y273515D01*
G74*
D01*
G03X610405Y267708I3548J9355*
G01*
D02*
G37*
G36*
X616760Y264160D02*
G75*
D01*
G03X616760Y264160I3000J0*
G01*
D02*
G37*
G36*
X618320Y250599D02*
G75*
D01*
G03X613291Y245570I0J-5029*
G01*
X613291Y245570D01*
X613291Y245417D01*
X626473Y245417D01*
X626473Y250599D01*
X618320Y250599D01*
D02*
G37*
G36*
X616212Y254805D02*
X616212Y254805D01*
X616212Y260612D01*
X610405Y260612D01*
G74*
D01*
G03X616212Y254805I9355J3548*
G01*
D02*
G37*
G36*
X645349Y245570D02*
G74*
D01*
G03X640320Y250599I5029J0*
G01*
X640320Y250599D01*
X632167Y250599D01*
X632167Y245417D01*
X645349Y245417D01*
X645349Y245570D01*
D02*
G37*
G36*
X629115Y260612D02*
X629115Y260612D01*
X623308Y260612D01*
X623308Y254805D01*
G74*
D01*
G03X629115Y260612I3548J9355*
G01*
D02*
G37*
%LPD*%
G36*
X428876Y240135D02*
G75*
D01*
G03X432944Y233680I7156J0*
G01*
G74*
D01*
G03X428876Y227225I3087J6455*
G01*
X428876Y227225D01*
X428876Y221508D01*
G75*
D01*
G03X435655Y214363I7156J1*
G01*
X435655Y214363D01*
X435655Y189667D01*
G74*
D01*
G03X428876Y182521I376J7145*
G01*
X428876Y182521D01*
X428876Y176804D01*
G75*
D01*
G03X432944Y170349I7156J0*
G01*
G74*
D01*
G03X428910Y164587I3086J6454*
G01*
X428910Y164587D01*
X438409Y164587D01*
X438409Y169649D01*
X445511Y169649D01*
X445511Y164587D01*
X455010Y164587D01*
G74*
D01*
G03X450976Y170349I7121J693*
G01*
G75*
D01*
G03X455044Y176804I-3087J6455*
G01*
X455044Y176804D01*
X455044Y177175D01*
X486001Y177175D01*
X486001Y172480D01*
G75*
D01*
G03X491030Y167451I5029J0*
G01*
X491030Y167451D01*
X497030Y167451D01*
G74*
D01*
G03X500380Y168729I0J5029*
G01*
G74*
D01*
G03X501836Y167821I3350J3751*
G01*
G75*
D01*
G03X501695Y152172I6164J-7881*
G01*
X501695Y152172D01*
X501695Y147079D01*
G74*
D01*
G03X500380Y146231I2035J4599*
G01*
G74*
D01*
G03X497030Y147509I3350J3751*
G01*
X497030Y147509D01*
X491030Y147509D01*
G75*
D01*
G03X486001Y142480I0J-5029*
G01*
X486001Y142480D01*
X486001Y120480D01*
G75*
D01*
G03X491030Y115451I5029J0*
G01*
X491030Y115451D01*
X497030Y115451D01*
G74*
D01*
G03X500380Y116729I0J5029*
G01*
G74*
D01*
G03X500425Y116690I3316J3781*
G01*
X500425Y116690D01*
X500425Y101600D01*
X421640Y101600D01*
X421640Y297180D01*
X480045Y297180D01*
X472433Y289567D01*
G74*
D01*
G03X472129Y289242I4449J4466*
G01*
G74*
D01*
G03X471804Y288939I4134J4760*
G01*
X471804Y288939D01*
X437501Y254636D01*
G74*
D01*
G03X436325Y253007I4459J4458*
G01*
X436325Y253007D01*
X436032Y253007D01*
G75*
D01*
G03X428876Y245852I-1J-7155*
G01*
X428876Y245852D01*
X428876Y240135D01*
D02*
G37*
%LPC*%
G36*
X447888Y151022D02*
G74*
D01*
G03X455010Y157485I1J7155*
G01*
X455010Y157485D01*
X445511Y157485D01*
X445511Y151022D01*
X447888Y151022D01*
D02*
G37*
G36*
X445508Y146515D02*
X445508Y146515D01*
X445508Y140708D01*
X451315Y140708D01*
G74*
D01*
G03X445508Y146515I9355J3548*
G01*
D02*
G37*
G36*
X428910Y157485D02*
G75*
D01*
G03X436032Y151022I7121J692*
G01*
X436032Y151022D01*
X438409Y151022D01*
X438409Y157485D01*
X428910Y157485D01*
D02*
G37*
G36*
X432605Y140708D02*
X432605Y140708D01*
X438412Y140708D01*
X438412Y146515D01*
G74*
D01*
G03X432605Y140708I3548J9355*
G01*
D02*
G37*
G36*
X451315Y133612D02*
X451315Y133612D01*
X445508Y133612D01*
X445508Y127805D01*
G74*
D01*
G03X451315Y133612I3548J9355*
G01*
D02*
G37*
G36*
X438412Y127805D02*
X438412Y127805D01*
X438412Y133612D01*
X432605Y133612D01*
G74*
D01*
G03X438412Y127805I9355J3548*
G01*
D02*
G37*
G36*
X438960Y137160D02*
G75*
D01*
G03X438960Y137160I3000J0*
G01*
D02*
G37*
%LPD*%
G36*
X502726Y303725D02*
G74*
D01*
G03X502738Y303737I3602J3614*
G01*
X502738Y303737D01*
X559657Y360655D01*
X601955Y360655D01*
X601955Y320048D01*
G75*
D01*
G03X603451Y316431I5105J-6*
G01*
X603451Y316431D01*
X616396Y303485D01*
X502487Y303485D01*
X502726Y303725D01*
D02*
G37*
G36*
X697349Y239570D02*
X697349Y239570D01*
X697349Y241566D01*
G74*
D01*
G03X702572Y237025I8771J4814*
G01*
X702572Y237025D01*
X702572Y242832D01*
X697349Y242832D01*
X697349Y245570D01*
G74*
D01*
G03X692320Y250599I5029J0*
G01*
X692320Y250599D01*
X687872Y250599D01*
X687872Y257041D01*
G74*
D01*
G03X690880Y260224I3447J6270*
G01*
G74*
D01*
G03X696642Y256190I6455J3087*
G01*
X696642Y256190D01*
X696642Y265689D01*
X691581Y265689D01*
X691581Y272791D01*
X696642Y272791D01*
X696642Y282290D01*
G74*
D01*
G03X690880Y278256I693J7121*
G01*
G74*
D01*
G03X684425Y282324I6455J3087*
G01*
X684425Y282324D01*
X678708Y282324D01*
G75*
D01*
G03X671563Y275545I1J-7156*
G01*
X671563Y275545D01*
X660472Y275545D01*
X638837Y297180D01*
X740383Y297180D01*
X722853Y279651D01*
G75*
D01*
G03X721007Y275180I4459J-4458*
G01*
X721007Y275180D01*
X721007Y250677D01*
G74*
D01*
G03X717033Y245760I1054J4916*
G01*
X717033Y245760D01*
X717033Y237398D01*
X715810Y236175D01*
X696110Y236175D01*
G74*
D01*
G03X696071Y236220I3819J3270*
G01*
G75*
D01*
G03X697349Y239570I-3751J3350*
G01*
D02*
G37*
%LPC*%
G36*
X715475Y242832D02*
X715475Y242832D01*
X709668Y242832D01*
X709668Y237025D01*
G74*
D01*
G03X715475Y242832I3548J9355*
G01*
D02*
G37*
G36*
X696765Y249928D02*
X696765Y249928D01*
X702572Y249928D01*
X702572Y255735D01*
G74*
D01*
G03X696765Y249928I3548J9355*
G01*
D02*
G37*
G36*
X703744Y256190D02*
G75*
D01*
G03X710207Y263312I-692J7121*
G01*
X710207Y263312D01*
X710207Y265689D01*
X703744Y265689D01*
X703744Y256190D01*
D02*
G37*
G36*
X709668Y255735D02*
X709668Y255735D01*
X709668Y249928D01*
X715475Y249928D01*
G74*
D01*
G03X709668Y255735I9355J3548*
G01*
D02*
G37*
G36*
X703120Y246380D02*
G75*
D01*
G03X703120Y246380I3000J0*
G01*
D02*
G37*
G36*
X710207Y275168D02*
G74*
D01*
G03X703744Y282290I7155J1*
G01*
X703744Y282290D01*
X703744Y272791D01*
X710207Y272791D01*
X710207Y275168D01*
D02*
G37*
%LPD*%
G54D11*
X588432Y480407D02*
G75*
D01*
G03X582483Y474719I0J-5955*
G01*
X591235Y474719D01*
X591235Y480407D01*
X588432Y480407D01*
X504391Y494231D02*
X522449Y476172D01*
X529142Y469479D01*
X529142Y463563D01*
G74*
D01*
G03X525433Y458048I2245J5515*
G01*
X525433Y446192D01*
G75*
D01*
G03X531388Y440237I5955J0*
G01*
X537105Y440237D01*
G75*
D01*
G03X543060Y446192I0J5955*
G01*
X543060Y458048D01*
G74*
D01*
G03X539351Y463563I5955J0*
G01*
X539351Y471593D01*
G74*
D01*
G03X537848Y475211I5104J1*
G01*
X536887Y476172D01*
X536887Y476172D01*
X514782Y498277D01*
G75*
D01*
G03X502925Y497287I-6782J9723*
G01*
G74*
D01*
G03X504391Y494231I5075J555*
G01*
X483422Y496174D02*
X483422Y463563D01*
G74*
D01*
G03X479713Y458048I2245J5515*
G01*
X479713Y446192D01*
G75*
D01*
G03X485668Y440237I5955J0*
G01*
X491385Y440237D01*
G75*
D01*
G03X497340Y446192I0J5955*
G01*
X497340Y458048D01*
G74*
D01*
G03X493631Y463563I5955J0*
G01*
X493631Y502073D01*
G74*
D01*
G03X493482Y503299I5104J2*
G01*
G75*
D01*
G03X483422Y496174I-10882J4700*
G01*
X600288Y480407D02*
X597485Y480407D01*
X597485Y474719D01*
X606237Y474719D01*
G74*
D01*
G03X600288Y480407I5948J266*
G01*
X696808Y484793D02*
G75*
D01*
G03X702763Y490748I0J5955*
G01*
X702763Y496465D01*
G74*
D01*
G03X696808Y502420I5955J0*
G01*
X684952Y502420D01*
G75*
D01*
G03X678997Y496465I0J-5955*
G01*
X678997Y490748D01*
G75*
D01*
G03X684952Y484793I5955J0*
G01*
X685775Y484793D01*
X685775Y460087D01*
X684952Y460087D01*
G75*
D01*
G03X679863Y457225I0J-5955*
G01*
X663287Y457225D01*
X663287Y458048D01*
G74*
D01*
G03X657332Y464003I5955J0*
G01*
X651615Y464003D01*
G75*
D01*
G03X645660Y458048I0J-5955*
G01*
X645660Y446192D01*
G75*
D01*
G03X651615Y440237I5955J0*
G01*
X657332Y440237D01*
G75*
D01*
G03X663287Y446192I0J5955*
G01*
X663287Y447015D01*
X679164Y447015D01*
G75*
D01*
G03X684952Y442460I5787J1399*
G01*
X696808Y442460D01*
G75*
D01*
G03X702763Y448415I0J5955*
G01*
X702763Y454132D01*
G74*
D01*
G03X696808Y460087I5955J0*
G01*
X695985Y460087D01*
X695985Y484793D01*
X696808Y484793D01*
X245144Y498012D02*
G75*
D01*
G03X234935Y496780I-6384J9987*
G01*
X234935Y446636D01*
X234111Y446636D01*
G75*
D01*
G03X228156Y440681I0J-5955*
G01*
X228156Y434964D01*
G75*
D01*
G03X234111Y429009I5955J0*
G01*
X245968Y429009D01*
G74*
D01*
G03X251482Y432718I1J5955*
G01*
X261795Y432718D01*
G75*
D01*
G03X267310Y429009I5515J2245*
G01*
X279166Y429009D01*
G75*
D01*
G03X285121Y434964I0J5955*
G01*
X285121Y440681D01*
G74*
D01*
G03X279166Y446636I5955J0*
G01*
X267310Y446636D01*
G75*
D01*
G03X261795Y442927I0J-5955*
G01*
X251482Y442927D01*
G74*
D01*
G03X245968Y446636I5514J2244*
G01*
X245144Y446636D01*
X245144Y498012D01*
X461458Y463563D02*
X461458Y496937D01*
G75*
D01*
G03X451249Y497748I-4258J11063*
G01*
X451249Y463563D01*
G74*
D01*
G03X447540Y458048I2245J5515*
G01*
X447540Y446192D01*
G75*
D01*
G03X451249Y440677I5955J0*
G01*
X451249Y422923D01*
G74*
D01*
G03X447540Y417408I2245J5515*
G01*
X447540Y405552D01*
G75*
D01*
G03X451249Y400037I5955J0*
G01*
X451249Y387363D01*
G74*
D01*
G03X447540Y381848I2245J5515*
G01*
X447540Y369992D01*
G75*
D01*
G03X453495Y364037I5955J0*
G01*
X459212Y364037D01*
G75*
D01*
G03X465167Y369992I0J5955*
G01*
X465167Y381848D01*
G74*
D01*
G03X461458Y387363I5955J0*
G01*
X461458Y400037D01*
G75*
D01*
G03X465167Y405552I-2245J5515*
G01*
X465167Y417408D01*
G74*
D01*
G03X461458Y422923I5955J0*
G01*
X461458Y440677D01*
G75*
D01*
G03X465167Y446192I-2245J5515*
G01*
X465167Y458048D01*
G74*
D01*
G03X461458Y463563I5955J0*
G01*
X234111Y410383D02*
X236914Y410383D01*
X236914Y416071D01*
X228162Y416071D01*
G75*
D01*
G03X234111Y410383I5948J266*
G01*
X228162Y422321D02*
X236914Y422321D01*
X236914Y428009D01*
X234111Y428009D01*
G75*
D01*
G03X228162Y422321I-1J-5954*
G01*
X198991Y239449D02*
G75*
D01*
G03X200160Y242992I-4785J3543*
G01*
X200160Y254848D01*
G74*
D01*
G03X194205Y260803I5955J0*
G01*
X188488Y260803D01*
G75*
D01*
G03X182533Y254848I0J-5955*
G01*
X182533Y242992D01*
G75*
D01*
G03X188488Y237037I5955J0*
G01*
X188782Y237037D01*
X188782Y136694D01*
G75*
D01*
G03X188782Y117306I4256J-9694*
G01*
X188782Y111294D01*
G75*
D01*
G03X202316Y96495I4260J-9692*
G01*
X330626Y96495D01*
X375912Y51209D01*
G75*
D01*
G03X375895Y50790I5087J-416*
G01*
X375895Y36099D01*
G75*
D01*
G03X386105Y36099I5105J-10698*
G01*
X386105Y48686D01*
X403434Y66015D01*
X457640Y66015D01*
G75*
D01*
G03X457640Y76225I7179J5105*
G01*
X401320Y76225D01*
G75*
D01*
G03X399387Y75844I2J-5105*
G01*
G74*
D01*
G03X397711Y74729I1934J4724*
G01*
X382270Y59289D01*
X336355Y105203D01*
G74*
D01*
G03X332740Y106705I3616J3601*
G01*
X202316Y106705D01*
G74*
D01*
G03X198991Y110357I9275J5105*
G01*
X198991Y118243D01*
G75*
D01*
G03X198991Y135757I-5950J8757*
G01*
X198991Y239449D01*
X835043Y518744D02*
X840156Y518744D01*
X840156Y523857D01*
G74*
D01*
G03X835043Y518744I3124J8237*
G01*
X840156Y507383D02*
X840156Y512496D01*
X835043Y512496D01*
G74*
D01*
G03X840156Y507383I8237J3124*
G01*
X846404Y523857D02*
X846404Y518744D01*
X851517Y518744D01*
G74*
D01*
G03X846404Y523857I8237J3124*
G01*
X851517Y512496D02*
X846404Y512496D01*
X846404Y507383D01*
G74*
D01*
G03X851517Y512496I3124J8237*
G01*
X840280Y515620D02*
G75*
D01*
G03X840280Y515620I3000J0*
G01*
X97137Y504876D02*
X92024Y504876D01*
X92024Y499763D01*
G74*
D01*
G03X97137Y504876I3124J8237*
G01*
X85776Y499763D02*
X85776Y504876D01*
X80663Y504876D01*
G74*
D01*
G03X85776Y499763I8237J3124*
G01*
X132590Y508000D02*
G75*
D01*
G03X132590Y508000I19810J0*
G01*
X176106Y508000D02*
G75*
D01*
G03X176106Y508000I11854J0*
G01*
X201506Y508000D02*
G75*
D01*
G03X201506Y508000I11854J0*
G01*
X80663Y511124D02*
X85776Y511124D01*
X85776Y516237D01*
G74*
D01*
G03X80663Y511124I3124J8237*
G01*
X92024Y516237D02*
X92024Y511124D01*
X97137Y511124D01*
G74*
D01*
G03X92024Y516237I8237J3124*
G01*
X85900Y508000D02*
G75*
D01*
G03X85900Y508000I3000J0*
G01*
X521546Y508000D02*
G75*
D01*
G03X521546Y508000I11854J0*
G01*
X546946Y508000D02*
G75*
D01*
G03X546946Y508000I11854J0*
G01*
X572346Y508000D02*
G75*
D01*
G03X572346Y508000I11854J0*
G01*
X597746Y508000D02*
G75*
D01*
G03X597746Y508000I11854J0*
G01*
X646473Y505355D02*
X646473Y510645D01*
G74*
D01*
G03X637645Y519473I8828J0*
G01*
X632355Y519473D01*
G75*
D01*
G03X623528Y510645I1J-8828*
G01*
X623528Y505355D01*
G75*
D01*
G03X632355Y496528I8827J0*
G01*
X637645Y496528D01*
G75*
D01*
G03X646473Y505355I1J8827*
G01*
X654130Y508000D02*
G75*
D01*
G03X654130Y508000I8810J0*
G01*
X679003Y509108D02*
G75*
D01*
G03X684952Y503420I5948J266*
G01*
X687755Y503420D01*
X687755Y509108D01*
X679003Y509108D01*
X684952Y521047D02*
G75*
D01*
G03X679003Y515359I0J-5955*
G01*
X687755Y515359D01*
X687755Y521047D01*
X684952Y521047D01*
X696808Y503420D02*
G74*
D01*
G03X702757Y509108I0J5955*
G01*
X694005Y509108D01*
X694005Y503420D01*
X696808Y503420D01*
X702757Y515359D02*
G74*
D01*
G03X696808Y521047I5948J266*
G01*
X694005Y521047D01*
X694005Y515359D01*
X702757Y515359D01*
X252306Y508000D02*
G75*
D01*
G03X252306Y508000I11854J0*
G01*
X277706Y508000D02*
G75*
D01*
G03X277706Y508000I11854J0*
G01*
X303106Y508000D02*
G75*
D01*
G03X303106Y508000I11854J0*
G01*
X328506Y508000D02*
G75*
D01*
G03X328506Y508000I11854J0*
G01*
X353906Y508000D02*
G75*
D01*
G03X353906Y508000I11854J0*
G01*
X379306Y508000D02*
G75*
D01*
G03X379306Y508000I11854J0*
G01*
X428033Y505355D02*
X428033Y510645D01*
G74*
D01*
G03X419205Y519473I8828J0*
G01*
X413915Y519473D01*
G75*
D01*
G03X405088Y510645I1J-8828*
G01*
X405088Y505355D01*
G75*
D01*
G03X413915Y496528I8827J0*
G01*
X419205Y496528D01*
G75*
D01*
G03X428033Y505355I1J8827*
G01*
X843864Y31097D02*
X843864Y25984D01*
X848977Y25984D01*
G74*
D01*
G03X843864Y31097I8237J3124*
G01*
X832503Y25984D02*
X837616Y25984D01*
X837616Y31097D01*
G74*
D01*
G03X832503Y25984I3124J8237*
G01*
X848977Y19736D02*
X843864Y19736D01*
X843864Y14623D01*
G74*
D01*
G03X848977Y19736I3124J8237*
G01*
X837616Y14623D02*
X837616Y19736D01*
X832503Y19736D01*
G74*
D01*
G03X837616Y14623I8237J3124*
G01*
X837740Y22860D02*
G75*
D01*
G03X837740Y22860I3000J0*
G01*
X828657Y431216D02*
X823544Y431216D01*
X823544Y426103D01*
G74*
D01*
G03X828657Y431216I3124J8237*
G01*
X812183Y437464D02*
X817296Y437464D01*
X817296Y442577D01*
G74*
D01*
G03X812183Y437464I3124J8237*
G01*
X817420Y434340D02*
G75*
D01*
G03X817420Y434340I3000J0*
G01*
X817296Y426103D02*
X817296Y431216D01*
X812183Y431216D01*
G74*
D01*
G03X817296Y426103I8237J3124*
G01*
X823544Y442577D02*
X823544Y437464D01*
X828657Y437464D01*
G74*
D01*
G03X823544Y442577I8237J3124*
G01*
X640590Y76200D02*
G75*
D01*
G03X640590Y76200I19810J0*
G01*
X623146Y25400D02*
G75*
D01*
G03X623146Y25400I11854J0*
G01*
X597746Y25400D02*
G75*
D01*
G03X597746Y25400I11854J0*
G01*
X572346Y25400D02*
G75*
D01*
G03X572346Y25400I11854J0*
G01*
X546946Y25400D02*
G75*
D01*
G03X546946Y25400I11854J0*
G01*
X521546Y25400D02*
G75*
D01*
G03X521546Y25400I11854J0*
G01*
X440852Y440243D02*
G75*
D01*
G03X446540Y446192I-266J5948*
G01*
X446540Y448995D01*
X440852Y448995D01*
X440852Y440243D01*
X391982Y400037D02*
X391982Y387363D01*
G74*
D01*
G03X388273Y381848I2245J5515*
G01*
X388273Y369992D01*
G75*
D01*
G03X391135Y364903I5955J0*
G01*
X391135Y352620D01*
G75*
D01*
G03X401345Y352620I5105J-7179*
G01*
X401345Y364204D01*
G75*
D01*
G03X405900Y369992I-1399J5787*
G01*
X405900Y381848D01*
G74*
D01*
G03X402191Y387363I5955J0*
G01*
X402191Y400037D01*
G75*
D01*
G03X405900Y405552I-2245J5515*
G01*
X405900Y417408D01*
G74*
D01*
G03X399945Y423363I5955J0*
G01*
X394228Y423363D01*
G75*
D01*
G03X388273Y417408I0J-5955*
G01*
X388273Y405552D01*
G75*
D01*
G03X391982Y400037I5955J0*
G01*
X432972Y387493D02*
G74*
D01*
G03X434957Y390576I6252J6206*
G01*
X429844Y390576D01*
X429844Y385463D01*
G74*
D01*
G03X430276Y385640I3123J8237*
G01*
G74*
D01*
G03X428913Y381848I4592J3792*
G01*
X428913Y381025D01*
X424527Y381025D01*
X424527Y381848D01*
G74*
D01*
G03X423164Y385640I5955J0*
G01*
G74*
D01*
G03X423596Y385463I3555J8060*
G01*
X423596Y390576D01*
X418483Y390576D01*
G74*
D01*
G03X420468Y387493I8237J3123*
G01*
G74*
D01*
G03X418572Y387803I1896J5644*
G01*
X412855Y387803D01*
G75*
D01*
G03X406900Y381848I0J-5955*
G01*
X406900Y369992D01*
G75*
D01*
G03X412855Y364037I5955J0*
G01*
X418572Y364037D01*
G75*
D01*
G03X424527Y369992I0J5955*
G01*
X424527Y370815D01*
X428913Y370815D01*
X428913Y369992D01*
G75*
D01*
G03X434868Y364037I5955J0*
G01*
X440585Y364037D01*
G75*
D01*
G03X446540Y369992I0J5955*
G01*
X446540Y381848D01*
G74*
D01*
G03X440585Y387803I5955J0*
G01*
X434868Y387803D01*
G75*
D01*
G03X432972Y387493I0J-5955*
G01*
X423164Y401760D02*
G75*
D01*
G03X424527Y405552I-4592J3792*
G01*
X424527Y408355D01*
X418839Y408355D01*
X418839Y399603D01*
G74*
D01*
G03X420468Y399907I267J5948*
G01*
G74*
D01*
G03X418483Y396824I6252J6206*
G01*
X423596Y396824D01*
X423596Y401937D01*
G74*
D01*
G03X423164Y401760I3123J8237*
G01*
X406900Y405552D02*
G75*
D01*
G03X412588Y399603I5955J0*
G01*
X412588Y408355D01*
X406900Y408355D01*
X406900Y405552D01*
X432972Y399907D02*
G74*
D01*
G03X434601Y399603I1896J5644*
G01*
X434601Y408355D01*
X428913Y408355D01*
X428913Y405552D01*
G75*
D01*
G03X430276Y401760I5955J0*
G01*
G74*
D01*
G03X429844Y401937I3555J8060*
G01*
X429844Y396824D01*
X434957Y396824D01*
G74*
D01*
G03X432972Y399907I8237J3123*
G01*
X423720Y393700D02*
G75*
D01*
G03X423720Y393700I3000J0*
G01*
X440852Y399603D02*
G75*
D01*
G03X446540Y405552I-266J5948*
G01*
X446540Y408355D01*
X440852Y408355D01*
X440852Y399603D01*
X245968Y410383D02*
G74*
D01*
G03X251916Y416071I0J5954*
G01*
X243165Y416071D01*
X243165Y410383D01*
X245968Y410383D01*
X279166Y410383D02*
G74*
D01*
G03X285115Y416071I1J5954*
G01*
X276363Y416071D01*
X276363Y410383D01*
X279166Y410383D01*
X261361Y416071D02*
G75*
D01*
G03X267310Y410383I5948J266*
G01*
X270113Y410383D01*
X270113Y416071D01*
X261361Y416071D01*
X424527Y417408D02*
G74*
D01*
G03X418839Y423357I5955J0*
G01*
X418839Y414605D01*
X424527Y414605D01*
X424527Y417408D01*
X412588Y423357D02*
G74*
D01*
G03X406900Y417408I266J5948*
G01*
X406900Y414605D01*
X412588Y414605D01*
X412588Y423357D01*
X434601Y423357D02*
G74*
D01*
G03X428913Y417408I266J5948*
G01*
X428913Y414605D01*
X434601Y414605D01*
X434601Y423357D01*
X446540Y417408D02*
G74*
D01*
G03X440852Y423357I5955J0*
G01*
X440852Y414605D01*
X446540Y414605D01*
X446540Y417408D01*
X251916Y422321D02*
G74*
D01*
G03X245968Y428009I5947J265*
G01*
X243165Y428009D01*
X243165Y422321D01*
X251916Y422321D01*
X285115Y422321D02*
G74*
D01*
G03X279166Y428009I5948J266*
G01*
X276363Y428009D01*
X276363Y422321D01*
X285115Y422321D01*
X267310Y428009D02*
G75*
D01*
G03X261361Y422321I-1J-5954*
G01*
X270113Y422321D01*
X270113Y428009D01*
X267310Y428009D01*
X434601Y463997D02*
G74*
D01*
G03X428913Y458048I266J5948*
G01*
X428913Y455245D01*
X434601Y455245D01*
X434601Y463997D01*
X428913Y446192D02*
G75*
D01*
G03X434601Y440243I5955J0*
G01*
X434601Y448995D01*
X428913Y448995D01*
X428913Y446192D01*
X446540Y458048D02*
G74*
D01*
G03X440852Y463997I5955J0*
G01*
X440852Y455245D01*
X446540Y455245D01*
X446540Y458048D01*
X132964Y132105D02*
X126116Y132105D01*
G75*
D01*
G03X107564Y132105I-9276J-5103*
G01*
X100716Y132105D01*
G75*
D01*
G03X100716Y121895I-9275J-5105*
G01*
X107564Y121895D01*
G75*
D01*
G03X126116Y121895I9276J5103*
G01*
X132964Y121895D01*
G75*
D01*
G03X132964Y132105I9275J5105*
G01*
X98476Y17163D02*
X98476Y22276D01*
X93363Y22276D01*
G74*
D01*
G03X98476Y17163I8237J3124*
G01*
X109837Y22276D02*
X104724Y22276D01*
X104724Y17163D01*
G74*
D01*
G03X109837Y22276I3124J8237*
G01*
X119890Y25400D02*
G75*
D01*
G03X119890Y25400I19810J0*
G01*
X98600Y25400D02*
G75*
D01*
G03X98600Y25400I3000J0*
G01*
X93363Y28524D02*
X98476Y28524D01*
X98476Y33637D01*
G74*
D01*
G03X93363Y28524I3124J8237*
G01*
X104724Y33637D02*
X104724Y28524D01*
X109837Y28524D01*
G74*
D01*
G03X104724Y33637I8237J3124*
G01*
X98218Y90994D02*
G75*
D01*
G03X102046Y94822I0J3828*
G01*
X102046Y97839D01*
X95201Y97839D01*
X95201Y90994D01*
X98218Y90994D01*
X86440Y101600D02*
G75*
D01*
G03X86440Y101600I5000J0*
G01*
X80834Y94822D02*
G75*
D01*
G03X84662Y90994I3828J0*
G01*
X87679Y90994D01*
X87679Y97839D01*
X80834Y97839D01*
X80834Y94822D01*
X111840Y101600D02*
G75*
D01*
G03X111840Y101600I5000J0*
G01*
X113085Y91700D02*
X113085Y97845D01*
X106940Y97845D01*
G74*
D01*
G03X113085Y91700I9900J3755*
G01*
X137240Y101600D02*
G75*
D01*
G03X137240Y101600I5000J0*
G01*
X126740Y97845D02*
X120595Y97845D01*
X120595Y91700D01*
G74*
D01*
G03X126740Y97845I3755J9900*
G01*
X138485Y91700D02*
X138485Y97845D01*
X132340Y97845D01*
G74*
D01*
G03X138485Y91700I9900J3755*
G01*
X157052Y101600D02*
G75*
D01*
G03X157052Y101600I10588J0*
G01*
X152140Y97845D02*
X145995Y97845D01*
X145995Y91700D01*
G74*
D01*
G03X152140Y97845I3755J9900*
G01*
X102046Y108378D02*
G74*
D01*
G03X98218Y112206I3828J0*
G01*
X95201Y112206D01*
X95201Y105361D01*
X102046Y105361D01*
X102046Y108378D01*
X80834Y108378D02*
X80834Y105361D01*
X87679Y105361D01*
X87679Y112206D01*
X84662Y112206D01*
G75*
D01*
G03X80834Y108378I0J-3828*
G01*
X106940Y105355D02*
X113085Y105355D01*
X113085Y111500D01*
G74*
D01*
G03X106940Y105355I3755J9900*
G01*
X120595Y111500D02*
X120595Y105355D01*
X126740Y105355D01*
G74*
D01*
G03X120595Y111500I9900J3755*
G01*
X132340Y105355D02*
X138485Y105355D01*
X138485Y111500D01*
G74*
D01*
G03X132340Y105355I3755J9900*
G01*
X157052Y127000D02*
G75*
D01*
G03X157052Y127000I10588J0*
G01*
X145995Y111500D02*
X145995Y105355D01*
X152140Y105355D01*
G74*
D01*
G03X145995Y111500I9900J3755*
G01*
X600288Y462780D02*
G74*
D01*
G03X606237Y468468I0J5955*
G01*
X597485Y468468D01*
X597485Y462780D01*
X600288Y462780D01*
X582644Y457225D02*
X561687Y457225D01*
X561687Y458048D01*
G74*
D01*
G03X555732Y464003I5955J0*
G01*
X550015Y464003D01*
G75*
D01*
G03X544060Y458048I0J-5955*
G01*
X544060Y446192D01*
G75*
D01*
G03X550015Y440237I5955J0*
G01*
X555732Y440237D01*
G75*
D01*
G03X561687Y446192I0J5955*
G01*
X561687Y447015D01*
X583343Y447015D01*
G75*
D01*
G03X588432Y444153I5089J3093*
G01*
X600288Y444153D01*
G74*
D01*
G03X605803Y447862I0J5955*
G01*
X627033Y447862D01*
X627033Y446192D01*
G75*
D01*
G03X632988Y440237I5955J0*
G01*
X638705Y440237D01*
G75*
D01*
G03X644660Y446192I0J5955*
G01*
X644660Y458048D01*
G74*
D01*
G03X638705Y464003I5955J0*
G01*
X632988Y464003D01*
G75*
D01*
G03X627033Y458071I0J-5955*
G01*
X605803Y458071D01*
G74*
D01*
G03X600288Y461780I5515J2245*
G01*
X588432Y461780D01*
G75*
D01*
G03X582644Y457225I0J-5955*
G01*
X502049Y440677D02*
X502049Y420344D01*
G75*
D01*
G03X512258Y421102I5791J-8864*
G01*
X512258Y440677D01*
G75*
D01*
G03X515967Y446192I-2245J5515*
G01*
X515967Y458048D01*
G74*
D01*
G03X510012Y464003I5955J0*
G01*
X504295Y464003D01*
G75*
D01*
G03X498340Y458048I0J-5955*
G01*
X498340Y446192D01*
G75*
D01*
G03X502049Y440677I5955J0*
G01*
X640590Y355600D02*
G75*
D01*
G03X640590Y355600I19810J0*
G01*
X542395Y421380D02*
X542395Y415235D01*
X548540Y415235D01*
G74*
D01*
G03X542395Y421380I9900J3755*
G01*
X534885Y401580D02*
X534885Y407725D01*
X528740Y407725D01*
G74*
D01*
G03X534885Y401580I9900J3755*
G01*
X528740Y415235D02*
X534885Y415235D01*
X534885Y421380D01*
G74*
D01*
G03X528740Y415235I3755J9900*
G01*
X533640Y411480D02*
G75*
D01*
G03X533640Y411480I5000J0*
G01*
X548540Y407725D02*
X542395Y407725D01*
X542395Y401580D01*
G74*
D01*
G03X548540Y407725I3755J9900*
G01*
X582483Y468468D02*
G75*
D01*
G03X588432Y462780I5948J266*
G01*
X591235Y462780D01*
X591235Y468468D01*
X582483Y468468D01*
X88553Y242992D02*
G75*
D01*
G03X94241Y237043I5955J0*
G01*
X94241Y245795D01*
X88553Y245795D01*
X88553Y242992D01*
X100492Y237043D02*
G75*
D01*
G03X106180Y242992I-266J5948*
G01*
X106180Y245795D01*
X100492Y245795D01*
X100492Y237043D01*
X124807Y242992D02*
X124807Y243815D01*
X163907Y243815D01*
X163907Y242992D01*
G75*
D01*
G03X169861Y237037I5954J-1*
G01*
X175579Y237037D01*
G75*
D01*
G03X181533Y242992I-1J5955*
G01*
X181533Y254848D01*
G74*
D01*
G03X175579Y260803I5954J1*
G01*
X169861Y260803D01*
G75*
D01*
G03X163907Y254848I1J-5955*
G01*
X163907Y254025D01*
X124807Y254025D01*
X124807Y254848D01*
G74*
D01*
G03X118852Y260803I5955J0*
G01*
X113135Y260803D01*
G75*
D01*
G03X107180Y254848I0J-5955*
G01*
X107180Y242992D01*
G75*
D01*
G03X113135Y237037I5955J0*
G01*
X118852Y237037D01*
G75*
D01*
G03X124807Y242992I0J5955*
G01*
X94241Y260797D02*
G74*
D01*
G03X88553Y254848I266J5948*
G01*
X88553Y252045D01*
X94241Y252045D01*
X94241Y260797D01*
X106180Y254848D02*
G74*
D01*
G03X100492Y260797I5955J0*
G01*
X100492Y252045D01*
X106180Y252045D01*
X106180Y254848D01*
X99645Y298003D02*
G75*
D01*
G03X105333Y303952I-266J5948*
G01*
X105333Y306755D01*
X99645Y306755D01*
X99645Y298003D01*
X87707Y303952D02*
G75*
D01*
G03X93395Y298003I5954J-1*
G01*
X93395Y306755D01*
X87707Y306755D01*
X87707Y303952D01*
X123960Y303952D02*
X123960Y304775D01*
X164753Y304775D01*
X164753Y303952D01*
G75*
D01*
G03X170708Y297997I5955J0*
G01*
X176425Y297997D01*
G75*
D01*
G03X182380Y303952I0J5955*
G01*
X182380Y315808D01*
G74*
D01*
G03X176425Y321763I5955J0*
G01*
X170708Y321763D01*
G75*
D01*
G03X164753Y315808I0J-5955*
G01*
X164753Y314985D01*
X123960Y314985D01*
X123960Y315808D01*
G74*
D01*
G03X118005Y321763I5955J0*
G01*
X112288Y321763D01*
G75*
D01*
G03X106333Y315808I0J-5955*
G01*
X106333Y303952D01*
G75*
D01*
G03X112288Y297997I5955J0*
G01*
X118005Y297997D01*
G75*
D01*
G03X123960Y303952I0J5955*
G01*
X105333Y315808D02*
G74*
D01*
G03X99645Y321757I5954J1*
G01*
X99645Y313005D01*
X105333Y313005D01*
X105333Y315808D01*
X93395Y321757D02*
G74*
D01*
G03X87707Y315808I266J5948*
G01*
X87707Y313005D01*
X93395Y313005D01*
X93395Y321757D01*
X80834Y413178D02*
X80834Y399622D01*
G75*
D01*
G03X84662Y395794I3828J0*
G01*
X98218Y395794D01*
G75*
D01*
G03X102046Y399622I0J3828*
G01*
X102046Y413178D01*
G74*
D01*
G03X98218Y417006I3828J0*
G01*
X84662Y417006D01*
G75*
D01*
G03X80834Y413178I0J-3828*
G01*
X106252Y406400D02*
G75*
D01*
G03X106252Y406400I10588J0*
G01*
X131652Y406400D02*
G75*
D01*
G03X131652Y406400I10588J0*
G01*
X157052Y406400D02*
G75*
D01*
G03X157052Y406400I10588J0*
G01*
X182452Y406400D02*
G75*
D01*
G03X182452Y406400I10588J0*
G01*
X81540Y435555D02*
X87685Y435555D01*
X87685Y441700D01*
G74*
D01*
G03X81540Y435555I3755J9900*
G01*
X95195Y441700D02*
X95195Y435555D01*
X101340Y435555D01*
G74*
D01*
G03X95195Y441700I9900J3755*
G01*
X101340Y428045D02*
X95195Y428045D01*
X95195Y421900D01*
G74*
D01*
G03X101340Y428045I3755J9900*
G01*
X87685Y421900D02*
X87685Y428045D01*
X81540Y428045D01*
G74*
D01*
G03X87685Y421900I9900J3755*
G01*
X86440Y431800D02*
G75*
D01*
G03X86440Y431800I5000J0*
G01*
X106252Y431800D02*
G75*
D01*
G03X106252Y431800I10588J0*
G01*
X131652Y431800D02*
G75*
D01*
G03X131652Y431800I10588J0*
G01*
X157052Y431800D02*
G75*
D01*
G03X157052Y431800I10588J0*
G01*
X182452Y431800D02*
G75*
D01*
G03X182452Y431800I10588J0*
G01*
X267928Y28045D02*
X267928Y22755D01*
G75*
D01*
G03X276755Y13928I8827J0*
G01*
X282045Y13928D01*
G75*
D01*
G03X290873Y22755I1J8827*
G01*
X290873Y28045D01*
G74*
D01*
G03X282045Y36873I8828J0*
G01*
X276755Y36873D01*
G75*
D01*
G03X267928Y28045I1J-8828*
G01*
X292946Y25400D02*
G75*
D01*
G03X292946Y25400I11854J0*
G01*
X318346Y25400D02*
G75*
D01*
G03X318346Y25400I11854J0*
G01*
X343746Y25400D02*
G75*
D01*
G03X343746Y25400I11854J0*
G01*
X402196Y14316D02*
X402196Y21196D01*
X395316Y21196D01*
G74*
D01*
G03X402196Y14316I11084J4204*
G01*
X417484Y21196D02*
X410604Y21196D01*
X410604Y14316D01*
G74*
D01*
G03X417484Y21196I4204J11084*
G01*
X419946Y25400D02*
G75*
D01*
G03X419946Y25400I11854J0*
G01*
X445346Y25400D02*
G75*
D01*
G03X445346Y25400I11854J0*
G01*
X395316Y29604D02*
X402196Y29604D01*
X402196Y36484D01*
G74*
D01*
G03X395316Y29604I4204J11084*
G01*
X410604Y36484D02*
X410604Y29604D01*
X417484Y29604D01*
G74*
D01*
G03X410604Y36484I11084J4204*
G01*
X401955Y25400D02*
G75*
D01*
G03X401955Y25400I4445J0*
G01*
X735375Y358140D02*
X735375Y303485D01*
X630834Y303485D01*
X612165Y322154D01*
X612165Y363646D01*
X676061Y427542D01*
X679437Y427542D01*
G75*
D01*
G03X684952Y423833I5515J2245*
G01*
X696808Y423833D01*
G75*
D01*
G03X702763Y429788I0J5955*
G01*
X702763Y435505D01*
G74*
D01*
G03X696808Y441460I5955J0*
G01*
X684952Y441460D01*
G75*
D01*
G03X679437Y437751I0J-5955*
G01*
X673947Y437751D01*
G75*
D01*
G03X671611Y437185I0J-5104*
G01*
G74*
D01*
G03X670337Y436256I2334J4538*
G01*
X604946Y370865D01*
X557543Y370865D01*
G75*
D01*
G03X555348Y370369I0J-5105*
G01*
G74*
D01*
G03X553933Y369369I2195J4608*
G01*
X497008Y312445D01*
X226868Y312445D01*
G75*
D01*
G03X210012Y312445I-8428J-2563*
G01*
X201007Y312445D01*
X201007Y315808D01*
G74*
D01*
G03X195052Y321763I5955J0*
G01*
X189335Y321763D01*
G75*
D01*
G03X183380Y315808I0J-5955*
G01*
X183380Y303952D01*
G75*
D01*
G03X189335Y297997I5955J0*
G01*
X195052Y297997D01*
G74*
D01*
G03X200754Y302235I0J5955*
G01*
X214061Y302235D01*
G75*
D01*
G03X222819Y302235I4379J7645*
G01*
X417872Y302235D01*
G74*
D01*
G03X415335Y297180I3767J5055*
G01*
X415335Y101600D01*
G75*
D01*
G03X421640Y95295I6305J0*
G01*
X501625Y95295D01*
X501625Y36046D01*
G74*
D01*
G03X496528Y28045I3730J8000*
G01*
X496528Y22755D01*
G75*
D01*
G03X505355Y13928I8827J0*
G01*
X510645Y13928D01*
G75*
D01*
G03X519473Y22755I1J8827*
G01*
X519473Y28045D01*
G74*
D01*
G03X511835Y36792I8828J0*
G01*
X511835Y95295D01*
X574040Y95295D01*
G75*
D01*
G03X580345Y101600I0J6305*
G01*
X580345Y133395D01*
X720135Y133395D01*
X720135Y93980D01*
G75*
D01*
G03X726440Y87675I6305J0*
G01*
X862312Y87675D01*
X862312Y10160D01*
G75*
D01*
G03X862317Y9955I3828J-9*
G01*
G74*
D01*
G02X856185Y3823I6336J204*
G01*
G74*
D01*
G03X855980Y3828I196J3823*
G01*
X67103Y3828D01*
G74*
D01*
G03X66040Y3979I1063J3667*
G01*
G74*
D01*
G02X59859Y10160I0J6181*
G01*
G74*
D01*
G03X59708Y11223I3819J0*
G01*
X59708Y522177D01*
G74*
D01*
G03X59859Y523240I3667J1063*
G01*
G74*
D01*
G02X66040Y529421I6181J0*
G01*
G74*
D01*
G03X67103Y529572I0J3819*
G01*
X855980Y529572D01*
G74*
D01*
G03X856185Y529577I9J3828*
G01*
G74*
D01*
G02X862317Y523445I204J6336*
G01*
G74*
D01*
G03X862312Y523240I3823J196*
G01*
X862312Y364445D01*
X741680Y364445D01*
G75*
D01*
G03X735375Y358140I0J-6305*
G01*
X502726Y303725D02*
G74*
D01*
G03X502738Y303737I3602J3614*
G01*
X559657Y360655D01*
X601955Y360655D01*
X601955Y320048D01*
G75*
D01*
G03X603451Y316431I5105J-6*
G01*
X616396Y303485D01*
X502487Y303485D01*
X502726Y303725D01*
X767927Y126153D02*
X727312Y166768D01*
X767927Y126153D02*
X828040Y126153D01*
X777240Y325967D02*
X777240Y325120D01*
X727312Y275192D01*
X727312Y238760D01*
X777240Y325967D02*
X833332Y325967D01*
X681320Y242570D02*
X676910Y242570D01*
X535940Y237067D02*
X519430Y220557D01*
X519430Y183480D01*
X513927Y233680D02*
X508000Y227753D01*
X508000Y213360D01*
X681320Y204470D02*
X681320Y176664D01*
X662136Y157480D01*
X629320Y204470D02*
X629320Y171669D01*
X643509Y157480D01*
X629320Y229870D02*
X597323Y229870D01*
X593513Y233680D01*
X574887Y233680D02*
X532553Y233680D01*
X727312Y166768D02*
X727312Y208280D01*
X681320Y217170D02*
X718422Y217170D01*
X727312Y208280D01*
X681320Y229870D02*
X718422Y229870D01*
X727312Y238760D01*
X780627Y347980D02*
X777240Y344593D01*
X829945Y347980D02*
X833332Y344593D01*
X534247Y457200D02*
X534247Y471593D01*
X508000Y497840D01*
X508000Y508000D01*
X774700Y109220D02*
X826347Y109220D01*
X828040Y107527D01*
X508000Y160020D02*
X508000Y132750D01*
X506730Y131480D01*
X506730Y26670D01*
X508000Y25400D01*
X381000Y50800D02*
X381000Y25400D01*
X679873Y244017D02*
X681320Y242570D01*
X616373Y180340D02*
X613833Y182880D01*
X525780Y152400D02*
X579120Y152400D01*
X595207Y168487D01*
X595207Y196427D01*
X615950Y217170D01*
X629320Y217170D01*
X525780Y152400D02*
X519430Y146050D01*
X519430Y131480D02*
X519430Y146050D01*
X558800Y132927D02*
X558800Y111760D01*
X613833Y182880D02*
X613833Y149013D01*
X614680Y149860D01*
X494030Y183480D02*
X445777Y183480D01*
X441960Y179663D01*
X441960Y224367D01*
X441960Y137160D02*
X441960Y161036D01*
X464820Y71120D02*
X401320Y71120D01*
X381000Y50800D01*
X485140Y236220D02*
X485140Y209973D01*
X486833Y208280D01*
X678180Y266700D02*
X680720Y269240D01*
X552873Y452120D02*
X593513Y452120D01*
X594360Y452967D01*
X635000Y452967D01*
X635847Y452120D01*
X654473Y452120D02*
X690033Y452120D01*
X690880Y451273D01*
X690880Y493607D01*
X690880Y432647D02*
X673947Y432647D01*
X607060Y365760D01*
X607060Y320040D01*
X657860Y269240D01*
X486833Y208280D02*
X495300Y208280D01*
X506730Y196850D01*
X506730Y183480D01*
X607060Y365760D02*
X557543Y365760D01*
X441960Y250178D02*
X441960Y242993D01*
X476263Y284480D02*
X441960Y250178D01*
X657860Y269240D02*
X681567Y269240D01*
X681567Y242817D01*
X396240Y345440D02*
X396240Y375073D01*
X397087Y375920D01*
X415713Y375920D02*
X437727Y375920D01*
X397087Y411480D02*
X397087Y375920D01*
X415713Y411480D02*
X437727Y411480D01*
X456353Y375920D02*
X456353Y507153D01*
X457200Y508000D01*
X488527Y452120D02*
X488527Y502073D01*
X482600Y508000D01*
X507153Y452120D02*
X507153Y412167D01*
X507840Y411480D01*
X805180Y347980D02*
X829945Y347980D01*
X273238Y437823D02*
X240039Y437823D01*
X240039Y506721D01*
X513927Y233680D02*
X513927Y265853D01*
X535940Y269240D02*
X535940Y237067D01*
X513927Y265853D02*
X510540Y269240D01*
X753040Y208280D02*
X787800Y173520D01*
X746312Y208280D02*
X753040Y208280D01*
X746312Y238760D02*
X753040Y238760D01*
X787800Y273520D01*
X173567Y309880D02*
X115147Y309880D01*
X172720Y248920D02*
X115993Y248920D01*
X91440Y127000D02*
X142240Y127000D01*
X499123Y307340D02*
X193040Y307340D01*
X557543Y365760D02*
X476891Y285109D01*
X193040Y101600D02*
X332740Y101600D01*
X382270Y52070D01*
X193887Y246380D02*
X193887Y102447D01*
X193040Y101600D01*
X193887Y246380D02*
X191347Y248920D01*
G54D12*
X715475Y242832D02*
X709668Y242832D01*
X709668Y237025D01*
G74*
D01*
G03X715475Y242832I3548J9355*
G01*
X696765Y249928D02*
X702572Y249928D01*
X702572Y255735D01*
G74*
D01*
G03X696765Y249928I3548J9355*
G01*
X703744Y256190D02*
G75*
D01*
G03X710207Y263312I-692J7121*
G01*
X710207Y265689D01*
X703744Y265689D01*
X703744Y256190D01*
X709668Y255735D02*
X709668Y249928D01*
X715475Y249928D01*
G74*
D01*
G03X709668Y255735I9355J3548*
G01*
X703120Y246380D02*
G75*
D01*
G03X703120Y246380I3000J0*
G01*
X710207Y275168D02*
G74*
D01*
G03X703744Y282290I7155J1*
G01*
X703744Y272791D01*
X710207Y272791D01*
X710207Y275168D01*
X697349Y239570D02*
X697349Y241566D01*
G74*
D01*
G03X702572Y237025I8771J4814*
G01*
X702572Y242832D01*
X697349Y242832D01*
X697349Y245570D01*
G74*
D01*
G03X692320Y250599I5029J0*
G01*
X687872Y250599D01*
X687872Y257041D01*
G74*
D01*
G03X690880Y260224I3447J6270*
G01*
G74*
D01*
G03X696642Y256190I6455J3087*
G01*
X696642Y265689D01*
X691581Y265689D01*
X691581Y272791D01*
X696642Y272791D01*
X696642Y282290D01*
G74*
D01*
G03X690880Y278256I693J7121*
G01*
G74*
D01*
G03X684425Y282324I6455J3087*
G01*
X678708Y282324D01*
G75*
D01*
G03X671563Y275545I1J-7156*
G01*
X660472Y275545D01*
X638837Y297180D01*
X740383Y297180D01*
X722853Y279651D01*
G75*
D01*
G03X721007Y275180I4459J-4458*
G01*
X721007Y250677D01*
G74*
D01*
G03X717033Y245760I1054J4916*
G01*
X717033Y237398D01*
X715810Y236175D01*
X696110Y236175D01*
G74*
D01*
G03X696071Y236220I3819J3270*
G01*
G75*
D01*
G03X697349Y239570I-3751J3350*
G01*
X447888Y151022D02*
G74*
D01*
G03X455010Y157485I1J7155*
G01*
X445511Y157485D01*
X445511Y151022D01*
X447888Y151022D01*
X445508Y146515D02*
X445508Y140708D01*
X451315Y140708D01*
G74*
D01*
G03X445508Y146515I9355J3548*
G01*
X428910Y157485D02*
G75*
D01*
G03X436032Y151022I7121J692*
G01*
X438409Y151022D01*
X438409Y157485D01*
X428910Y157485D01*
X432605Y140708D02*
X438412Y140708D01*
X438412Y146515D01*
G74*
D01*
G03X432605Y140708I3548J9355*
G01*
X451315Y133612D02*
X445508Y133612D01*
X445508Y127805D01*
G74*
D01*
G03X451315Y133612I3548J9355*
G01*
X438412Y127805D02*
X438412Y133612D01*
X432605Y133612D01*
G74*
D01*
G03X438412Y127805I9355J3548*
G01*
X438960Y137160D02*
G75*
D01*
G03X438960Y137160I3000J0*
G01*
X428876Y240135D02*
G75*
D01*
G03X432944Y233680I7156J0*
G01*
G74*
D01*
G03X428876Y227225I3087J6455*
G01*
X428876Y221508D01*
G75*
D01*
G03X435655Y214363I7156J1*
G01*
X435655Y189667D01*
G74*
D01*
G03X428876Y182521I376J7145*
G01*
X428876Y176804D01*
G75*
D01*
G03X432944Y170349I7156J0*
G01*
G74*
D01*
G03X428910Y164587I3086J6454*
G01*
X438409Y164587D01*
X438409Y169649D01*
X445511Y169649D01*
X445511Y164587D01*
X455010Y164587D01*
G74*
D01*
G03X450976Y170349I7121J693*
G01*
G75*
D01*
G03X455044Y176804I-3087J6455*
G01*
X455044Y177175D01*
X486001Y177175D01*
X486001Y172480D01*
G75*
D01*
G03X491030Y167451I5029J0*
G01*
X497030Y167451D01*
G74*
D01*
G03X500380Y168729I0J5029*
G01*
G74*
D01*
G03X501836Y167821I3350J3751*
G01*
G75*
D01*
G03X501695Y152172I6164J-7881*
G01*
X501695Y147079D01*
G74*
D01*
G03X500380Y146231I2035J4599*
G01*
G74*
D01*
G03X497030Y147509I3350J3751*
G01*
X491030Y147509D01*
G75*
D01*
G03X486001Y142480I0J-5029*
G01*
X486001Y120480D01*
G75*
D01*
G03X491030Y115451I5029J0*
G01*
X497030Y115451D01*
G74*
D01*
G03X500380Y116729I0J5029*
G01*
G74*
D01*
G03X500425Y116690I3316J3781*
G01*
X500425Y101600D01*
X421640Y101600D01*
X421640Y297180D01*
X480045Y297180D01*
X472433Y289567D01*
G74*
D01*
G03X472129Y289242I4449J4466*
G01*
G74*
D01*
G03X471804Y288939I4134J4760*
G01*
X437501Y254636D01*
G74*
D01*
G03X436325Y253007I4459J4458*
G01*
X436032Y253007D01*
G75*
D01*
G03X428876Y245852I-1J-7155*
G01*
X428876Y240135D01*
X771312Y354607D02*
G75*
D01*
G03X764190Y348144I-1J-7155*
G01*
X773689Y348144D01*
X773689Y354607D01*
X771312Y354607D01*
X827404Y354607D02*
G75*
D01*
G03X820282Y348144I-1J-7155*
G01*
X829781Y348144D01*
X829781Y354607D01*
X827404Y354607D01*
X801632Y338625D02*
X801632Y344432D01*
X795825Y344432D01*
G74*
D01*
G03X801632Y338625I9355J3548*
G01*
X814535Y344432D02*
X808728Y344432D01*
X808728Y338625D01*
G74*
D01*
G03X814535Y344432I3548J9355*
G01*
X795825Y351528D02*
X801632Y351528D01*
X801632Y357335D01*
G74*
D01*
G03X795825Y351528I3548J9355*
G01*
X790290Y348144D02*
G74*
D01*
G03X783168Y354607I7121J692*
G01*
X780791Y354607D01*
X780791Y348144D01*
X790290Y348144D01*
X808728Y357335D02*
X808728Y351528D01*
X814535Y351528D01*
G74*
D01*
G03X808728Y357335I9355J3548*
G01*
X802180Y347980D02*
G75*
D01*
G03X802180Y347980I3000J0*
G01*
X846382Y348144D02*
G74*
D01*
G03X839260Y354607I7121J692*
G01*
X836883Y354607D01*
X836883Y348144D01*
X846382Y348144D01*
X841978Y234537D02*
X841978Y227698D01*
X848817Y227698D01*
G74*
D01*
G03X841978Y234537I11017J4178*
G01*
X778300Y97513D02*
G74*
D01*
G03X785422Y103976I1J7155*
G01*
X775923Y103976D01*
X775923Y97513D01*
X778300Y97513D01*
X796552Y99865D02*
X796552Y105672D01*
X790745Y105672D01*
G74*
D01*
G03X796552Y99865I9355J3548*
G01*
X814990Y103976D02*
G75*
D01*
G03X822112Y97513I7121J692*
G01*
X824489Y97513D01*
X824489Y103976D01*
X814990Y103976D01*
X809455Y105672D02*
X803648Y105672D01*
X803648Y99865D01*
G74*
D01*
G03X809455Y105672I3548J9355*
G01*
X833968Y97513D02*
G74*
D01*
G03X841090Y103976I1J7155*
G01*
X831591Y103976D01*
X831591Y97513D01*
X833968Y97513D01*
X797100Y109220D02*
G75*
D01*
G03X797100Y109220I3000J0*
G01*
X790745Y112768D02*
X796552Y112768D01*
X796552Y118575D01*
G74*
D01*
G03X790745Y112768I3548J9355*
G01*
X803648Y118575D02*
X803648Y112768D01*
X809455Y112768D01*
G74*
D01*
G03X803648Y118575I9355J3548*
G01*
X832800Y223520D02*
G75*
D01*
G03X832800Y223520I5000J0*
G01*
X833622Y212503D02*
X833622Y219342D01*
X826783Y219342D01*
G74*
D01*
G03X833622Y212503I11017J4178*
G01*
X848817Y219342D02*
X841978Y219342D01*
X841978Y212503D01*
G74*
D01*
G03X848817Y219342I4178J11017*
G01*
X826783Y227698D02*
X833622Y227698D01*
X833622Y234537D01*
G74*
D01*
G03X826783Y227698I4178J11017*
G01*
X618228Y159215D02*
X618228Y153408D01*
X624035Y153408D01*
G74*
D01*
G03X618228Y159215I9355J3548*
G01*
X709668Y189695D02*
X709668Y183888D01*
X715475Y183888D01*
G74*
D01*
G03X709668Y189695I9355J3548*
G01*
X696765Y183888D02*
X702572Y183888D01*
X702572Y189695D01*
G74*
D01*
G03X696765Y183888I3548J9355*
G01*
X715475Y176792D02*
X709668Y176792D01*
X709668Y170985D01*
G74*
D01*
G03X715475Y176792I3548J9355*
G01*
X703120Y180340D02*
G75*
D01*
G03X703120Y180340I3000J0*
G01*
X702572Y170985D02*
X702572Y176792D01*
X696765Y176792D01*
G74*
D01*
G03X702572Y170985I9355J3548*
G01*
X611680Y149860D02*
G75*
D01*
G03X611680Y149860I3000J0*
G01*
X611132Y140505D02*
X611132Y146312D01*
X605325Y146312D01*
G74*
D01*
G03X611132Y140505I9355J3548*
G01*
X605325Y153408D02*
X611132Y153408D01*
X611132Y159215D01*
G74*
D01*
G03X605325Y153408I3548J9355*
G01*
X624035Y146312D02*
X618228Y146312D01*
X618228Y140505D01*
G74*
D01*
G03X624035Y146312I3548J9355*
G01*
X564728Y122913D02*
G74*
D01*
G03X571850Y129376I1J7155*
G01*
X562351Y129376D01*
X562351Y122913D01*
X564728Y122913D01*
X545750Y129376D02*
G75*
D01*
G03X552872Y122913I7121J692*
G01*
X555249Y122913D01*
X555249Y129376D01*
X545750Y129376D01*
X568155Y108212D02*
X562348Y108212D01*
X562348Y102405D01*
G74*
D01*
G03X568155Y108212I3548J9355*
G01*
X562348Y121115D02*
X562348Y115308D01*
X568155Y115308D01*
G74*
D01*
G03X562348Y121115I9355J3548*
G01*
X555252Y102405D02*
X555252Y108212D01*
X549445Y108212D01*
G74*
D01*
G03X555252Y102405I9355J3548*
G01*
X555800Y111760D02*
G75*
D01*
G03X555800Y111760I3000J0*
G01*
X549445Y115308D02*
X555252Y115308D01*
X555252Y121115D01*
G74*
D01*
G03X549445Y115308I3548J9355*
G01*
X759322Y103976D02*
G75*
D01*
G03X766444Y97513I7121J692*
G01*
X768821Y97513D01*
X768821Y103976D01*
X759322Y103976D01*
X757505Y234308D02*
X763197Y240000D01*
X763197Y240000D01*
X775880Y252683D01*
X775880Y252683D01*
X785220Y262023D01*
G75*
D01*
G03X776303Y270940I2579J11496*
G01*
X775880Y270517D01*
X775880Y270517D01*
X754892Y249529D01*
G74*
D01*
G03X751562Y250789I3329J3769*
G01*
X741062Y250789D01*
G75*
D01*
G03X736812Y248449I0J-5029*
G01*
G74*
D01*
G03X733617Y250677I4250J2689*
G01*
X733617Y272580D01*
X775880Y314843D01*
X775880Y314843D01*
X776990Y315953D01*
X783168Y315953D01*
G74*
D01*
G03X789439Y319661I1J7155*
G01*
X821133Y319661D01*
G75*
D01*
G03X827404Y315953I6270J3447*
G01*
X839260Y315953D01*
G75*
D01*
G03X846416Y323108I1J7155*
G01*
X846416Y328825D01*
G74*
D01*
G03X842348Y335280I7156J0*
G01*
G74*
D01*
G03X846382Y341042I3087J6455*
G01*
X836883Y341042D01*
X836883Y335981D01*
X829781Y335981D01*
X829781Y341042D01*
X820282Y341042D01*
G74*
D01*
G03X824316Y335280I7121J693*
G01*
G74*
D01*
G03X821133Y332272I3087J6455*
G01*
X789439Y332272D01*
G74*
D01*
G03X786256Y335280I6270J3447*
G01*
G74*
D01*
G03X790290Y341042I3087J6455*
G01*
X780791Y341042D01*
X780791Y335981D01*
X773689Y335981D01*
X773689Y341042D01*
X764190Y341042D01*
G74*
D01*
G03X768224Y335280I7121J693*
G01*
G74*
D01*
G03X764156Y328825I3087J6455*
G01*
X764156Y323108D01*
G75*
D01*
G03X764413Y321210I7156J3*
G01*
X741680Y298477D01*
X741680Y358140D01*
X861111Y358140D01*
X861111Y93980D01*
X726440Y93980D01*
X726440Y139700D01*
X574040Y139700D01*
X574040Y101600D01*
X513035Y101600D01*
X513035Y116690D01*
G74*
D01*
G03X513080Y116729I3270J3819*
G01*
G75*
D01*
G03X516430Y115451I3350J3751*
G01*
X522430Y115451D01*
G74*
D01*
G03X525780Y116729I0J5029*
G01*
G75*
D01*
G03X529130Y115451I3350J3751*
G01*
X535130Y115451D01*
G75*
D01*
G03X540159Y120480I0J5029*
G01*
X540159Y142480D01*
G74*
D01*
G03X538627Y146095I5029J1*
G01*
X546205Y146095D01*
G74*
D01*
G03X549784Y142240I6667J2601*
G01*
G74*
D01*
G03X545750Y136478I3087J6455*
G01*
X555249Y136478D01*
X555249Y141539D01*
X562351Y141539D01*
X562351Y136478D01*
X571850Y136478D01*
G74*
D01*
G03X567816Y142240I7121J693*
G01*
G74*
D01*
G03X571381Y146059I3087J6455*
G01*
G75*
D01*
G03X589071Y153434I7739J6342*
G01*
X599659Y164021D01*
G75*
D01*
G03X601512Y168487I-4452J4465*
G01*
X601512Y170681D01*
G74*
D01*
G03X604520Y173864I3447J6270*
G01*
G74*
D01*
G03X610282Y169830I6455J3087*
G01*
X610282Y179329D01*
X605221Y179329D01*
X605221Y186431D01*
X610282Y186431D01*
X610282Y195930D01*
G74*
D01*
G03X604520Y191896I693J7121*
G01*
G74*
D01*
G03X602285Y194587I6455J3087*
G01*
X613291Y205594D01*
X613291Y201470D01*
G75*
D01*
G03X618320Y196441I5029J0*
G01*
X623015Y196441D01*
X623015Y192159D01*
G74*
D01*
G03X617384Y195930I6323J3351*
G01*
X617384Y186431D01*
X623015Y186431D01*
X623015Y179329D01*
X617384Y179329D01*
X617384Y169830D01*
G74*
D01*
G03X623015Y173602I692J7121*
G01*
X623015Y171683D01*
G75*
D01*
G03X624861Y167211I6305J-14*
G01*
X633495Y158577D01*
X633495Y151552D01*
G75*
D01*
G03X640651Y144396I7156J0*
G01*
X646368Y144396D01*
G74*
D01*
G03X652823Y148464I0J7156*
G01*
G75*
D01*
G03X659277Y144396I6454J3086*
G01*
X664995Y144396D01*
G75*
D01*
G03X672150Y151552I-1J7156*
G01*
X672150Y158577D01*
X685772Y172199D01*
G75*
D01*
G03X687625Y176664I-4452J4465*
G01*
X687625Y196441D01*
X692320Y196441D01*
G75*
D01*
G03X697349Y201470I0J5029*
G01*
X697349Y207470D01*
G74*
D01*
G03X696071Y210820I5029J0*
G01*
G74*
D01*
G03X696110Y210865I3781J3316*
G01*
X715810Y210865D01*
X717033Y209642D01*
X717033Y201280D01*
G75*
D01*
G03X721007Y196363I5029J0*
G01*
X721007Y166782D01*
G75*
D01*
G03X722853Y162309I6305J-15*
G01*
X759288Y125874D01*
X759288Y123295D01*
G75*
D01*
G03X763356Y116840I7156J0*
G01*
G74*
D01*
G03X759322Y111078I3087J6455*
G01*
X768821Y111078D01*
X768821Y116139D01*
X775923Y116139D01*
X775923Y111078D01*
X785422Y111078D01*
G74*
D01*
G03X781388Y116840I7121J693*
G01*
G74*
D01*
G03X784571Y119848I3087J6455*
G01*
X815841Y119848D01*
G74*
D01*
G03X819024Y116840I6270J3447*
G01*
G74*
D01*
G03X814990Y111078I3087J6455*
G01*
X824489Y111078D01*
X824489Y116139D01*
X831591Y116139D01*
X831591Y111078D01*
X841090Y111078D01*
G74*
D01*
G03X837056Y116840I7121J693*
G01*
G75*
D01*
G03X841124Y123295I-3087J6455*
G01*
X841124Y129012D01*
G74*
D01*
G03X833968Y136167I7156J1*
G01*
X822112Y136167D01*
G75*
D01*
G03X815841Y132459I-1J-7155*
G01*
X784571Y132459D01*
G74*
D01*
G03X778300Y136167I6270J3447*
G01*
X766830Y136167D01*
X733617Y169380D01*
X733617Y196363D01*
G74*
D01*
G03X736812Y198591I1054J4916*
G01*
G75*
D01*
G03X741062Y196251I4250J2689*
G01*
X751562Y196251D01*
G74*
D01*
G03X754892Y197511I1J5029*
G01*
X775880Y176523D01*
X776303Y176100D01*
G75*
D01*
G03X785220Y185017I11496J-2579*
G01*
X757505Y212732D01*
G74*
D01*
G03X756591Y213490I4464J4453*
G01*
X756591Y215280D01*
G74*
D01*
G03X751562Y220309I5029J0*
G01*
X741062Y220309D01*
G75*
D01*
G03X736812Y217969I0J-5029*
G01*
G74*
D01*
G03X732562Y220309I4250J2689*
G01*
X724200Y220309D01*
X722887Y221622D01*
G74*
D01*
G03X718422Y223475I4465J4452*
G01*
X696110Y223475D01*
G74*
D01*
G03X696071Y223520I3819J3270*
G01*
G74*
D01*
G03X696110Y223565I3781J3316*
G01*
X718422Y223565D01*
G74*
D01*
G03X722887Y225418I0J6305*
G01*
X724200Y226731D01*
X732562Y226731D01*
G74*
D01*
G03X736812Y229071I0J5029*
G01*
G75*
D01*
G03X741062Y226731I4250J2689*
G01*
X751562Y226731D01*
G75*
D01*
G03X756591Y231760I0J5029*
G01*
X756591Y233550D01*
G74*
D01*
G03X757505Y234308I3550J5211*
G01*
X449120Y205740D02*
G75*
D01*
G03X449120Y205740I3000J0*
G01*
X460057Y211831D02*
X464656Y211831D01*
X464656Y221330D01*
G74*
D01*
G03X458193Y214208I692J7121*
G01*
X458193Y213691D01*
G74*
D01*
G03X455668Y215095I6073J7950*
G01*
X455668Y209288D01*
X461475Y209288D01*
G74*
D01*
G03X460057Y211831I9354J3549*
G01*
X458194Y202192D02*
X455668Y202192D01*
X455668Y196385D01*
G74*
D01*
G03X459207Y198678I3549J9355*
G01*
G74*
D01*
G03X464656Y195230I6141J3675*
G01*
X464656Y204729D01*
X458193Y204729D01*
X458193Y202352D01*
G75*
D01*
G03X458194Y202192I7155J-35*
G01*
X623308Y273515D02*
X623308Y267708D01*
X629115Y267708D01*
G74*
D01*
G03X623308Y273515I9355J3548*
G01*
X610405Y267708D02*
X616212Y267708D01*
X616212Y273515D01*
G74*
D01*
G03X610405Y267708I3548J9355*
G01*
X616760Y264160D02*
G75*
D01*
G03X616760Y264160I3000J0*
G01*
X618320Y250599D02*
G75*
D01*
G03X613291Y245570I0J-5029*
G01*
X613291Y245417D01*
X626473Y245417D01*
X626473Y250599D01*
X618320Y250599D01*
X616212Y254805D02*
X616212Y260612D01*
X610405Y260612D01*
G74*
D01*
G03X616212Y254805I9355J3548*
G01*
X645349Y245570D02*
G74*
D01*
G03X640320Y250599I5029J0*
G01*
X632167Y250599D01*
X632167Y245417D01*
X645349Y245417D01*
X645349Y245570D01*
X629115Y260612D02*
X623308Y260612D01*
X623308Y254805D01*
G74*
D01*
G03X629115Y260612I3548J9355*
G01*
X572028Y246764D02*
G75*
D01*
G03X564883Y239985I1J-7156*
G01*
X542557Y239985D01*
G74*
D01*
G03X542245Y241731I7144J376*
G01*
X542245Y259286D01*
G75*
D01*
G03X529635Y259286I-6305J9953*
G01*
X529635Y246763D01*
G74*
D01*
G03X523240Y242696I59J7155*
G01*
G74*
D01*
G03X520232Y245879I6455J3087*
G01*
X520232Y262539D01*
G75*
D01*
G03X507621Y257824I-9692J6700*
G01*
X507621Y245879D01*
G74*
D01*
G03X503913Y239608I3447J6270*
G01*
X503913Y232583D01*
X503541Y232212D01*
G75*
D01*
G03X501695Y227739I4459J-4458*
G01*
X501695Y221128D01*
G74*
D01*
G03X498014Y213972I6304J7768*
G01*
G74*
D01*
G03X496845Y214393I2710J5693*
G01*
G74*
D01*
G03X491445Y221146I7153J184*
G01*
X491445Y228452D01*
G75*
D01*
G03X478835Y228452I-6305J7767*
G01*
X478835Y219186D01*
G74*
D01*
G03X477520Y217296I5139J4978*
G01*
G74*
D01*
G03X471758Y221330I6455J3087*
G01*
X471758Y211831D01*
X476819Y211831D01*
X476819Y204729D01*
X471758Y204729D01*
X471758Y195230D01*
G74*
D01*
G03X477520Y199264I693J7121*
G01*
G75*
D01*
G03X483975Y195196I6455J3087*
G01*
X486052Y195196D01*
G74*
D01*
G03X486001Y194480I4978J714*
G01*
X486001Y189785D01*
X448265Y189785D01*
X448265Y196507D01*
G74*
D01*
G03X448572Y196385I3848J9235*
G01*
X448572Y202192D01*
X448265Y202192D01*
X448265Y209288D01*
X448572Y209288D01*
X448572Y214385D01*
G75*
D01*
G03X455044Y221508I-683J7122*
G01*
X455044Y227225D01*
G74*
D01*
G03X450976Y233680I7156J0*
G01*
G75*
D01*
G03X455044Y240135I-3087J6455*
G01*
X455044Y245852D01*
G74*
D01*
G03X452235Y251536I7156J0*
G01*
X480721Y280021D01*
G74*
D01*
G03X481024Y280347I4464J4453*
G01*
G74*
D01*
G03X481350Y280650I4127J4767*
G01*
X497880Y297180D01*
X621003Y297180D01*
X653401Y264781D01*
G75*
D01*
G03X657867Y262935I4458J4459*
G01*
X671563Y262935D01*
G74*
D01*
G03X675261Y257041I7144J375*
G01*
X675261Y250599D01*
X670320Y250599D01*
G75*
D01*
G03X665291Y245570I0J-5029*
G01*
X665291Y239570D01*
G75*
D01*
G03X666569Y236220I5029J0*
G01*
G74*
D01*
G03X665291Y232870I3751J3350*
G01*
X665291Y226870D01*
G75*
D01*
G03X666569Y223520I5029J0*
G01*
G74*
D01*
G03X665291Y220170I3751J3350*
G01*
X665291Y214170D01*
G75*
D01*
G03X666569Y210820I5029J0*
G01*
G74*
D01*
G03X665291Y207470I3751J3350*
G01*
X665291Y201470D01*
G75*
D01*
G03X670320Y196441I5029J0*
G01*
X675015Y196441D01*
X675015Y179276D01*
X666200Y170461D01*
G74*
D01*
G03X664995Y170564I1210J7052*
G01*
X659277Y170564D01*
G75*
D01*
G03X652823Y166496I1J-7156*
G01*
G74*
D01*
G03X646368Y170564I6455J3087*
G01*
X640651Y170564D01*
G75*
D01*
G03X639445Y170461I4J-7156*
G01*
X635625Y174281D01*
X635625Y196441D01*
X640320Y196441D01*
G75*
D01*
G03X645349Y201470I0J5029*
G01*
X645349Y207470D01*
G74*
D01*
G03X644071Y210820I5029J0*
G01*
G75*
D01*
G03X645349Y214170I-3751J3350*
G01*
X645349Y220170D01*
G74*
D01*
G03X644071Y223520I5029J0*
G01*
G75*
D01*
G03X645349Y226870I-3751J3350*
G01*
X645349Y232870D01*
G74*
D01*
G03X644071Y236220I5029J0*
G01*
G75*
D01*
G03X645349Y239570I-3751J3350*
G01*
X645349Y239723D01*
X632167Y239723D01*
X632167Y237899D01*
X626473Y237899D01*
X626473Y239723D01*
X613291Y239723D01*
X613291Y239570D01*
G75*
D01*
G03X614569Y236220I5029J0*
G01*
G74*
D01*
G03X614530Y236175I3781J3316*
G01*
X603527Y236175D01*
X603527Y239608D01*
G74*
D01*
G03X596372Y246764I7155J1*
G01*
X590655Y246764D01*
G75*
D01*
G03X584200Y242696I0J-7156*
G01*
G74*
D01*
G03X577745Y246764I6455J3087*
G01*
X572028Y246764D01*
G54D13*
X53340Y-2540D02*
X53340Y51308D01*
X53340Y-2540D02*
X134874Y-2540D01*
X868680Y-2540D02*
X787146Y-2540D01*
X868680Y-2540D02*
X868680Y51308D01*
X868680Y535940D02*
X868680Y482092D01*
X868680Y535940D02*
X787146Y535940D01*
X53340Y535940D02*
X134874Y535940D01*
X53340Y535940D02*
X53340Y482092D01*
X3340Y-2540D02*
X-96660Y-2540D01*
X-46660Y-52540D02*
X-46660Y47460D01*
X-84160Y-2540D02*
G75*
D01*
G02X-84160Y-2540I37500J0*
G01*
X918680Y-2540D02*
X1018680Y-2540D01*
X968680Y-52540D02*
X968680Y47460D01*
X931180Y-2540D02*
G75*
D01*
G02X931180Y-2540I37500J0*
G01*
X956180Y-2540D02*
G75*
D01*
G02X956180Y-2540I12500J0*
G01*
X3340Y535940D02*
X-96660Y535940D01*
X-46660Y485940D02*
X-46660Y585940D01*
X-84160Y535940D02*
G75*
D01*
G02X-84160Y535940I37500J0*
G01*
X-71660Y535940D02*
G75*
D01*
G02X-71660Y535940I25000J0*
G01*
X-59160Y535940D02*
G75*
D01*
G02X-59160Y535940I12500J0*
G01*
G54D14*
X457200Y508000D03*
X584200Y508000D03*
X609600Y508000D03*
X558800Y508000D03*
X508000Y508000D03*
X533400Y508000D03*
X482600Y508000D03*
X340360Y508000D03*
X365760Y508000D03*
X391160Y508000D03*
X289560Y508000D03*
X314960Y508000D03*
X264160Y508000D03*
X238760Y508000D03*
X213360Y508000D03*
X187960Y508000D03*
X457200Y25400D03*
X330200Y25400D03*
X304800Y25400D03*
X355600Y25400D03*
X406400Y25400D03*
X381000Y25400D03*
X431800Y25400D03*
X533400Y25400D03*
X558800Y25400D03*
X609600Y25400D03*
X584200Y25400D03*
X635000Y25400D03*
G54D15*
X635000Y508000D03*
X416560Y508000D03*
X279400Y25400D03*
X508000Y25400D03*
G54D16*
X632355Y505355D02*
X637645Y505355D01*
X637645Y510645D01*
X632355Y510645D01*
X632355Y505355D01*D02*
X413915Y505355D02*
X419205Y505355D01*
X419205Y510645D01*
X413915Y510645D01*
X413915Y505355D01*D02*
X276755Y22755D02*
X282045Y22755D01*
X282045Y28045D01*
X276755Y28045D01*
X276755Y22755D01*D02*
X505355Y22755D02*
X510645Y22755D01*
X510645Y28045D01*
X505355Y28045D01*
X505355Y22755D01*D02*
G54D17*
X508000Y213360D03*
X805180Y347980D03*
X800100Y109220D03*
X464820Y71120D03*
X558800Y111760D03*
X614680Y149860D03*
X840740Y22860D03*
X843280Y515620D03*
X508000Y159940D03*
X441960Y137160D03*
X485140Y236220D03*
X619760Y264160D03*
X706120Y180340D03*
X706120Y246380D03*
X396240Y345440D03*
X426720Y393700D03*
X662940Y508000D03*
X452120Y205740D03*
X579120Y152400D03*
X820420Y434340D03*
X88900Y508000D03*
X101600Y25400D03*
X218440Y309880D03*
G54D18*
X538640Y411480D03*
X507840Y411480D03*
X535940Y269240D03*
X510540Y269240D03*
X787800Y273520D03*
X787800Y173520D03*
X837800Y223520D03*
X116840Y431800D03*
X193040Y431800D03*
X193040Y406400D03*
X142240Y406400D03*
X167640Y406400D03*
X91440Y431800D03*
X116840Y406400D03*
X167640Y431800D03*
X142240Y431800D03*
X167640Y127000D03*
X116840Y101600D03*
X142240Y101600D03*
X193040Y127000D03*
X193040Y101600D03*
X167640Y101600D03*
X91440Y127000D03*
X116840Y127000D03*
X142240Y127000D03*
G54D19*
X613833Y182880D03*
X595207Y182880D03*
X534247Y452120D03*
X552873Y452120D03*
X662136Y157480D03*
X643509Y157480D03*
X486833Y208280D03*
X468207Y208280D03*
X532553Y233680D03*
X513927Y233680D03*
X97367Y248920D03*
X115993Y248920D03*
X172720Y248920D03*
X191347Y248920D03*
X574887Y233680D03*
X593513Y233680D03*
X700193Y269240D03*
X681567Y269240D03*
X96520Y309880D03*
X115147Y309880D03*
X173567Y309880D03*
X192193Y309880D03*
X397087Y375920D03*
X415713Y375920D03*
X437727Y375920D03*
X456353Y375920D03*
X456353Y411480D03*
X437727Y411480D03*
X397087Y411480D03*
X415713Y411480D03*
X456353Y452120D03*
X437727Y452120D03*
X635847Y452120D03*
X654473Y452120D03*
X507153Y452120D03*
X488527Y452120D03*
G54D20*
X610974Y176952D02*
X616692Y176952D01*
X616692Y188808D01*
X610974Y188808D01*
X610974Y176952D01*D02*
X592348Y176952D02*
X598066Y176952D01*
X598066Y188808D01*
X592348Y188808D01*
X592348Y176952D01*D02*
X436032Y240134D02*
X447888Y240134D01*
X447888Y245852D01*
X436032Y245852D01*
X436032Y240134D01*D02*
X436032Y221508D02*
X447888Y221508D01*
X447888Y227226D01*
X436032Y227226D01*
X436032Y221508D01*D02*
X531388Y446192D02*
X537106Y446192D01*
X537106Y458048D01*
X531388Y458048D01*
X531388Y446192D01*D02*
X550014Y446192D02*
X555732Y446192D01*
X555732Y458048D01*
X550014Y458048D01*
X550014Y446192D01*D02*
X684952Y509374D02*
X696808Y509374D01*
X696808Y515092D01*
X684952Y515092D01*
X684952Y509374D01*D02*
X684952Y490748D02*
X696808Y490748D01*
X696808Y496466D01*
X684952Y496466D01*
X684952Y490748D01*D02*
X766444Y104668D02*
X778300Y104668D01*
X778300Y110386D01*
X766444Y110386D01*
X766444Y104668D01*D02*
X766444Y123294D02*
X778300Y123294D01*
X778300Y129012D01*
X766444Y129012D01*
X766444Y123294D01*D02*
X822112Y104668D02*
X833968Y104668D01*
X833968Y110386D01*
X822112Y110386D01*
X822112Y104668D01*D02*
X822112Y123294D02*
X833968Y123294D01*
X833968Y129012D01*
X822112Y129012D01*
X822112Y123294D01*D02*
X552872Y148694D02*
X564728Y148694D01*
X564728Y154412D01*
X552872Y154412D01*
X552872Y148694D01*D02*
X552872Y130068D02*
X564728Y130068D01*
X564728Y135786D01*
X552872Y135786D01*
X552872Y130068D01*D02*
X436032Y158177D02*
X447888Y158177D01*
X447888Y163895D01*
X436032Y163895D01*
X436032Y158177D01*D02*
X436032Y176804D02*
X447888Y176804D01*
X447888Y182522D01*
X436032Y182522D01*
X436032Y176804D01*D02*
X659277Y151552D02*
X664995Y151552D01*
X664995Y163408D01*
X659277Y163408D01*
X659277Y151552D01*D02*
X640650Y151552D02*
X646368Y151552D01*
X646368Y163408D01*
X640650Y163408D01*
X640650Y151552D01*D02*
X483974Y202352D02*
X489692Y202352D01*
X489692Y214208D01*
X483974Y214208D01*
X483974Y202352D01*D02*
X465348Y202352D02*
X471066Y202352D01*
X471066Y214208D01*
X465348Y214208D01*
X465348Y202352D01*D02*
X529694Y227752D02*
X535412Y227752D01*
X535412Y239608D01*
X529694Y239608D01*
X529694Y227752D01*D02*
X511068Y227752D02*
X516786Y227752D01*
X516786Y239608D01*
X511068Y239608D01*
X511068Y227752D01*D02*
X94508Y242992D02*
X100226Y242992D01*
X100226Y254848D01*
X94508Y254848D01*
X94508Y242992D01*D02*
X113134Y242992D02*
X118852Y242992D01*
X118852Y254848D01*
X113134Y254848D01*
X113134Y242992D01*D02*
X169861Y242992D02*
X175579Y242992D01*
X175579Y254848D01*
X169861Y254848D01*
X169861Y242992D01*D02*
X188488Y242992D02*
X194206Y242992D01*
X194206Y254848D01*
X188488Y254848D01*
X188488Y242992D01*D02*
X572028Y227752D02*
X577746Y227752D01*
X577746Y239608D01*
X572028Y239608D01*
X572028Y227752D01*D02*
X590654Y227752D02*
X596372Y227752D01*
X596372Y239608D01*
X590654Y239608D01*
X590654Y227752D01*D02*
X697334Y263312D02*
X703052Y263312D01*
X703052Y275168D01*
X697334Y275168D01*
X697334Y263312D01*D02*
X678708Y263312D02*
X684426Y263312D01*
X684426Y275168D01*
X678708Y275168D01*
X678708Y263312D01*D02*
X93661Y303952D02*
X99379Y303952D01*
X99379Y315808D01*
X93661Y315808D01*
X93661Y303952D01*D02*
X112288Y303952D02*
X118006Y303952D01*
X118006Y315808D01*
X112288Y315808D01*
X112288Y303952D01*D02*
X170708Y303952D02*
X176426Y303952D01*
X176426Y315808D01*
X170708Y315808D01*
X170708Y303952D01*D02*
X189334Y303952D02*
X195052Y303952D01*
X195052Y315808D01*
X189334Y315808D01*
X189334Y303952D01*D02*
X771312Y323108D02*
X783168Y323108D01*
X783168Y328826D01*
X771312Y328826D01*
X771312Y323108D01*D02*
X771312Y341734D02*
X783168Y341734D01*
X783168Y347452D01*
X771312Y347452D01*
X771312Y341734D01*D02*
X827404Y323108D02*
X839260Y323108D01*
X839260Y328826D01*
X827404Y328826D01*
X827404Y323108D01*D02*
X827404Y341734D02*
X839260Y341734D01*
X839260Y347452D01*
X827404Y347452D01*
X827404Y341734D01*D02*
X394228Y369992D02*
X399946Y369992D01*
X399946Y381848D01*
X394228Y381848D01*
X394228Y369992D01*D02*
X412854Y369992D02*
X418572Y369992D01*
X418572Y381848D01*
X412854Y381848D01*
X412854Y369992D01*D02*
X434868Y369992D02*
X440586Y369992D01*
X440586Y381848D01*
X434868Y381848D01*
X434868Y369992D01*D02*
X453494Y369992D02*
X459212Y369992D01*
X459212Y381848D01*
X453494Y381848D01*
X453494Y369992D01*D02*
X234111Y434964D02*
X245967Y434964D01*
X245967Y440682D01*
X234111Y440682D01*
X234111Y434964D01*D02*
X234111Y416337D02*
X245967Y416337D01*
X245967Y422055D01*
X234111Y422055D01*
X234111Y416337D01*D02*
X267310Y416337D02*
X279166Y416337D01*
X279166Y422055D01*
X267310Y422055D01*
X267310Y416337D01*D02*
X267310Y434964D02*
X279166Y434964D01*
X279166Y440682D01*
X267310Y440682D01*
X267310Y434964D01*D02*
X453494Y405552D02*
X459212Y405552D01*
X459212Y417408D01*
X453494Y417408D01*
X453494Y405552D01*D02*
X434868Y405552D02*
X440586Y405552D01*
X440586Y417408D01*
X434868Y417408D01*
X434868Y405552D01*D02*
X394228Y405552D02*
X399946Y405552D01*
X399946Y417408D01*
X394228Y417408D01*
X394228Y405552D01*D02*
X412854Y405552D02*
X418572Y405552D01*
X418572Y417408D01*
X412854Y417408D01*
X412854Y405552D01*D02*
X453494Y446192D02*
X459212Y446192D01*
X459212Y458048D01*
X453494Y458048D01*
X453494Y446192D01*D02*
X434868Y446192D02*
X440586Y446192D01*
X440586Y458048D01*
X434868Y458048D01*
X434868Y446192D01*D02*
X588432Y450108D02*
X600288Y450108D01*
X600288Y455826D01*
X588432Y455826D01*
X588432Y450108D01*D02*
X588432Y468734D02*
X600288Y468734D01*
X600288Y474452D01*
X588432Y474452D01*
X588432Y468734D01*D02*
X632988Y446192D02*
X638706Y446192D01*
X638706Y458048D01*
X632988Y458048D01*
X632988Y446192D01*D02*
X651614Y446192D02*
X657332Y446192D01*
X657332Y458048D01*
X651614Y458048D01*
X651614Y446192D01*D02*
X684952Y429788D02*
X696808Y429788D01*
X696808Y435506D01*
X684952Y435506D01*
X684952Y429788D01*D02*
X684952Y448414D02*
X696808Y448414D01*
X696808Y454132D01*
X684952Y454132D01*
X684952Y448414D01*D02*
X504294Y446192D02*
X510012Y446192D01*
X510012Y458048D01*
X504294Y458048D01*
X504294Y446192D01*D02*
X485668Y446192D02*
X491386Y446192D01*
X491386Y458048D01*
X485668Y458048D01*
X485668Y446192D01*D02*
G54D21*
X441960Y242993D03*
X441960Y224367D03*
X690880Y512233D03*
X690880Y493607D03*
X772372Y107527D03*
X772372Y126153D03*
X828040Y107527D03*
X828040Y126153D03*
X558800Y151553D03*
X558800Y132927D03*
X441960Y161036D03*
X441960Y179663D03*
X777240Y325967D03*
X777240Y344593D03*
X833332Y325967D03*
X833332Y344593D03*
X240039Y437823D03*
X240039Y419196D03*
X273238Y419196D03*
X273238Y437823D03*
X594360Y452967D03*
X594360Y471593D03*
X690880Y432647D03*
X690880Y451273D03*
G54D22*
X629320Y204470D03*
X629320Y217170D03*
X681320Y204470D03*
X681320Y217170D03*
X629320Y229870D03*
X629320Y242570D03*
X681320Y229870D03*
X681320Y242570D03*
G54D23*
X91440Y406400D03*
X91440Y101600D03*
G54D24*
X494030Y131480D03*
X519430Y131480D03*
X506730Y131480D03*
X532130Y131480D03*
X494030Y183480D03*
X519430Y183480D03*
X506730Y183480D03*
X532130Y183480D03*
G54D25*
X727312Y208280D03*
X746312Y208280D03*
X727312Y238760D03*
X746312Y238760D03*

M02*
