G04 Generated by Ultiboard 14.0 *
%FSLAX34Y34*%
%MOMM*%

%ADD10C,0.0001*%
%ADD11C,0.0010*%
%ADD12C,0.1270*%


G04 ColorRGB 00FFFF for the following layer *
%LNBoard Outline*%
%LPD*%
G54D10*
G54D11*
X866140Y523240D02*
X866101Y524125D01*
X865986Y525004D01*
X865794Y525869D01*
X865528Y526715D01*
X865188Y527534D01*
X864779Y528320D01*
X864303Y529067D01*
X863764Y529770D01*
X863165Y530424D01*
X862511Y531023D01*
X861808Y531562D01*
X861061Y532039D01*
X860275Y532448D01*
X859456Y532787D01*
X858611Y533054D01*
X857745Y533246D01*
X856867Y533361D01*
X855981Y533400D01*
X855980Y533400D01*
X866140Y523240D02*
X866140Y10160D01*
X855980Y0D02*
X856865Y39D01*
X857744Y154D01*
X858609Y346D01*
X859455Y612D01*
X860274Y952D01*
X861060Y1361D01*
X861807Y1837D01*
X862510Y2376D01*
X863164Y2975D01*
X863763Y3629D01*
X864302Y4332D01*
X864779Y5079D01*
X865188Y5865D01*
X865527Y6684D01*
X865794Y7529D01*
X865986Y8395D01*
X866101Y9273D01*
X866140Y10159D01*
X866140Y10160D01*
X63500Y533400D02*
X855980Y533400D01*
X66040Y533240D02*
X65168Y533202D01*
X64303Y533088D01*
X63452Y532899D01*
X62620Y532637D01*
X61814Y532303D01*
X61040Y531900D01*
X60304Y531432D01*
X59612Y530900D01*
X58969Y530311D01*
X58379Y529668D01*
X57848Y528976D01*
X57379Y528240D01*
X56977Y527466D01*
X56643Y526660D01*
X56380Y525828D01*
X56192Y524976D01*
X56078Y524111D01*
X56040Y523240D01*
X55880Y7300D02*
X55880Y525780D01*
X56040Y10160D02*
X56078Y9288D01*
X56192Y8423D01*
X56381Y7572D01*
X56643Y6740D01*
X56977Y5934D01*
X57380Y5160D01*
X57848Y4424D01*
X58380Y3732D01*
X58969Y3089D01*
X59612Y2499D01*
X60304Y1968D01*
X61040Y1499D01*
X61814Y1097D01*
X62620Y763D01*
X63452Y500D01*
X64304Y312D01*
X65169Y198D01*
X66040Y160D01*
X855980Y0D02*
X63500Y0D01*
G54D12*
X53340Y-2540D02*
X53340Y51308D01*
X53340Y-2540D02*
X134874Y-2540D01*
X868680Y-2540D02*
X787146Y-2540D01*
X868680Y-2540D02*
X868680Y51308D01*
X868680Y535940D02*
X868680Y482092D01*
X868680Y535940D02*
X787146Y535940D01*
X53340Y535940D02*
X134874Y535940D01*
X53340Y535940D02*
X53340Y482092D01*
X3340Y-2540D02*
X-96660Y-2540D01*
X-46660Y-52540D02*
X-46660Y47460D01*
X-84160Y-2540D02*
G75*
D01*
G02X-84160Y-2540I37500J0*
G01*
X918680Y-2540D02*
X1018680Y-2540D01*
X968680Y-52540D02*
X968680Y47460D01*
X931180Y-2540D02*
G75*
D01*
G02X931180Y-2540I37500J0*
G01*
X956180Y-2540D02*
G75*
D01*
G02X956180Y-2540I12500J0*
G01*
X3340Y535940D02*
X-96660Y535940D01*
X-46660Y485940D02*
X-46660Y585940D01*
X-84160Y535940D02*
G75*
D01*
G02X-84160Y535940I37500J0*
G01*
X-71660Y535940D02*
G75*
D01*
G02X-71660Y535940I25000J0*
G01*
X-59160Y535940D02*
G75*
D01*
G02X-59160Y535940I12500J0*
G01*

M02*
