G04 Generated by Ultiboard 14.0 *
%FSLAX34Y34*%
%MOMM*%

%ADD10C,0.0001*%
%ADD11C,0.1270*%
%ADD12C,1.6088*%
%ADD13R,0.5291X0.5291*%
%ADD14C,0.9949*%
%ADD15C,1.0000*%
%ADD16C,1.3556*%
%ADD17R,1.3556X1.3556*%


G04 ColorRGB 9900CC for the following layer *
%LNSolder Mask Bottom*%
%LPD*%
G54D10*
G54D11*
X53340Y-2540D02*
X53340Y51308D01*
X53340Y-2540D02*
X134874Y-2540D01*
X868680Y-2540D02*
X787146Y-2540D01*
X868680Y-2540D02*
X868680Y51308D01*
X868680Y535940D02*
X868680Y482092D01*
X868680Y535940D02*
X787146Y535940D01*
X53340Y535940D02*
X134874Y535940D01*
X53340Y535940D02*
X53340Y482092D01*
X3340Y-2540D02*
X-96660Y-2540D01*
X-46660Y-52540D02*
X-46660Y47460D01*
X-84160Y-2540D02*
G75*
D01*
G02X-84160Y-2540I37500J0*
G01*
X918680Y-2540D02*
X1018680Y-2540D01*
X968680Y-52540D02*
X968680Y47460D01*
X931180Y-2540D02*
G75*
D01*
G02X931180Y-2540I37500J0*
G01*
X956180Y-2540D02*
G75*
D01*
G02X956180Y-2540I12500J0*
G01*
X3340Y535940D02*
X-96660Y535940D01*
X-46660Y485940D02*
X-46660Y585940D01*
X-84160Y535940D02*
G75*
D01*
G02X-84160Y535940I37500J0*
G01*
X-71660Y535940D02*
G75*
D01*
G02X-71660Y535940I25000J0*
G01*
X-59160Y535940D02*
G75*
D01*
G02X-59160Y535940I12500J0*
G01*
G54D12*
X457200Y508000D03*
X584200Y508000D03*
X609600Y508000D03*
X558800Y508000D03*
X508000Y508000D03*
X533400Y508000D03*
X482600Y508000D03*
X340360Y508000D03*
X365760Y508000D03*
X391160Y508000D03*
X289560Y508000D03*
X314960Y508000D03*
X264160Y508000D03*
X238760Y508000D03*
X213360Y508000D03*
X187960Y508000D03*
X457200Y25400D03*
X330200Y25400D03*
X304800Y25400D03*
X355600Y25400D03*
X406400Y25400D03*
X381000Y25400D03*
X431800Y25400D03*
X533400Y25400D03*
X558800Y25400D03*
X609600Y25400D03*
X584200Y25400D03*
X635000Y25400D03*
G54D13*
X635000Y508000D03*
X416560Y508000D03*
X279400Y25400D03*
X508000Y25400D03*
G54D14*
X632355Y505355D02*
X637645Y505355D01*
X637645Y510645D01*
X632355Y510645D01*
X632355Y505355D01*D02*
X413915Y505355D02*
X419205Y505355D01*
X419205Y510645D01*
X413915Y510645D01*
X413915Y505355D01*D02*
X276755Y22755D02*
X282045Y22755D01*
X282045Y28045D01*
X276755Y28045D01*
X276755Y22755D01*D02*
X505355Y22755D02*
X510645Y22755D01*
X510645Y28045D01*
X505355Y28045D01*
X505355Y22755D01*D02*
G54D15*
X508000Y213360D03*
X805180Y347980D03*
X800100Y109220D03*
X464820Y71120D03*
X558800Y111760D03*
X614680Y149860D03*
X840740Y22860D03*
X843280Y515620D03*
X508000Y159940D03*
X441960Y137160D03*
X485140Y236220D03*
X619760Y264160D03*
X706120Y180340D03*
X706120Y246380D03*
X396240Y345440D03*
X426720Y393700D03*
X662940Y508000D03*
X452120Y205740D03*
X579120Y152400D03*
X820420Y434340D03*
X88900Y508000D03*
X101600Y25400D03*
X218440Y309880D03*
G54D16*
X538640Y411480D03*
X507840Y411480D03*
X535940Y269240D03*
X510540Y269240D03*
X787800Y273520D03*
X787800Y173520D03*
X837800Y223520D03*
X116840Y431800D03*
X193040Y431800D03*
X193040Y406400D03*
X142240Y406400D03*
X167640Y406400D03*
X91440Y431800D03*
X116840Y406400D03*
X167640Y431800D03*
X142240Y431800D03*
X167640Y127000D03*
X116840Y101600D03*
X142240Y101600D03*
X193040Y127000D03*
X193040Y101600D03*
X167640Y101600D03*
X91440Y127000D03*
X116840Y127000D03*
X142240Y127000D03*
G54D17*
X91440Y406400D03*
X91440Y101600D03*

M02*
