G04 Generated by Ultiboard 14.0 *
%FSLAX34Y34*%
%MOMM*%

%ADD10C,0.0001*%
%ADD11C,3.2000*%
%ADD12C,0.8890*%
%ADD13C,0.9949*%
%ADD14C,0.6000*%
%ADD15C,1.0000*%


G04 ColorRGB 000000 for the following layer *
%LNDrill-Copper Top-Copper Bottom*%
%LPD*%
G54D11*
X660400Y355600D03*
X660400Y76200D03*
X152400Y508000D03*
X139700Y25400D03*
G54D12*
X457200Y508000D03*
X584200Y508000D03*
X609600Y508000D03*
X558800Y508000D03*
X508000Y508000D03*
X533400Y508000D03*
X482600Y508000D03*
X340360Y508000D03*
X365760Y508000D03*
X391160Y508000D03*
X289560Y508000D03*
X314960Y508000D03*
X264160Y508000D03*
X238760Y508000D03*
X213360Y508000D03*
X187960Y508000D03*
X457200Y25400D03*
X330200Y25400D03*
X304800Y25400D03*
X355600Y25400D03*
X406400Y25400D03*
X381000Y25400D03*
X431800Y25400D03*
X533400Y25400D03*
X558800Y25400D03*
X609600Y25400D03*
X584200Y25400D03*
X635000Y25400D03*
G54D13*
X635000Y508000D03*
X416560Y508000D03*
X279400Y25400D03*
X508000Y25400D03*
G54D14*
X508000Y213360D03*
X805180Y347980D03*
X800100Y109220D03*
X464820Y71120D03*
X558800Y111760D03*
X614680Y149860D03*
X840740Y22860D03*
X843280Y515620D03*
X508000Y159940D03*
X441960Y137160D03*
X485140Y236220D03*
X619760Y264160D03*
X706120Y180340D03*
X706120Y246380D03*
X396240Y345440D03*
X426720Y393700D03*
X662940Y508000D03*
X452120Y205740D03*
X579120Y152400D03*
X820420Y434340D03*
X88900Y508000D03*
X101600Y25400D03*
X218440Y309880D03*
G54D15*
X538640Y411480D03*
X507840Y411480D03*
X535940Y269240D03*
X510540Y269240D03*
X787800Y273520D03*
X787800Y173520D03*
X837800Y223520D03*
X116840Y431800D03*
X193040Y431800D03*
X91440Y406400D03*
X193040Y406400D03*
X142240Y406400D03*
X167640Y406400D03*
X91440Y431800D03*
X116840Y406400D03*
X167640Y431800D03*
X142240Y431800D03*
X167640Y127000D03*
X91440Y101600D03*
X116840Y101600D03*
X142240Y101600D03*
X193040Y127000D03*
X193040Y101600D03*
X167640Y101600D03*
X91440Y127000D03*
X116840Y127000D03*
X142240Y127000D03*

M02*
